%
M48
M72
T01C0.02362
T02C0.03200
T03C0.03622
T04C0.04000
T05C0.09055
T06C0.13000
%
T01
X70456Y28800
X87706Y44300
X85206Y58050
X71456Y75550
X82706Y99300
X76456Y111800
X81456Y126800
X116456Y122800
X126456Y122800
X136456Y122800
X121456Y103050
X107706Y93050
X120456Y79800
X120206Y71800
X136456Y81800
X148956Y81800
X146456Y91800
X161456Y106800
X176456Y96800
X187706Y106800
X205206Y108050
X231456Y91800
X237706Y85550
X222706Y85550
X211456Y73050
X206456Y79300
X200206Y65550
X209956Y61800
X197706Y50550
X177706Y50550
X160206Y65550
X175456Y77800
X181456Y71800
X190206Y74300
X150206Y35550
X131456Y51800
X128956Y58050
X113956Y50550
X43956Y123050
X38956Y166800
X51456Y166800
X191456Y153300
X251456Y156800
X251456Y110300
T02
X195956Y36800
X176956Y36800
X120956Y36800
X101956Y36800
T03
X59999Y36879
X52125Y36879
X52125Y46721
X59999Y46721
T04
X104856Y140550
X115656Y140550
X126456Y140550
X137256Y140550
X148056Y140550
X142656Y150550
X131856Y150550
X121056Y150550
X110256Y150550
X211456Y171800
X221456Y171800
X231456Y171800
X241456Y171800
X242706Y23050
X232706Y23050
X222706Y23050
X212706Y23050
X252706Y23050
T05
X41456Y18099
X41456Y65501
T06
X77156Y145550
X175756Y145550
M30
