G75*
%MOIN*%
%OFA0B0*%
%FSLAX25Y25*%
%IPPOS*%
%LPD*%
%AMOC8*
5,1,8,0,0,1.08239X$1,22.5*
%
%ADD10C,0.00300*%
%ADD11C,0.00500*%
%ADD12C,0.00600*%
%ADD13C,0.00400*%
%ADD14C,0.00800*%
%ADD15R,0.03838X0.20472*%
%ADD16R,0.00984X0.00984*%
%ADD17C,0.01600*%
%ADD18R,0.73000X0.03000*%
%ADD19R,1.22000X0.02000*%
%ADD20R,0.03200X0.28500*%
%ADD21R,0.03200X0.18500*%
D10*
X0072106Y0050567D02*
X0072723Y0049950D01*
X0073957Y0049950D01*
X0074575Y0050567D01*
X0075789Y0049950D02*
X0078258Y0049950D01*
X0077023Y0049950D02*
X0077023Y0053653D01*
X0075789Y0052419D01*
X0074575Y0053036D02*
X0073957Y0053653D01*
X0072723Y0053653D01*
X0072106Y0053036D01*
X0072106Y0050567D01*
X0079472Y0050567D02*
X0080089Y0049950D01*
X0081324Y0049950D01*
X0081941Y0050567D01*
X0081941Y0051802D01*
X0081324Y0052419D01*
X0080707Y0052419D01*
X0079472Y0051802D01*
X0079472Y0053653D01*
X0081941Y0053653D01*
X0082973Y0072700D02*
X0084207Y0072700D01*
X0084825Y0073317D01*
X0086039Y0072700D02*
X0088508Y0072700D01*
X0087273Y0072700D02*
X0087273Y0076403D01*
X0086039Y0075169D01*
X0084825Y0075786D02*
X0084207Y0076403D01*
X0082973Y0076403D01*
X0082356Y0075786D01*
X0082356Y0073317D01*
X0082973Y0072700D01*
X0090473Y0097450D02*
X0091707Y0097450D01*
X0092325Y0098067D01*
X0093539Y0098067D02*
X0094156Y0097450D01*
X0095391Y0097450D01*
X0096008Y0098067D01*
X0096008Y0100536D01*
X0095391Y0101153D01*
X0094156Y0101153D01*
X0093539Y0100536D01*
X0093539Y0099919D01*
X0094156Y0099302D01*
X0096008Y0099302D01*
X0092325Y0100536D02*
X0091707Y0101153D01*
X0090473Y0101153D01*
X0089856Y0100536D01*
X0089856Y0098067D01*
X0090473Y0097450D01*
X0105664Y0118179D02*
X0105664Y0119881D01*
X0105097Y0119881D02*
X0106231Y0119881D01*
X0106938Y0119881D02*
X0108072Y0118179D01*
X0106938Y0118179D02*
X0108072Y0119881D01*
X0115097Y0119881D02*
X0115097Y0118179D01*
X0115097Y0118747D02*
X0115947Y0118747D01*
X0116231Y0119030D01*
X0116231Y0119597D01*
X0115947Y0119881D01*
X0115097Y0119881D01*
X0115664Y0118747D02*
X0116231Y0118179D01*
X0116938Y0118179D02*
X0118072Y0119881D01*
X0116938Y0119881D02*
X0118072Y0118179D01*
X0122097Y0118463D02*
X0122097Y0119597D01*
X0122380Y0119881D01*
X0122947Y0119881D01*
X0123231Y0119597D01*
X0123938Y0119314D02*
X0124505Y0119881D01*
X0125072Y0119314D01*
X0125072Y0118179D01*
X0125780Y0118179D02*
X0125780Y0119881D01*
X0126914Y0118179D01*
X0126914Y0119881D01*
X0127621Y0119881D02*
X0128756Y0119881D01*
X0128188Y0119881D02*
X0128188Y0118179D01*
X0129463Y0118179D02*
X0130597Y0119881D01*
X0129463Y0119881D02*
X0130597Y0118179D01*
X0133172Y0118381D02*
X0133455Y0118097D01*
X0134023Y0118097D01*
X0134306Y0118381D01*
X0135013Y0118097D02*
X0135013Y0119231D01*
X0135581Y0119799D01*
X0136148Y0119231D01*
X0136148Y0118097D01*
X0136855Y0118097D02*
X0136855Y0119799D01*
X0137989Y0118097D01*
X0137989Y0119799D01*
X0138697Y0119799D02*
X0139547Y0119799D01*
X0139831Y0119515D01*
X0139831Y0118948D01*
X0139547Y0118664D01*
X0138697Y0118664D01*
X0139264Y0118664D02*
X0139831Y0118097D01*
X0140538Y0118097D02*
X0141672Y0119799D01*
X0140538Y0119799D02*
X0141672Y0118097D01*
X0138697Y0118097D02*
X0138697Y0119799D01*
X0136148Y0118948D02*
X0135013Y0118948D01*
X0134306Y0119515D02*
X0134023Y0119799D01*
X0133455Y0119799D01*
X0133172Y0119515D01*
X0133172Y0118381D01*
X0125072Y0119030D02*
X0123938Y0119030D01*
X0123938Y0119314D02*
X0123938Y0118179D01*
X0123231Y0118463D02*
X0122947Y0118179D01*
X0122380Y0118179D01*
X0122097Y0118463D01*
X0154856Y0092786D02*
X0154856Y0090317D01*
X0155473Y0089700D01*
X0156707Y0089700D01*
X0157325Y0090317D01*
X0158539Y0089700D02*
X0161008Y0089700D01*
X0159773Y0089700D02*
X0159773Y0093403D01*
X0158539Y0092169D01*
X0157325Y0092786D02*
X0156707Y0093403D01*
X0155473Y0093403D01*
X0154856Y0092786D01*
X0162222Y0092786D02*
X0162222Y0090317D01*
X0164691Y0092786D01*
X0164691Y0090317D01*
X0164074Y0089700D01*
X0162839Y0089700D01*
X0162222Y0090317D01*
X0162222Y0092786D02*
X0162839Y0093403D01*
X0164074Y0093403D01*
X0164691Y0092786D01*
X0163520Y0063352D02*
X0163520Y0060450D01*
X0164487Y0060450D02*
X0162552Y0060450D01*
X0161541Y0060450D02*
X0160573Y0061417D01*
X0161057Y0061417D02*
X0159606Y0061417D01*
X0159606Y0060450D02*
X0159606Y0063352D01*
X0161057Y0063352D01*
X0161541Y0062869D01*
X0161541Y0061901D01*
X0161057Y0061417D01*
X0162552Y0062385D02*
X0163520Y0063352D01*
X0164713Y0051652D02*
X0166164Y0051652D01*
X0166648Y0051169D01*
X0166648Y0050201D01*
X0166164Y0049717D01*
X0164713Y0049717D01*
X0164713Y0048750D02*
X0164713Y0051652D01*
X0165680Y0049717D02*
X0166648Y0048750D01*
X0167659Y0048750D02*
X0169594Y0050685D01*
X0169594Y0051169D01*
X0169111Y0051652D01*
X0168143Y0051652D01*
X0167659Y0051169D01*
X0167659Y0048750D02*
X0169594Y0048750D01*
X0161487Y0040352D02*
X0160520Y0039869D01*
X0159552Y0038901D01*
X0161004Y0038901D01*
X0161487Y0038417D01*
X0161487Y0037934D01*
X0161004Y0037450D01*
X0160036Y0037450D01*
X0159552Y0037934D01*
X0159552Y0038901D01*
X0158541Y0037934D02*
X0158057Y0037450D01*
X0157090Y0037450D01*
X0156606Y0037934D01*
X0156606Y0039869D01*
X0157090Y0040352D01*
X0158057Y0040352D01*
X0158541Y0039869D01*
X0152004Y0048950D02*
X0152004Y0051852D01*
X0150552Y0050401D01*
X0152487Y0050401D01*
X0149541Y0050401D02*
X0149057Y0049917D01*
X0147606Y0049917D01*
X0147606Y0048950D02*
X0147606Y0051852D01*
X0149057Y0051852D01*
X0149541Y0051369D01*
X0149541Y0050401D01*
X0148573Y0049917D02*
X0149541Y0048950D01*
X0143611Y0039652D02*
X0142159Y0038201D01*
X0144094Y0038201D01*
X0143611Y0036750D02*
X0143611Y0039652D01*
X0140180Y0039652D02*
X0140180Y0036750D01*
X0139213Y0036750D02*
X0141148Y0036750D01*
X0139213Y0038685D02*
X0140180Y0039652D01*
X0138201Y0039169D02*
X0137718Y0039652D01*
X0136750Y0039652D01*
X0136266Y0039169D01*
X0136266Y0037234D01*
X0136750Y0036750D01*
X0137718Y0036750D01*
X0138201Y0037234D01*
X0138713Y0060250D02*
X0138713Y0063152D01*
X0140164Y0063152D01*
X0140648Y0062669D01*
X0140648Y0061701D01*
X0140164Y0061217D01*
X0138713Y0061217D01*
X0139680Y0061217D02*
X0140648Y0060250D01*
X0141659Y0060734D02*
X0142143Y0060250D01*
X0143111Y0060250D01*
X0143594Y0060734D01*
X0143594Y0061701D01*
X0143111Y0062185D01*
X0142627Y0062185D01*
X0141659Y0061701D01*
X0141659Y0063152D01*
X0143594Y0063152D01*
X0177223Y0017653D02*
X0176606Y0017036D01*
X0176606Y0014567D01*
X0177223Y0013950D01*
X0178457Y0013950D01*
X0179075Y0014567D01*
X0180289Y0014567D02*
X0180906Y0013950D01*
X0182141Y0013950D01*
X0182758Y0014567D01*
X0182758Y0015184D01*
X0182141Y0015802D01*
X0181523Y0015802D01*
X0182141Y0015802D02*
X0182758Y0016419D01*
X0182758Y0017036D01*
X0182141Y0017653D01*
X0180906Y0017653D01*
X0180289Y0017036D01*
X0179075Y0017036D02*
X0178457Y0017653D01*
X0177223Y0017653D01*
X0191106Y0017036D02*
X0191106Y0014567D01*
X0191723Y0013950D01*
X0192957Y0013950D01*
X0193575Y0014567D01*
X0194789Y0015802D02*
X0197258Y0015802D01*
X0196641Y0017653D02*
X0196641Y0013950D01*
X0194789Y0015802D02*
X0196641Y0017653D01*
X0193575Y0017036D02*
X0192957Y0017653D01*
X0191723Y0017653D01*
X0191106Y0017036D01*
X0219090Y0047950D02*
X0220057Y0047950D01*
X0220541Y0048434D01*
X0221552Y0048434D02*
X0223487Y0050369D01*
X0223487Y0050852D01*
X0221552Y0050852D01*
X0220541Y0050369D02*
X0220057Y0050852D01*
X0219090Y0050852D01*
X0218606Y0050369D01*
X0218606Y0048434D01*
X0219090Y0047950D01*
X0221552Y0047950D02*
X0221552Y0048434D01*
X0250356Y0059317D02*
X0250973Y0058700D01*
X0252207Y0058700D01*
X0252825Y0059317D01*
X0254039Y0059317D02*
X0254039Y0059934D01*
X0254656Y0060552D01*
X0255891Y0060552D01*
X0256508Y0059934D01*
X0256508Y0059317D01*
X0255891Y0058700D01*
X0254656Y0058700D01*
X0254039Y0059317D01*
X0254656Y0060552D02*
X0254039Y0061169D01*
X0254039Y0061786D01*
X0254656Y0062403D01*
X0255891Y0062403D01*
X0256508Y0061786D01*
X0256508Y0061169D01*
X0255891Y0060552D01*
X0252825Y0061786D02*
X0252207Y0062403D01*
X0250973Y0062403D01*
X0250356Y0061786D01*
X0250356Y0059317D01*
X0221941Y0097450D02*
X0219472Y0097450D01*
X0218258Y0097450D02*
X0215789Y0097450D01*
X0217023Y0097450D02*
X0217023Y0101153D01*
X0215789Y0099919D01*
X0214575Y0100536D02*
X0213957Y0101153D01*
X0212723Y0101153D01*
X0212106Y0100536D01*
X0212106Y0098067D01*
X0212723Y0097450D01*
X0213957Y0097450D01*
X0214575Y0098067D01*
X0219472Y0099919D02*
X0220707Y0101153D01*
X0220707Y0097450D01*
X0212392Y0116200D02*
X0209923Y0116200D01*
X0211157Y0116200D02*
X0211157Y0119903D01*
X0209923Y0118669D01*
X0208708Y0119286D02*
X0208091Y0119903D01*
X0206240Y0119903D01*
X0206240Y0116200D01*
X0208091Y0116200D01*
X0208708Y0116817D01*
X0208708Y0119286D01*
X0170191Y0124317D02*
X0169574Y0123700D01*
X0168339Y0123700D01*
X0167722Y0124317D01*
X0167722Y0126786D01*
X0168339Y0127403D01*
X0169574Y0127403D01*
X0170191Y0126786D01*
X0166508Y0127403D02*
X0164039Y0127403D01*
X0165273Y0127403D02*
X0165273Y0123700D01*
X0162825Y0125552D02*
X0162207Y0124934D01*
X0160356Y0124934D01*
X0160356Y0123700D02*
X0160356Y0127403D01*
X0162207Y0127403D01*
X0162825Y0126786D01*
X0162825Y0125552D01*
X0211356Y0158067D02*
X0211973Y0157450D01*
X0213207Y0157450D01*
X0213825Y0158067D01*
X0215039Y0157450D02*
X0217508Y0159919D01*
X0217508Y0160536D01*
X0216891Y0161153D01*
X0215656Y0161153D01*
X0215039Y0160536D01*
X0213825Y0160536D02*
X0213207Y0161153D01*
X0211973Y0161153D01*
X0211356Y0160536D01*
X0211356Y0158067D01*
X0215039Y0157450D02*
X0217508Y0157450D01*
X0228490Y0156786D02*
X0228490Y0154317D01*
X0229107Y0153700D01*
X0230341Y0153700D01*
X0230958Y0154317D01*
X0232173Y0154317D02*
X0232790Y0153700D01*
X0234024Y0153700D01*
X0234642Y0154317D01*
X0234642Y0155552D01*
X0234024Y0156169D01*
X0233407Y0156169D01*
X0232173Y0155552D01*
X0232173Y0157403D01*
X0234642Y0157403D01*
X0230958Y0156786D02*
X0230341Y0157403D01*
X0229107Y0157403D01*
X0228490Y0156786D01*
X0124324Y0017153D02*
X0124941Y0016536D01*
X0124941Y0015919D01*
X0124324Y0015302D01*
X0124941Y0014684D01*
X0124941Y0014067D01*
X0124324Y0013450D01*
X0123089Y0013450D01*
X0122472Y0014067D01*
X0121258Y0013450D02*
X0118789Y0013450D01*
X0120023Y0013450D02*
X0120023Y0017153D01*
X0118789Y0015919D01*
X0117575Y0016536D02*
X0116957Y0017153D01*
X0115723Y0017153D01*
X0115106Y0016536D01*
X0115106Y0014067D01*
X0115723Y0013450D01*
X0116957Y0013450D01*
X0117575Y0014067D01*
X0122472Y0016536D02*
X0123089Y0017153D01*
X0124324Y0017153D01*
X0124324Y0015302D02*
X0123707Y0015302D01*
X0109441Y0015919D02*
X0109441Y0016536D01*
X0108824Y0017153D01*
X0107589Y0017153D01*
X0106972Y0016536D01*
X0104523Y0017153D02*
X0104523Y0013450D01*
X0103289Y0013450D02*
X0105758Y0013450D01*
X0106972Y0013450D02*
X0109441Y0015919D01*
X0109441Y0013450D02*
X0106972Y0013450D01*
X0103289Y0015919D02*
X0104523Y0017153D01*
X0102075Y0016536D02*
X0101457Y0017153D01*
X0100223Y0017153D01*
X0099606Y0016536D01*
X0099606Y0014067D01*
X0100223Y0013450D01*
X0101457Y0013450D01*
X0102075Y0014067D01*
D11*
X0086955Y0011550D02*
X0085153Y0011550D01*
X0086054Y0011550D02*
X0086054Y0014252D01*
X0085153Y0013352D01*
X0081062Y0013352D02*
X0080161Y0011550D01*
X0079260Y0013352D01*
X0078115Y0012901D02*
X0078115Y0012451D01*
X0076314Y0012451D01*
X0076314Y0012901D02*
X0076764Y0013352D01*
X0077665Y0013352D01*
X0078115Y0012901D01*
X0077665Y0011550D02*
X0076764Y0011550D01*
X0076314Y0012000D01*
X0076314Y0012901D01*
X0075169Y0012901D02*
X0074718Y0012451D01*
X0073367Y0012451D01*
X0074268Y0012451D02*
X0075169Y0011550D01*
X0075169Y0012901D02*
X0075169Y0013802D01*
X0074718Y0014252D01*
X0073367Y0014252D01*
X0073367Y0011550D01*
X0069357Y0011550D02*
X0068456Y0011550D01*
X0068907Y0011550D02*
X0068907Y0014252D01*
X0069357Y0014252D02*
X0068456Y0014252D01*
X0067393Y0014252D02*
X0066492Y0014252D01*
X0066942Y0014252D02*
X0066942Y0011550D01*
X0066492Y0011550D02*
X0067393Y0011550D01*
X0062400Y0012000D02*
X0062400Y0013802D01*
X0061950Y0014252D01*
X0060599Y0014252D01*
X0060599Y0011550D01*
X0061950Y0011550D01*
X0062400Y0012000D01*
X0059454Y0012000D02*
X0059004Y0011550D01*
X0057652Y0011550D01*
X0057652Y0014252D01*
X0059004Y0014252D01*
X0059454Y0013802D01*
X0059454Y0013352D01*
X0059004Y0012901D01*
X0057652Y0012901D01*
X0059004Y0012901D02*
X0059454Y0012451D01*
X0059454Y0012000D01*
X0056507Y0012000D02*
X0056507Y0013802D01*
X0056057Y0014252D01*
X0055156Y0014252D01*
X0054706Y0013802D01*
X0054706Y0012000D01*
X0055156Y0011550D01*
X0056057Y0011550D01*
X0056507Y0012000D01*
X0136206Y0012451D02*
X0137557Y0012451D01*
X0138007Y0012901D01*
X0138007Y0013802D01*
X0137557Y0014252D01*
X0136206Y0014252D01*
X0136206Y0011550D01*
X0139152Y0011550D02*
X0139152Y0014252D01*
X0140954Y0014252D01*
X0142099Y0013802D02*
X0142099Y0012000D01*
X0142549Y0011550D01*
X0143450Y0011550D01*
X0143900Y0012000D01*
X0143900Y0013802D02*
X0143450Y0014252D01*
X0142549Y0014252D01*
X0142099Y0013802D01*
X0140053Y0012901D02*
X0139152Y0012901D01*
X0147992Y0012000D02*
X0148442Y0011550D01*
X0149343Y0011550D01*
X0149794Y0012000D01*
X0149794Y0014252D01*
X0150938Y0014252D02*
X0150938Y0012451D01*
X0151839Y0011550D01*
X0152740Y0012451D01*
X0152740Y0014252D01*
X0153885Y0013352D02*
X0154335Y0013352D01*
X0154335Y0011550D01*
X0153885Y0011550D02*
X0154786Y0011550D01*
X0155849Y0012000D02*
X0156300Y0011550D01*
X0157651Y0011550D01*
X0157651Y0011100D02*
X0157651Y0013352D01*
X0156300Y0013352D01*
X0155849Y0012901D01*
X0155849Y0012000D01*
X0156750Y0010649D02*
X0157201Y0010649D01*
X0157651Y0011100D01*
X0158796Y0012000D02*
X0159246Y0011550D01*
X0160147Y0011550D01*
X0160597Y0012000D01*
X0160597Y0012901D01*
X0160147Y0013352D01*
X0159246Y0013352D01*
X0158796Y0012901D01*
X0158796Y0012000D01*
X0154335Y0014252D02*
X0154335Y0014703D01*
X0147992Y0014252D02*
X0147992Y0012000D01*
X0210456Y0011800D02*
X0213458Y0011800D01*
X0214706Y0011550D02*
X0214706Y0014252D01*
X0216057Y0014252D01*
X0216507Y0013802D01*
X0216507Y0012901D01*
X0216057Y0012451D01*
X0214706Y0012451D01*
X0215607Y0012451D02*
X0216507Y0011550D01*
X0217652Y0012000D02*
X0218103Y0011550D01*
X0219004Y0011550D01*
X0219454Y0012000D01*
X0219454Y0012901D01*
X0219004Y0013352D01*
X0218103Y0013352D01*
X0217652Y0012901D01*
X0217652Y0012000D01*
X0220599Y0011550D02*
X0220599Y0014252D01*
X0220599Y0013352D02*
X0221950Y0013352D01*
X0222400Y0012901D01*
X0222400Y0012000D01*
X0221950Y0011550D01*
X0220599Y0011550D01*
X0223545Y0012000D02*
X0223545Y0012901D01*
X0223996Y0013352D01*
X0224897Y0013352D01*
X0225347Y0012901D01*
X0225347Y0012451D01*
X0223545Y0012451D01*
X0223545Y0012000D02*
X0223996Y0011550D01*
X0224897Y0011550D01*
X0226492Y0011550D02*
X0226492Y0013352D01*
X0226492Y0012451D02*
X0227393Y0013352D01*
X0227843Y0013352D01*
X0228947Y0013352D02*
X0229848Y0013352D01*
X0229398Y0013802D02*
X0229398Y0012000D01*
X0229848Y0011550D01*
X0230912Y0012000D02*
X0231362Y0011550D01*
X0232263Y0011550D01*
X0232713Y0012000D01*
X0232713Y0012901D01*
X0232263Y0013352D01*
X0231362Y0013352D01*
X0230912Y0012901D01*
X0230912Y0012000D01*
X0236805Y0011550D02*
X0236805Y0014252D01*
X0238156Y0014252D01*
X0238606Y0013802D01*
X0238606Y0012901D01*
X0238156Y0012451D01*
X0236805Y0012451D01*
X0237706Y0012451D02*
X0238606Y0011550D01*
X0239751Y0012000D02*
X0240202Y0011550D01*
X0241102Y0011550D01*
X0241553Y0012000D01*
X0241553Y0012901D01*
X0241102Y0013352D01*
X0240202Y0013352D01*
X0239751Y0012901D01*
X0239751Y0012000D01*
X0242698Y0012000D02*
X0242698Y0012901D01*
X0243148Y0013352D01*
X0244499Y0013352D01*
X0244499Y0014252D02*
X0244499Y0011550D01*
X0243148Y0011550D01*
X0242698Y0012000D01*
X0245644Y0011550D02*
X0245644Y0013352D01*
X0245644Y0012451D02*
X0246545Y0013352D01*
X0246995Y0013352D01*
X0248100Y0013352D02*
X0248550Y0013352D01*
X0248550Y0011550D01*
X0248100Y0011550D02*
X0249001Y0011550D01*
X0250064Y0012000D02*
X0250514Y0011550D01*
X0251866Y0011550D01*
X0251866Y0011100D02*
X0251866Y0013352D01*
X0250514Y0013352D01*
X0250064Y0012901D01*
X0250064Y0012000D01*
X0250965Y0010649D02*
X0251415Y0010649D01*
X0251866Y0011100D01*
X0253011Y0012000D02*
X0253461Y0011550D01*
X0254812Y0011550D01*
X0254812Y0013352D01*
X0255957Y0012901D02*
X0256408Y0013352D01*
X0257308Y0013352D01*
X0257759Y0012901D01*
X0257759Y0012451D01*
X0255957Y0012451D01*
X0255957Y0012901D02*
X0255957Y0012000D01*
X0256408Y0011550D01*
X0257308Y0011550D01*
X0258904Y0011550D02*
X0260705Y0011550D01*
X0258904Y0011550D02*
X0260705Y0013352D01*
X0258904Y0013352D01*
X0253011Y0013352D02*
X0253011Y0012000D01*
X0248550Y0014252D02*
X0248550Y0014703D01*
X0251207Y0029800D02*
X0250456Y0030551D01*
X0251207Y0029800D02*
X0252708Y0029800D01*
X0253458Y0030551D01*
X0253458Y0032052D01*
X0252708Y0032803D01*
X0251957Y0032803D01*
X0250456Y0032052D01*
X0250456Y0034304D01*
X0253458Y0034304D01*
X0211957Y0016304D02*
X0211957Y0011800D01*
X0210456Y0014803D02*
X0211957Y0016304D01*
X0157208Y0138300D02*
X0154206Y0138300D01*
X0155707Y0138300D02*
X0155707Y0142804D01*
X0154206Y0141303D01*
X0154957Y0148300D02*
X0156458Y0148300D01*
X0157208Y0149051D01*
X0157208Y0149801D01*
X0156458Y0150552D01*
X0154206Y0150552D01*
X0154206Y0149051D01*
X0154957Y0148300D01*
X0154206Y0150552D02*
X0155707Y0152053D01*
X0157208Y0152804D01*
X0180702Y0156551D02*
X0181453Y0155800D01*
X0180702Y0156551D02*
X0180702Y0158052D01*
X0181453Y0158803D01*
X0182203Y0158803D01*
X0185206Y0155800D01*
X0185206Y0158803D01*
X0186707Y0160404D02*
X0185206Y0161905D01*
X0185206Y0161155D01*
X0184455Y0161155D01*
X0184455Y0161905D01*
X0185206Y0161905D01*
X0184455Y0163473D02*
X0185206Y0164224D01*
X0185206Y0165725D01*
X0184455Y0166476D01*
X0182954Y0166476D01*
X0182203Y0165725D01*
X0182203Y0164974D01*
X0182954Y0163473D01*
X0180702Y0163473D01*
X0180702Y0166476D01*
X0182954Y0168077D02*
X0182954Y0171080D01*
X0185206Y0170329D02*
X0180702Y0170329D01*
X0182954Y0168077D01*
X0202206Y0169550D02*
X0205208Y0169550D01*
X0203707Y0169550D02*
X0203707Y0174054D01*
X0202206Y0172553D01*
X0202647Y0180279D02*
X0203548Y0180279D01*
X0203998Y0180730D01*
X0205143Y0180279D02*
X0205143Y0182081D01*
X0206044Y0182982D01*
X0206945Y0182081D01*
X0206945Y0180279D01*
X0208090Y0180279D02*
X0208090Y0182982D01*
X0209891Y0180279D01*
X0209891Y0182982D01*
X0211036Y0182982D02*
X0211036Y0180279D01*
X0211036Y0181631D02*
X0212838Y0181631D01*
X0212838Y0182982D02*
X0212838Y0180279D01*
X0216197Y0180730D02*
X0216647Y0180279D01*
X0217548Y0180279D01*
X0217998Y0180730D01*
X0219143Y0180279D02*
X0219143Y0182081D01*
X0220044Y0182982D01*
X0220945Y0182081D01*
X0220945Y0180279D01*
X0222090Y0180279D02*
X0222090Y0182982D01*
X0223891Y0180279D01*
X0223891Y0182982D01*
X0225036Y0182982D02*
X0225036Y0180279D01*
X0226838Y0180279D01*
X0230197Y0180730D02*
X0230647Y0180279D01*
X0231548Y0180279D01*
X0231998Y0180730D01*
X0231998Y0181631D01*
X0231097Y0181631D01*
X0230197Y0182531D02*
X0230197Y0180730D01*
X0230197Y0182531D02*
X0230647Y0182982D01*
X0231548Y0182982D01*
X0231998Y0182531D01*
X0233143Y0182982D02*
X0234945Y0180279D01*
X0234945Y0182982D01*
X0236090Y0182982D02*
X0237441Y0182982D01*
X0237891Y0182531D01*
X0237891Y0180730D01*
X0237441Y0180279D01*
X0236090Y0180279D01*
X0236090Y0182982D01*
X0233143Y0182982D02*
X0233143Y0180279D01*
X0242197Y0180279D02*
X0243998Y0180279D01*
X0243097Y0180279D02*
X0243097Y0182982D01*
X0242197Y0182081D01*
X0245143Y0182531D02*
X0245593Y0182982D01*
X0246494Y0182982D01*
X0246945Y0182531D01*
X0246945Y0182081D01*
X0245143Y0180279D01*
X0246945Y0180279D01*
X0248090Y0181180D02*
X0248990Y0180279D01*
X0249891Y0181180D01*
X0249891Y0182982D01*
X0248090Y0182982D02*
X0248090Y0181180D01*
X0249958Y0174054D02*
X0247706Y0171802D01*
X0250708Y0171802D01*
X0249958Y0169550D02*
X0249958Y0174054D01*
X0220945Y0181631D02*
X0219143Y0181631D01*
X0217998Y0182531D02*
X0217548Y0182982D01*
X0216647Y0182982D01*
X0216197Y0182531D01*
X0216197Y0180730D01*
X0206945Y0181631D02*
X0205143Y0181631D01*
X0203998Y0182531D02*
X0203548Y0182982D01*
X0202647Y0182982D01*
X0202197Y0182531D01*
X0202197Y0180730D01*
X0202647Y0180279D01*
X0099708Y0152053D02*
X0099708Y0149051D01*
X0098958Y0148300D01*
X0097457Y0148300D01*
X0096706Y0149051D01*
X0097457Y0150552D02*
X0099708Y0150552D01*
X0099708Y0152053D02*
X0098958Y0152804D01*
X0097457Y0152804D01*
X0096706Y0152053D01*
X0096706Y0151303D01*
X0097457Y0150552D01*
X0096706Y0142804D02*
X0096706Y0140552D01*
X0098207Y0141303D01*
X0098958Y0141303D01*
X0099708Y0140552D01*
X0099708Y0139051D01*
X0098958Y0138300D01*
X0097457Y0138300D01*
X0096706Y0139051D01*
X0096706Y0142804D02*
X0099708Y0142804D01*
X0061477Y0173041D02*
X0058774Y0173041D01*
X0058774Y0174392D01*
X0059225Y0174842D01*
X0060125Y0174842D01*
X0060576Y0174392D01*
X0060576Y0173041D01*
X0061477Y0175987D02*
X0058774Y0175987D01*
X0058774Y0177789D02*
X0061477Y0177789D01*
X0060576Y0176888D01*
X0061477Y0175987D01*
X0061477Y0178934D02*
X0058774Y0178934D01*
X0058774Y0180285D01*
X0059225Y0180735D01*
X0060125Y0180735D01*
X0060576Y0180285D01*
X0060576Y0178934D01*
X0060576Y0179834D02*
X0061477Y0180735D01*
X0054231Y0184730D02*
X0053780Y0184279D01*
X0052880Y0184279D01*
X0052429Y0184730D01*
X0052880Y0185631D02*
X0053780Y0185631D01*
X0054231Y0185180D01*
X0054231Y0184730D01*
X0052880Y0185631D02*
X0052429Y0186081D01*
X0052429Y0186531D01*
X0052880Y0186982D01*
X0053780Y0186982D01*
X0054231Y0186531D01*
X0051284Y0186982D02*
X0051284Y0184730D01*
X0050834Y0184279D01*
X0049933Y0184279D01*
X0049483Y0184730D01*
X0049483Y0186982D01*
X0048338Y0186982D02*
X0046536Y0186982D01*
X0047437Y0186982D02*
X0047437Y0184279D01*
X0045391Y0184279D02*
X0045391Y0186081D01*
X0044490Y0186982D01*
X0043590Y0186081D01*
X0043590Y0184279D01*
X0043590Y0185631D02*
X0045391Y0185631D01*
X0042445Y0186982D02*
X0040643Y0186982D01*
X0041544Y0186982D02*
X0041544Y0184279D01*
X0039498Y0184730D02*
X0039498Y0185180D01*
X0039048Y0185631D01*
X0038147Y0185631D01*
X0037697Y0186081D01*
X0037697Y0186531D01*
X0038147Y0186982D01*
X0039048Y0186982D01*
X0039498Y0186531D01*
X0039498Y0184730D02*
X0039048Y0184279D01*
X0038147Y0184279D01*
X0037697Y0184730D01*
D12*
X0065456Y0189550D02*
X0065456Y0175550D01*
X0065456Y0135550D01*
X0067956Y0133050D01*
X0086956Y0133050D01*
X0088956Y0135050D01*
X0088956Y0175550D01*
X0089956Y0175550D01*
X0162956Y0175550D01*
X0163956Y0175550D01*
X0187456Y0175550D01*
X0187456Y0135050D01*
X0185456Y0133050D01*
X0165956Y0133050D01*
X0163956Y0135050D01*
X0163956Y0175550D01*
X0162956Y0175550D02*
X0162956Y0172550D01*
X0089956Y0172550D01*
X0089956Y0175550D01*
X0088956Y0175550D02*
X0065456Y0175550D01*
X0065456Y0189550D02*
X0085456Y0189550D01*
X0167456Y0189550D01*
X0167456Y0187550D01*
X0166956Y0187550D01*
X0166956Y0178050D01*
X0166954Y0177952D01*
X0166948Y0177854D01*
X0166939Y0177756D01*
X0166925Y0177659D01*
X0166908Y0177562D01*
X0166887Y0177466D01*
X0166862Y0177371D01*
X0166834Y0177277D01*
X0166801Y0177185D01*
X0166766Y0177093D01*
X0166726Y0177003D01*
X0166684Y0176915D01*
X0166637Y0176828D01*
X0166588Y0176744D01*
X0166535Y0176661D01*
X0166479Y0176581D01*
X0166419Y0176502D01*
X0166357Y0176426D01*
X0166292Y0176353D01*
X0166224Y0176282D01*
X0166153Y0176214D01*
X0166080Y0176149D01*
X0166004Y0176087D01*
X0165925Y0176027D01*
X0165845Y0175971D01*
X0165762Y0175918D01*
X0165678Y0175869D01*
X0165591Y0175822D01*
X0165503Y0175780D01*
X0165413Y0175740D01*
X0165321Y0175705D01*
X0165229Y0175672D01*
X0165135Y0175644D01*
X0165040Y0175619D01*
X0164944Y0175598D01*
X0164847Y0175581D01*
X0164750Y0175567D01*
X0164652Y0175558D01*
X0164554Y0175552D01*
X0164456Y0175550D01*
X0167456Y0189550D02*
X0187456Y0189550D01*
X0187456Y0175550D01*
X0187456Y0189550D02*
X0187456Y0191550D01*
X0065456Y0191550D01*
X0065456Y0189550D01*
X0085456Y0189550D02*
X0085456Y0187550D01*
X0085956Y0187550D01*
X0085956Y0178050D01*
X0085958Y0177952D01*
X0085964Y0177854D01*
X0085973Y0177756D01*
X0085987Y0177659D01*
X0086004Y0177562D01*
X0086025Y0177466D01*
X0086050Y0177371D01*
X0086078Y0177277D01*
X0086111Y0177185D01*
X0086146Y0177093D01*
X0086186Y0177003D01*
X0086228Y0176915D01*
X0086275Y0176828D01*
X0086324Y0176744D01*
X0086377Y0176661D01*
X0086433Y0176581D01*
X0086493Y0176502D01*
X0086555Y0176426D01*
X0086620Y0176353D01*
X0086688Y0176282D01*
X0086759Y0176214D01*
X0086832Y0176149D01*
X0086908Y0176087D01*
X0086987Y0176027D01*
X0087067Y0175971D01*
X0087150Y0175918D01*
X0087234Y0175869D01*
X0087321Y0175822D01*
X0087409Y0175780D01*
X0087499Y0175740D01*
X0087591Y0175705D01*
X0087683Y0175672D01*
X0087777Y0175644D01*
X0087872Y0175619D01*
X0087968Y0175598D01*
X0088065Y0175581D01*
X0088162Y0175567D01*
X0088260Y0175558D01*
X0088358Y0175552D01*
X0088456Y0175550D01*
X0091956Y0191550D02*
X0092054Y0191552D01*
X0092152Y0191558D01*
X0092250Y0191567D01*
X0092347Y0191581D01*
X0092444Y0191598D01*
X0092540Y0191619D01*
X0092635Y0191644D01*
X0092729Y0191672D01*
X0092821Y0191705D01*
X0092913Y0191740D01*
X0093003Y0191780D01*
X0093091Y0191822D01*
X0093178Y0191869D01*
X0093262Y0191918D01*
X0093345Y0191971D01*
X0093425Y0192027D01*
X0093504Y0192087D01*
X0093580Y0192149D01*
X0093653Y0192214D01*
X0093724Y0192282D01*
X0093792Y0192353D01*
X0093857Y0192426D01*
X0093919Y0192502D01*
X0093979Y0192581D01*
X0094035Y0192661D01*
X0094088Y0192744D01*
X0094137Y0192828D01*
X0094184Y0192915D01*
X0094226Y0193003D01*
X0094266Y0193093D01*
X0094301Y0193185D01*
X0094334Y0193277D01*
X0094362Y0193371D01*
X0094387Y0193466D01*
X0094408Y0193562D01*
X0094425Y0193659D01*
X0094439Y0193756D01*
X0094448Y0193854D01*
X0094454Y0193952D01*
X0094456Y0194050D01*
X0094456Y0214050D01*
X0094458Y0214137D01*
X0094464Y0214224D01*
X0094473Y0214311D01*
X0094486Y0214397D01*
X0094503Y0214483D01*
X0094524Y0214568D01*
X0094549Y0214651D01*
X0094577Y0214734D01*
X0094608Y0214815D01*
X0094643Y0214895D01*
X0094682Y0214973D01*
X0094724Y0215050D01*
X0094769Y0215125D01*
X0094818Y0215197D01*
X0094869Y0215268D01*
X0094924Y0215336D01*
X0094981Y0215401D01*
X0095042Y0215464D01*
X0095105Y0215525D01*
X0095170Y0215582D01*
X0095238Y0215637D01*
X0095309Y0215688D01*
X0095381Y0215737D01*
X0095456Y0215782D01*
X0095533Y0215824D01*
X0095611Y0215863D01*
X0095691Y0215898D01*
X0095772Y0215929D01*
X0095855Y0215957D01*
X0095938Y0215982D01*
X0096023Y0216003D01*
X0096109Y0216020D01*
X0096195Y0216033D01*
X0096282Y0216042D01*
X0096369Y0216048D01*
X0096456Y0216050D01*
X0156456Y0216050D01*
X0156543Y0216048D01*
X0156630Y0216042D01*
X0156717Y0216033D01*
X0156803Y0216020D01*
X0156889Y0216003D01*
X0156974Y0215982D01*
X0157057Y0215957D01*
X0157140Y0215929D01*
X0157221Y0215898D01*
X0157301Y0215863D01*
X0157379Y0215824D01*
X0157456Y0215782D01*
X0157531Y0215737D01*
X0157603Y0215688D01*
X0157674Y0215637D01*
X0157742Y0215582D01*
X0157807Y0215525D01*
X0157870Y0215464D01*
X0157931Y0215401D01*
X0157988Y0215336D01*
X0158043Y0215268D01*
X0158094Y0215197D01*
X0158143Y0215125D01*
X0158188Y0215050D01*
X0158230Y0214973D01*
X0158269Y0214895D01*
X0158304Y0214815D01*
X0158335Y0214734D01*
X0158363Y0214651D01*
X0158388Y0214568D01*
X0158409Y0214483D01*
X0158426Y0214397D01*
X0158439Y0214311D01*
X0158448Y0214224D01*
X0158454Y0214137D01*
X0158456Y0214050D01*
X0158456Y0194050D01*
X0158458Y0193952D01*
X0158464Y0193854D01*
X0158473Y0193756D01*
X0158487Y0193659D01*
X0158504Y0193562D01*
X0158525Y0193466D01*
X0158550Y0193371D01*
X0158578Y0193277D01*
X0158611Y0193185D01*
X0158646Y0193093D01*
X0158686Y0193003D01*
X0158728Y0192915D01*
X0158775Y0192828D01*
X0158824Y0192744D01*
X0158877Y0192661D01*
X0158933Y0192581D01*
X0158993Y0192502D01*
X0159055Y0192426D01*
X0159120Y0192353D01*
X0159188Y0192282D01*
X0159259Y0192214D01*
X0159332Y0192149D01*
X0159408Y0192087D01*
X0159487Y0192027D01*
X0159567Y0191971D01*
X0159650Y0191918D01*
X0159734Y0191869D01*
X0159821Y0191822D01*
X0159909Y0191780D01*
X0159999Y0191740D01*
X0160091Y0191705D01*
X0160183Y0191672D01*
X0160277Y0191644D01*
X0160372Y0191619D01*
X0160468Y0191598D01*
X0160565Y0191581D01*
X0160662Y0191567D01*
X0160760Y0191558D01*
X0160858Y0191552D01*
X0160956Y0191550D01*
X0206456Y0174300D02*
X0206456Y0169300D01*
X0208956Y0166800D01*
X0213956Y0166800D01*
X0216456Y0169300D01*
X0218956Y0166800D01*
X0223956Y0166800D01*
X0226456Y0169300D01*
X0228956Y0166800D01*
X0233956Y0166800D01*
X0236456Y0169300D01*
X0238956Y0166800D01*
X0243956Y0166800D01*
X0246456Y0169300D01*
X0246456Y0174300D01*
X0243956Y0176800D01*
X0238956Y0176800D01*
X0236456Y0174300D01*
X0233956Y0176800D01*
X0228956Y0176800D01*
X0226456Y0174300D01*
X0223956Y0176800D01*
X0218956Y0176800D01*
X0216456Y0174300D01*
X0213956Y0176800D01*
X0208956Y0176800D01*
X0206456Y0174300D01*
X0169256Y0145550D02*
X0169258Y0145711D01*
X0169264Y0145871D01*
X0169274Y0146032D01*
X0169288Y0146192D01*
X0169306Y0146352D01*
X0169327Y0146511D01*
X0169353Y0146670D01*
X0169383Y0146828D01*
X0169416Y0146985D01*
X0169454Y0147142D01*
X0169495Y0147297D01*
X0169540Y0147451D01*
X0169589Y0147604D01*
X0169642Y0147756D01*
X0169698Y0147907D01*
X0169759Y0148056D01*
X0169822Y0148204D01*
X0169890Y0148350D01*
X0169961Y0148494D01*
X0170035Y0148636D01*
X0170113Y0148777D01*
X0170195Y0148915D01*
X0170280Y0149052D01*
X0170368Y0149186D01*
X0170460Y0149318D01*
X0170555Y0149448D01*
X0170653Y0149576D01*
X0170754Y0149701D01*
X0170858Y0149823D01*
X0170965Y0149943D01*
X0171075Y0150060D01*
X0171188Y0150175D01*
X0171304Y0150286D01*
X0171423Y0150395D01*
X0171544Y0150500D01*
X0171668Y0150603D01*
X0171794Y0150703D01*
X0171922Y0150799D01*
X0172053Y0150892D01*
X0172187Y0150982D01*
X0172322Y0151069D01*
X0172460Y0151152D01*
X0172599Y0151232D01*
X0172741Y0151308D01*
X0172884Y0151381D01*
X0173029Y0151450D01*
X0173176Y0151516D01*
X0173324Y0151578D01*
X0173474Y0151636D01*
X0173625Y0151691D01*
X0173778Y0151742D01*
X0173932Y0151789D01*
X0174087Y0151832D01*
X0174243Y0151871D01*
X0174399Y0151907D01*
X0174557Y0151938D01*
X0174715Y0151966D01*
X0174874Y0151990D01*
X0175034Y0152010D01*
X0175194Y0152026D01*
X0175354Y0152038D01*
X0175515Y0152046D01*
X0175676Y0152050D01*
X0175836Y0152050D01*
X0175997Y0152046D01*
X0176158Y0152038D01*
X0176318Y0152026D01*
X0176478Y0152010D01*
X0176638Y0151990D01*
X0176797Y0151966D01*
X0176955Y0151938D01*
X0177113Y0151907D01*
X0177269Y0151871D01*
X0177425Y0151832D01*
X0177580Y0151789D01*
X0177734Y0151742D01*
X0177887Y0151691D01*
X0178038Y0151636D01*
X0178188Y0151578D01*
X0178336Y0151516D01*
X0178483Y0151450D01*
X0178628Y0151381D01*
X0178771Y0151308D01*
X0178913Y0151232D01*
X0179052Y0151152D01*
X0179190Y0151069D01*
X0179325Y0150982D01*
X0179459Y0150892D01*
X0179590Y0150799D01*
X0179718Y0150703D01*
X0179844Y0150603D01*
X0179968Y0150500D01*
X0180089Y0150395D01*
X0180208Y0150286D01*
X0180324Y0150175D01*
X0180437Y0150060D01*
X0180547Y0149943D01*
X0180654Y0149823D01*
X0180758Y0149701D01*
X0180859Y0149576D01*
X0180957Y0149448D01*
X0181052Y0149318D01*
X0181144Y0149186D01*
X0181232Y0149052D01*
X0181317Y0148915D01*
X0181399Y0148777D01*
X0181477Y0148636D01*
X0181551Y0148494D01*
X0181622Y0148350D01*
X0181690Y0148204D01*
X0181753Y0148056D01*
X0181814Y0147907D01*
X0181870Y0147756D01*
X0181923Y0147604D01*
X0181972Y0147451D01*
X0182017Y0147297D01*
X0182058Y0147142D01*
X0182096Y0146985D01*
X0182129Y0146828D01*
X0182159Y0146670D01*
X0182185Y0146511D01*
X0182206Y0146352D01*
X0182224Y0146192D01*
X0182238Y0146032D01*
X0182248Y0145871D01*
X0182254Y0145711D01*
X0182256Y0145550D01*
X0182254Y0145389D01*
X0182248Y0145229D01*
X0182238Y0145068D01*
X0182224Y0144908D01*
X0182206Y0144748D01*
X0182185Y0144589D01*
X0182159Y0144430D01*
X0182129Y0144272D01*
X0182096Y0144115D01*
X0182058Y0143958D01*
X0182017Y0143803D01*
X0181972Y0143649D01*
X0181923Y0143496D01*
X0181870Y0143344D01*
X0181814Y0143193D01*
X0181753Y0143044D01*
X0181690Y0142896D01*
X0181622Y0142750D01*
X0181551Y0142606D01*
X0181477Y0142464D01*
X0181399Y0142323D01*
X0181317Y0142185D01*
X0181232Y0142048D01*
X0181144Y0141914D01*
X0181052Y0141782D01*
X0180957Y0141652D01*
X0180859Y0141524D01*
X0180758Y0141399D01*
X0180654Y0141277D01*
X0180547Y0141157D01*
X0180437Y0141040D01*
X0180324Y0140925D01*
X0180208Y0140814D01*
X0180089Y0140705D01*
X0179968Y0140600D01*
X0179844Y0140497D01*
X0179718Y0140397D01*
X0179590Y0140301D01*
X0179459Y0140208D01*
X0179325Y0140118D01*
X0179190Y0140031D01*
X0179052Y0139948D01*
X0178913Y0139868D01*
X0178771Y0139792D01*
X0178628Y0139719D01*
X0178483Y0139650D01*
X0178336Y0139584D01*
X0178188Y0139522D01*
X0178038Y0139464D01*
X0177887Y0139409D01*
X0177734Y0139358D01*
X0177580Y0139311D01*
X0177425Y0139268D01*
X0177269Y0139229D01*
X0177113Y0139193D01*
X0176955Y0139162D01*
X0176797Y0139134D01*
X0176638Y0139110D01*
X0176478Y0139090D01*
X0176318Y0139074D01*
X0176158Y0139062D01*
X0175997Y0139054D01*
X0175836Y0139050D01*
X0175676Y0139050D01*
X0175515Y0139054D01*
X0175354Y0139062D01*
X0175194Y0139074D01*
X0175034Y0139090D01*
X0174874Y0139110D01*
X0174715Y0139134D01*
X0174557Y0139162D01*
X0174399Y0139193D01*
X0174243Y0139229D01*
X0174087Y0139268D01*
X0173932Y0139311D01*
X0173778Y0139358D01*
X0173625Y0139409D01*
X0173474Y0139464D01*
X0173324Y0139522D01*
X0173176Y0139584D01*
X0173029Y0139650D01*
X0172884Y0139719D01*
X0172741Y0139792D01*
X0172599Y0139868D01*
X0172460Y0139948D01*
X0172322Y0140031D01*
X0172187Y0140118D01*
X0172053Y0140208D01*
X0171922Y0140301D01*
X0171794Y0140397D01*
X0171668Y0140497D01*
X0171544Y0140600D01*
X0171423Y0140705D01*
X0171304Y0140814D01*
X0171188Y0140925D01*
X0171075Y0141040D01*
X0170965Y0141157D01*
X0170858Y0141277D01*
X0170754Y0141399D01*
X0170653Y0141524D01*
X0170555Y0141652D01*
X0170460Y0141782D01*
X0170368Y0141914D01*
X0170280Y0142048D01*
X0170195Y0142185D01*
X0170113Y0142323D01*
X0170035Y0142464D01*
X0169961Y0142606D01*
X0169890Y0142750D01*
X0169822Y0142896D01*
X0169759Y0143044D01*
X0169698Y0143193D01*
X0169642Y0143344D01*
X0169589Y0143496D01*
X0169540Y0143649D01*
X0169495Y0143803D01*
X0169454Y0143958D01*
X0169416Y0144115D01*
X0169383Y0144272D01*
X0169353Y0144430D01*
X0169327Y0144589D01*
X0169306Y0144748D01*
X0169288Y0144908D01*
X0169274Y0145068D01*
X0169264Y0145229D01*
X0169258Y0145389D01*
X0169256Y0145550D01*
X0236256Y0126503D02*
X0236256Y0124801D01*
X0237390Y0125369D01*
X0237957Y0125369D01*
X0238525Y0124801D01*
X0238525Y0123667D01*
X0237957Y0123100D01*
X0236823Y0123100D01*
X0236256Y0123667D01*
X0239939Y0124234D02*
X0241073Y0123100D01*
X0242208Y0124234D01*
X0242208Y0126503D01*
X0239939Y0126503D02*
X0239939Y0124234D01*
X0238525Y0126503D02*
X0236256Y0126503D01*
X0198456Y0043300D02*
X0174456Y0043300D01*
X0174296Y0043298D01*
X0174137Y0043292D01*
X0173978Y0043282D01*
X0173819Y0043269D01*
X0173660Y0043251D01*
X0173502Y0043230D01*
X0173345Y0043204D01*
X0173188Y0043175D01*
X0173032Y0043142D01*
X0172877Y0043105D01*
X0172722Y0043065D01*
X0172569Y0043020D01*
X0172417Y0042972D01*
X0172266Y0042920D01*
X0172117Y0042864D01*
X0171969Y0042805D01*
X0171822Y0042742D01*
X0171677Y0042676D01*
X0171534Y0042606D01*
X0171392Y0042532D01*
X0171252Y0042456D01*
X0171114Y0042375D01*
X0170979Y0042292D01*
X0170845Y0042205D01*
X0170713Y0042114D01*
X0170584Y0042021D01*
X0170457Y0041924D01*
X0170332Y0041825D01*
X0170210Y0041722D01*
X0170091Y0041616D01*
X0169974Y0041508D01*
X0169860Y0041396D01*
X0169748Y0041282D01*
X0169640Y0041165D01*
X0169534Y0041046D01*
X0169431Y0040924D01*
X0169332Y0040799D01*
X0169235Y0040672D01*
X0169142Y0040543D01*
X0169051Y0040411D01*
X0168964Y0040277D01*
X0168881Y0040142D01*
X0168800Y0040004D01*
X0168724Y0039864D01*
X0168650Y0039722D01*
X0168580Y0039579D01*
X0168514Y0039434D01*
X0168451Y0039287D01*
X0168392Y0039139D01*
X0168336Y0038990D01*
X0168284Y0038839D01*
X0168236Y0038687D01*
X0168191Y0038534D01*
X0168151Y0038379D01*
X0168114Y0038224D01*
X0168081Y0038068D01*
X0168052Y0037911D01*
X0168026Y0037754D01*
X0168005Y0037596D01*
X0167987Y0037437D01*
X0167974Y0037278D01*
X0167964Y0037119D01*
X0167958Y0036960D01*
X0167956Y0036800D01*
X0167958Y0036640D01*
X0167964Y0036481D01*
X0167974Y0036322D01*
X0167987Y0036163D01*
X0168005Y0036004D01*
X0168026Y0035846D01*
X0168052Y0035689D01*
X0168081Y0035532D01*
X0168114Y0035376D01*
X0168151Y0035221D01*
X0168191Y0035066D01*
X0168236Y0034913D01*
X0168284Y0034761D01*
X0168336Y0034610D01*
X0168392Y0034461D01*
X0168451Y0034313D01*
X0168514Y0034166D01*
X0168580Y0034021D01*
X0168650Y0033878D01*
X0168724Y0033736D01*
X0168800Y0033596D01*
X0168881Y0033458D01*
X0168964Y0033323D01*
X0169051Y0033189D01*
X0169142Y0033057D01*
X0169235Y0032928D01*
X0169332Y0032801D01*
X0169431Y0032676D01*
X0169534Y0032554D01*
X0169640Y0032435D01*
X0169748Y0032318D01*
X0169860Y0032204D01*
X0169974Y0032092D01*
X0170091Y0031984D01*
X0170210Y0031878D01*
X0170332Y0031775D01*
X0170457Y0031676D01*
X0170584Y0031579D01*
X0170713Y0031486D01*
X0170845Y0031395D01*
X0170979Y0031308D01*
X0171114Y0031225D01*
X0171252Y0031144D01*
X0171392Y0031068D01*
X0171534Y0030994D01*
X0171677Y0030924D01*
X0171822Y0030858D01*
X0171969Y0030795D01*
X0172117Y0030736D01*
X0172266Y0030680D01*
X0172417Y0030628D01*
X0172569Y0030580D01*
X0172722Y0030535D01*
X0172877Y0030495D01*
X0173032Y0030458D01*
X0173188Y0030425D01*
X0173345Y0030396D01*
X0173502Y0030370D01*
X0173660Y0030349D01*
X0173819Y0030331D01*
X0173978Y0030318D01*
X0174137Y0030308D01*
X0174296Y0030302D01*
X0174456Y0030300D01*
X0198456Y0030300D01*
X0198616Y0030302D01*
X0198775Y0030308D01*
X0198934Y0030318D01*
X0199093Y0030331D01*
X0199252Y0030349D01*
X0199410Y0030370D01*
X0199567Y0030396D01*
X0199724Y0030425D01*
X0199880Y0030458D01*
X0200035Y0030495D01*
X0200190Y0030535D01*
X0200343Y0030580D01*
X0200495Y0030628D01*
X0200646Y0030680D01*
X0200795Y0030736D01*
X0200943Y0030795D01*
X0201090Y0030858D01*
X0201235Y0030924D01*
X0201378Y0030994D01*
X0201520Y0031068D01*
X0201660Y0031144D01*
X0201798Y0031225D01*
X0201933Y0031308D01*
X0202067Y0031395D01*
X0202199Y0031486D01*
X0202328Y0031579D01*
X0202455Y0031676D01*
X0202580Y0031775D01*
X0202702Y0031878D01*
X0202821Y0031984D01*
X0202938Y0032092D01*
X0203052Y0032204D01*
X0203164Y0032318D01*
X0203272Y0032435D01*
X0203378Y0032554D01*
X0203481Y0032676D01*
X0203580Y0032801D01*
X0203677Y0032928D01*
X0203770Y0033057D01*
X0203861Y0033189D01*
X0203948Y0033323D01*
X0204031Y0033458D01*
X0204112Y0033596D01*
X0204188Y0033736D01*
X0204262Y0033878D01*
X0204332Y0034021D01*
X0204398Y0034166D01*
X0204461Y0034313D01*
X0204520Y0034461D01*
X0204576Y0034610D01*
X0204628Y0034761D01*
X0204676Y0034913D01*
X0204721Y0035066D01*
X0204761Y0035221D01*
X0204798Y0035376D01*
X0204831Y0035532D01*
X0204860Y0035689D01*
X0204886Y0035846D01*
X0204907Y0036004D01*
X0204925Y0036163D01*
X0204938Y0036322D01*
X0204948Y0036481D01*
X0204954Y0036640D01*
X0204956Y0036800D01*
X0204954Y0036960D01*
X0204948Y0037119D01*
X0204938Y0037278D01*
X0204925Y0037437D01*
X0204907Y0037596D01*
X0204886Y0037754D01*
X0204860Y0037911D01*
X0204831Y0038068D01*
X0204798Y0038224D01*
X0204761Y0038379D01*
X0204721Y0038534D01*
X0204676Y0038687D01*
X0204628Y0038839D01*
X0204576Y0038990D01*
X0204520Y0039139D01*
X0204461Y0039287D01*
X0204398Y0039434D01*
X0204332Y0039579D01*
X0204262Y0039722D01*
X0204188Y0039864D01*
X0204112Y0040004D01*
X0204031Y0040142D01*
X0203948Y0040277D01*
X0203861Y0040411D01*
X0203770Y0040543D01*
X0203677Y0040672D01*
X0203580Y0040799D01*
X0203481Y0040924D01*
X0203378Y0041046D01*
X0203272Y0041165D01*
X0203164Y0041282D01*
X0203052Y0041396D01*
X0202938Y0041508D01*
X0202821Y0041616D01*
X0202702Y0041722D01*
X0202580Y0041825D01*
X0202455Y0041924D01*
X0202328Y0042021D01*
X0202199Y0042114D01*
X0202067Y0042205D01*
X0201933Y0042292D01*
X0201798Y0042375D01*
X0201660Y0042456D01*
X0201520Y0042532D01*
X0201378Y0042606D01*
X0201235Y0042676D01*
X0201090Y0042742D01*
X0200943Y0042805D01*
X0200795Y0042864D01*
X0200646Y0042920D01*
X0200495Y0042972D01*
X0200343Y0043020D01*
X0200190Y0043065D01*
X0200035Y0043105D01*
X0199880Y0043142D01*
X0199724Y0043175D01*
X0199567Y0043204D01*
X0199410Y0043230D01*
X0199252Y0043251D01*
X0199093Y0043269D01*
X0198934Y0043282D01*
X0198775Y0043292D01*
X0198616Y0043298D01*
X0198456Y0043300D01*
X0191456Y0036800D02*
X0188956Y0036800D01*
X0188956Y0039800D01*
X0187456Y0039800D02*
X0187456Y0033800D01*
X0185456Y0033800D01*
X0185456Y0039800D01*
X0187456Y0039800D01*
X0183956Y0039800D02*
X0183956Y0036800D01*
X0181456Y0036800D01*
X0183956Y0036800D02*
X0183956Y0033800D01*
X0188956Y0033800D02*
X0188956Y0036800D01*
X0207706Y0025550D02*
X0207706Y0020550D01*
X0210206Y0018050D01*
X0215206Y0018050D01*
X0217706Y0020550D01*
X0220206Y0018050D01*
X0225206Y0018050D01*
X0227706Y0020550D01*
X0230206Y0018050D01*
X0235206Y0018050D01*
X0237706Y0020550D01*
X0240206Y0018050D01*
X0245206Y0018050D01*
X0247706Y0020550D01*
X0250206Y0018050D01*
X0255206Y0018050D01*
X0257706Y0020550D01*
X0257706Y0025550D01*
X0255206Y0028050D01*
X0250206Y0028050D01*
X0247706Y0025550D01*
X0245206Y0028050D01*
X0240206Y0028050D01*
X0237706Y0025550D01*
X0235206Y0028050D01*
X0230206Y0028050D01*
X0227706Y0025550D01*
X0225206Y0028050D01*
X0220206Y0028050D01*
X0217706Y0025550D01*
X0215206Y0028050D01*
X0210206Y0028050D01*
X0207706Y0025550D01*
X0123456Y0030300D02*
X0099456Y0030300D01*
X0099296Y0030302D01*
X0099137Y0030308D01*
X0098978Y0030318D01*
X0098819Y0030331D01*
X0098660Y0030349D01*
X0098502Y0030370D01*
X0098345Y0030396D01*
X0098188Y0030425D01*
X0098032Y0030458D01*
X0097877Y0030495D01*
X0097722Y0030535D01*
X0097569Y0030580D01*
X0097417Y0030628D01*
X0097266Y0030680D01*
X0097117Y0030736D01*
X0096969Y0030795D01*
X0096822Y0030858D01*
X0096677Y0030924D01*
X0096534Y0030994D01*
X0096392Y0031068D01*
X0096252Y0031144D01*
X0096114Y0031225D01*
X0095979Y0031308D01*
X0095845Y0031395D01*
X0095713Y0031486D01*
X0095584Y0031579D01*
X0095457Y0031676D01*
X0095332Y0031775D01*
X0095210Y0031878D01*
X0095091Y0031984D01*
X0094974Y0032092D01*
X0094860Y0032204D01*
X0094748Y0032318D01*
X0094640Y0032435D01*
X0094534Y0032554D01*
X0094431Y0032676D01*
X0094332Y0032801D01*
X0094235Y0032928D01*
X0094142Y0033057D01*
X0094051Y0033189D01*
X0093964Y0033323D01*
X0093881Y0033458D01*
X0093800Y0033596D01*
X0093724Y0033736D01*
X0093650Y0033878D01*
X0093580Y0034021D01*
X0093514Y0034166D01*
X0093451Y0034313D01*
X0093392Y0034461D01*
X0093336Y0034610D01*
X0093284Y0034761D01*
X0093236Y0034913D01*
X0093191Y0035066D01*
X0093151Y0035221D01*
X0093114Y0035376D01*
X0093081Y0035532D01*
X0093052Y0035689D01*
X0093026Y0035846D01*
X0093005Y0036004D01*
X0092987Y0036163D01*
X0092974Y0036322D01*
X0092964Y0036481D01*
X0092958Y0036640D01*
X0092956Y0036800D01*
X0092958Y0036960D01*
X0092964Y0037119D01*
X0092974Y0037278D01*
X0092987Y0037437D01*
X0093005Y0037596D01*
X0093026Y0037754D01*
X0093052Y0037911D01*
X0093081Y0038068D01*
X0093114Y0038224D01*
X0093151Y0038379D01*
X0093191Y0038534D01*
X0093236Y0038687D01*
X0093284Y0038839D01*
X0093336Y0038990D01*
X0093392Y0039139D01*
X0093451Y0039287D01*
X0093514Y0039434D01*
X0093580Y0039579D01*
X0093650Y0039722D01*
X0093724Y0039864D01*
X0093800Y0040004D01*
X0093881Y0040142D01*
X0093964Y0040277D01*
X0094051Y0040411D01*
X0094142Y0040543D01*
X0094235Y0040672D01*
X0094332Y0040799D01*
X0094431Y0040924D01*
X0094534Y0041046D01*
X0094640Y0041165D01*
X0094748Y0041282D01*
X0094860Y0041396D01*
X0094974Y0041508D01*
X0095091Y0041616D01*
X0095210Y0041722D01*
X0095332Y0041825D01*
X0095457Y0041924D01*
X0095584Y0042021D01*
X0095713Y0042114D01*
X0095845Y0042205D01*
X0095979Y0042292D01*
X0096114Y0042375D01*
X0096252Y0042456D01*
X0096392Y0042532D01*
X0096534Y0042606D01*
X0096677Y0042676D01*
X0096822Y0042742D01*
X0096969Y0042805D01*
X0097117Y0042864D01*
X0097266Y0042920D01*
X0097417Y0042972D01*
X0097569Y0043020D01*
X0097722Y0043065D01*
X0097877Y0043105D01*
X0098032Y0043142D01*
X0098188Y0043175D01*
X0098345Y0043204D01*
X0098502Y0043230D01*
X0098660Y0043251D01*
X0098819Y0043269D01*
X0098978Y0043282D01*
X0099137Y0043292D01*
X0099296Y0043298D01*
X0099456Y0043300D01*
X0123456Y0043300D01*
X0123616Y0043298D01*
X0123775Y0043292D01*
X0123934Y0043282D01*
X0124093Y0043269D01*
X0124252Y0043251D01*
X0124410Y0043230D01*
X0124567Y0043204D01*
X0124724Y0043175D01*
X0124880Y0043142D01*
X0125035Y0043105D01*
X0125190Y0043065D01*
X0125343Y0043020D01*
X0125495Y0042972D01*
X0125646Y0042920D01*
X0125795Y0042864D01*
X0125943Y0042805D01*
X0126090Y0042742D01*
X0126235Y0042676D01*
X0126378Y0042606D01*
X0126520Y0042532D01*
X0126660Y0042456D01*
X0126798Y0042375D01*
X0126933Y0042292D01*
X0127067Y0042205D01*
X0127199Y0042114D01*
X0127328Y0042021D01*
X0127455Y0041924D01*
X0127580Y0041825D01*
X0127702Y0041722D01*
X0127821Y0041616D01*
X0127938Y0041508D01*
X0128052Y0041396D01*
X0128164Y0041282D01*
X0128272Y0041165D01*
X0128378Y0041046D01*
X0128481Y0040924D01*
X0128580Y0040799D01*
X0128677Y0040672D01*
X0128770Y0040543D01*
X0128861Y0040411D01*
X0128948Y0040277D01*
X0129031Y0040142D01*
X0129112Y0040004D01*
X0129188Y0039864D01*
X0129262Y0039722D01*
X0129332Y0039579D01*
X0129398Y0039434D01*
X0129461Y0039287D01*
X0129520Y0039139D01*
X0129576Y0038990D01*
X0129628Y0038839D01*
X0129676Y0038687D01*
X0129721Y0038534D01*
X0129761Y0038379D01*
X0129798Y0038224D01*
X0129831Y0038068D01*
X0129860Y0037911D01*
X0129886Y0037754D01*
X0129907Y0037596D01*
X0129925Y0037437D01*
X0129938Y0037278D01*
X0129948Y0037119D01*
X0129954Y0036960D01*
X0129956Y0036800D01*
X0129954Y0036640D01*
X0129948Y0036481D01*
X0129938Y0036322D01*
X0129925Y0036163D01*
X0129907Y0036004D01*
X0129886Y0035846D01*
X0129860Y0035689D01*
X0129831Y0035532D01*
X0129798Y0035376D01*
X0129761Y0035221D01*
X0129721Y0035066D01*
X0129676Y0034913D01*
X0129628Y0034761D01*
X0129576Y0034610D01*
X0129520Y0034461D01*
X0129461Y0034313D01*
X0129398Y0034166D01*
X0129332Y0034021D01*
X0129262Y0033878D01*
X0129188Y0033736D01*
X0129112Y0033596D01*
X0129031Y0033458D01*
X0128948Y0033323D01*
X0128861Y0033189D01*
X0128770Y0033057D01*
X0128677Y0032928D01*
X0128580Y0032801D01*
X0128481Y0032676D01*
X0128378Y0032554D01*
X0128272Y0032435D01*
X0128164Y0032318D01*
X0128052Y0032204D01*
X0127938Y0032092D01*
X0127821Y0031984D01*
X0127702Y0031878D01*
X0127580Y0031775D01*
X0127455Y0031676D01*
X0127328Y0031579D01*
X0127199Y0031486D01*
X0127067Y0031395D01*
X0126933Y0031308D01*
X0126798Y0031225D01*
X0126660Y0031144D01*
X0126520Y0031068D01*
X0126378Y0030994D01*
X0126235Y0030924D01*
X0126090Y0030858D01*
X0125943Y0030795D01*
X0125795Y0030736D01*
X0125646Y0030680D01*
X0125495Y0030628D01*
X0125343Y0030580D01*
X0125190Y0030535D01*
X0125035Y0030495D01*
X0124880Y0030458D01*
X0124724Y0030425D01*
X0124567Y0030396D01*
X0124410Y0030370D01*
X0124252Y0030349D01*
X0124093Y0030331D01*
X0123934Y0030318D01*
X0123775Y0030308D01*
X0123616Y0030302D01*
X0123456Y0030300D01*
X0116456Y0036800D02*
X0113956Y0036800D01*
X0113956Y0039800D01*
X0112456Y0039800D02*
X0112456Y0033800D01*
X0110456Y0033800D01*
X0110456Y0039800D01*
X0112456Y0039800D01*
X0113956Y0036800D02*
X0113956Y0033800D01*
X0108956Y0033800D02*
X0108956Y0036800D01*
X0106456Y0036800D01*
X0108956Y0036800D02*
X0108956Y0039800D01*
X0053156Y0085776D02*
X0052589Y0085209D01*
X0053156Y0085776D02*
X0053156Y0086910D01*
X0052589Y0087478D01*
X0052022Y0087478D01*
X0051454Y0086910D01*
X0051454Y0086343D01*
X0051454Y0086910D02*
X0050887Y0087478D01*
X0050320Y0087478D01*
X0049753Y0086910D01*
X0049753Y0085776D01*
X0050320Y0085209D01*
X0052589Y0088892D02*
X0052589Y0089459D01*
X0053156Y0089459D01*
X0053156Y0088892D01*
X0052589Y0088892D01*
X0052589Y0090734D02*
X0053156Y0091301D01*
X0053156Y0092435D01*
X0052589Y0093002D01*
X0052022Y0093002D01*
X0051454Y0092435D01*
X0051454Y0091868D01*
X0051454Y0092435D02*
X0050887Y0093002D01*
X0050320Y0093002D01*
X0049753Y0092435D01*
X0049753Y0091301D01*
X0050320Y0090734D01*
X0049753Y0094417D02*
X0052022Y0094417D01*
X0053156Y0095551D01*
X0052022Y0096685D01*
X0049753Y0096685D01*
X0070656Y0145550D02*
X0070658Y0145711D01*
X0070664Y0145871D01*
X0070674Y0146032D01*
X0070688Y0146192D01*
X0070706Y0146352D01*
X0070727Y0146511D01*
X0070753Y0146670D01*
X0070783Y0146828D01*
X0070816Y0146985D01*
X0070854Y0147142D01*
X0070895Y0147297D01*
X0070940Y0147451D01*
X0070989Y0147604D01*
X0071042Y0147756D01*
X0071098Y0147907D01*
X0071159Y0148056D01*
X0071222Y0148204D01*
X0071290Y0148350D01*
X0071361Y0148494D01*
X0071435Y0148636D01*
X0071513Y0148777D01*
X0071595Y0148915D01*
X0071680Y0149052D01*
X0071768Y0149186D01*
X0071860Y0149318D01*
X0071955Y0149448D01*
X0072053Y0149576D01*
X0072154Y0149701D01*
X0072258Y0149823D01*
X0072365Y0149943D01*
X0072475Y0150060D01*
X0072588Y0150175D01*
X0072704Y0150286D01*
X0072823Y0150395D01*
X0072944Y0150500D01*
X0073068Y0150603D01*
X0073194Y0150703D01*
X0073322Y0150799D01*
X0073453Y0150892D01*
X0073587Y0150982D01*
X0073722Y0151069D01*
X0073860Y0151152D01*
X0073999Y0151232D01*
X0074141Y0151308D01*
X0074284Y0151381D01*
X0074429Y0151450D01*
X0074576Y0151516D01*
X0074724Y0151578D01*
X0074874Y0151636D01*
X0075025Y0151691D01*
X0075178Y0151742D01*
X0075332Y0151789D01*
X0075487Y0151832D01*
X0075643Y0151871D01*
X0075799Y0151907D01*
X0075957Y0151938D01*
X0076115Y0151966D01*
X0076274Y0151990D01*
X0076434Y0152010D01*
X0076594Y0152026D01*
X0076754Y0152038D01*
X0076915Y0152046D01*
X0077076Y0152050D01*
X0077236Y0152050D01*
X0077397Y0152046D01*
X0077558Y0152038D01*
X0077718Y0152026D01*
X0077878Y0152010D01*
X0078038Y0151990D01*
X0078197Y0151966D01*
X0078355Y0151938D01*
X0078513Y0151907D01*
X0078669Y0151871D01*
X0078825Y0151832D01*
X0078980Y0151789D01*
X0079134Y0151742D01*
X0079287Y0151691D01*
X0079438Y0151636D01*
X0079588Y0151578D01*
X0079736Y0151516D01*
X0079883Y0151450D01*
X0080028Y0151381D01*
X0080171Y0151308D01*
X0080313Y0151232D01*
X0080452Y0151152D01*
X0080590Y0151069D01*
X0080725Y0150982D01*
X0080859Y0150892D01*
X0080990Y0150799D01*
X0081118Y0150703D01*
X0081244Y0150603D01*
X0081368Y0150500D01*
X0081489Y0150395D01*
X0081608Y0150286D01*
X0081724Y0150175D01*
X0081837Y0150060D01*
X0081947Y0149943D01*
X0082054Y0149823D01*
X0082158Y0149701D01*
X0082259Y0149576D01*
X0082357Y0149448D01*
X0082452Y0149318D01*
X0082544Y0149186D01*
X0082632Y0149052D01*
X0082717Y0148915D01*
X0082799Y0148777D01*
X0082877Y0148636D01*
X0082951Y0148494D01*
X0083022Y0148350D01*
X0083090Y0148204D01*
X0083153Y0148056D01*
X0083214Y0147907D01*
X0083270Y0147756D01*
X0083323Y0147604D01*
X0083372Y0147451D01*
X0083417Y0147297D01*
X0083458Y0147142D01*
X0083496Y0146985D01*
X0083529Y0146828D01*
X0083559Y0146670D01*
X0083585Y0146511D01*
X0083606Y0146352D01*
X0083624Y0146192D01*
X0083638Y0146032D01*
X0083648Y0145871D01*
X0083654Y0145711D01*
X0083656Y0145550D01*
X0083654Y0145389D01*
X0083648Y0145229D01*
X0083638Y0145068D01*
X0083624Y0144908D01*
X0083606Y0144748D01*
X0083585Y0144589D01*
X0083559Y0144430D01*
X0083529Y0144272D01*
X0083496Y0144115D01*
X0083458Y0143958D01*
X0083417Y0143803D01*
X0083372Y0143649D01*
X0083323Y0143496D01*
X0083270Y0143344D01*
X0083214Y0143193D01*
X0083153Y0143044D01*
X0083090Y0142896D01*
X0083022Y0142750D01*
X0082951Y0142606D01*
X0082877Y0142464D01*
X0082799Y0142323D01*
X0082717Y0142185D01*
X0082632Y0142048D01*
X0082544Y0141914D01*
X0082452Y0141782D01*
X0082357Y0141652D01*
X0082259Y0141524D01*
X0082158Y0141399D01*
X0082054Y0141277D01*
X0081947Y0141157D01*
X0081837Y0141040D01*
X0081724Y0140925D01*
X0081608Y0140814D01*
X0081489Y0140705D01*
X0081368Y0140600D01*
X0081244Y0140497D01*
X0081118Y0140397D01*
X0080990Y0140301D01*
X0080859Y0140208D01*
X0080725Y0140118D01*
X0080590Y0140031D01*
X0080452Y0139948D01*
X0080313Y0139868D01*
X0080171Y0139792D01*
X0080028Y0139719D01*
X0079883Y0139650D01*
X0079736Y0139584D01*
X0079588Y0139522D01*
X0079438Y0139464D01*
X0079287Y0139409D01*
X0079134Y0139358D01*
X0078980Y0139311D01*
X0078825Y0139268D01*
X0078669Y0139229D01*
X0078513Y0139193D01*
X0078355Y0139162D01*
X0078197Y0139134D01*
X0078038Y0139110D01*
X0077878Y0139090D01*
X0077718Y0139074D01*
X0077558Y0139062D01*
X0077397Y0139054D01*
X0077236Y0139050D01*
X0077076Y0139050D01*
X0076915Y0139054D01*
X0076754Y0139062D01*
X0076594Y0139074D01*
X0076434Y0139090D01*
X0076274Y0139110D01*
X0076115Y0139134D01*
X0075957Y0139162D01*
X0075799Y0139193D01*
X0075643Y0139229D01*
X0075487Y0139268D01*
X0075332Y0139311D01*
X0075178Y0139358D01*
X0075025Y0139409D01*
X0074874Y0139464D01*
X0074724Y0139522D01*
X0074576Y0139584D01*
X0074429Y0139650D01*
X0074284Y0139719D01*
X0074141Y0139792D01*
X0073999Y0139868D01*
X0073860Y0139948D01*
X0073722Y0140031D01*
X0073587Y0140118D01*
X0073453Y0140208D01*
X0073322Y0140301D01*
X0073194Y0140397D01*
X0073068Y0140497D01*
X0072944Y0140600D01*
X0072823Y0140705D01*
X0072704Y0140814D01*
X0072588Y0140925D01*
X0072475Y0141040D01*
X0072365Y0141157D01*
X0072258Y0141277D01*
X0072154Y0141399D01*
X0072053Y0141524D01*
X0071955Y0141652D01*
X0071860Y0141782D01*
X0071768Y0141914D01*
X0071680Y0142048D01*
X0071595Y0142185D01*
X0071513Y0142323D01*
X0071435Y0142464D01*
X0071361Y0142606D01*
X0071290Y0142750D01*
X0071222Y0142896D01*
X0071159Y0143044D01*
X0071098Y0143193D01*
X0071042Y0143344D01*
X0070989Y0143496D01*
X0070940Y0143649D01*
X0070895Y0143803D01*
X0070854Y0143958D01*
X0070816Y0144115D01*
X0070783Y0144272D01*
X0070753Y0144430D01*
X0070727Y0144589D01*
X0070706Y0144748D01*
X0070688Y0144908D01*
X0070674Y0145068D01*
X0070664Y0145229D01*
X0070658Y0145389D01*
X0070656Y0145550D01*
D13*
X0034222Y0018326D02*
X0001200Y0018326D01*
X0001200Y0065274D01*
X0034222Y0065274D01*
X0048444Y0065274D02*
X0065718Y0065274D01*
X0065718Y0018326D01*
X0048444Y0018326D01*
X0069152Y0023535D02*
X0070687Y0025069D01*
X0073756Y0025069D01*
X0071454Y0025069D02*
X0071454Y0022000D01*
X0070687Y0022000D02*
X0073756Y0022000D01*
X0070687Y0022000D02*
X0069152Y0023535D01*
X0069152Y0037000D02*
X0069152Y0039302D01*
X0069919Y0040069D01*
X0070687Y0040069D01*
X0071454Y0039302D01*
X0071454Y0037000D01*
X0073756Y0037000D02*
X0073756Y0039302D01*
X0072989Y0040069D01*
X0072221Y0040069D01*
X0071454Y0039302D01*
X0073756Y0037000D02*
X0069152Y0037000D01*
X0182556Y0110550D02*
X0200356Y0110550D01*
X0200356Y0125550D02*
X0182556Y0125550D01*
X0190687Y0134500D02*
X0189152Y0136035D01*
X0190687Y0137569D01*
X0193756Y0137569D01*
X0191454Y0137569D02*
X0191454Y0134500D01*
X0190687Y0134500D02*
X0193756Y0134500D01*
X0193756Y0149500D02*
X0189152Y0149500D01*
X0189152Y0151802D01*
X0189919Y0152569D01*
X0190687Y0152569D01*
X0191454Y0151802D01*
X0191454Y0149500D01*
X0193756Y0149500D02*
X0193756Y0151802D01*
X0192989Y0152569D01*
X0192221Y0152569D01*
X0191454Y0151802D01*
X0212823Y0033502D02*
X0212823Y0031500D01*
X0212156Y0031500D02*
X0213490Y0031500D01*
X0212156Y0032834D02*
X0212823Y0033502D01*
D14*
X0206535Y0061564D02*
X0206535Y0082036D01*
X0166377Y0082036D01*
X0166377Y0061564D02*
X0206535Y0061564D01*
X0231956Y0111398D02*
X0231956Y0137202D01*
X0245956Y0137202D01*
X0245956Y0111398D01*
X0231956Y0111398D01*
X0194724Y0118050D02*
X0190696Y0121987D01*
X0190696Y0114113D01*
X0194724Y0118050D01*
X0126417Y0082036D02*
X0096495Y0082036D01*
X0096495Y0061564D02*
X0126417Y0061564D01*
X0126417Y0082036D01*
X0058456Y0078898D02*
X0044456Y0078898D01*
X0044456Y0104702D01*
X0058456Y0104702D01*
X0058456Y0078898D01*
D15*
X0098021Y0071800D03*
X0167903Y0071800D03*
D16*
X0136456Y0112292D03*
X0126456Y0112292D03*
X0116456Y0112292D03*
X0106456Y0112292D03*
X0053956Y0176308D03*
X0043956Y0176308D03*
D17*
X0099456Y0045300D02*
X0123456Y0045300D01*
X0123663Y0045297D01*
X0123870Y0045290D01*
X0124076Y0045277D01*
X0124283Y0045260D01*
X0124488Y0045237D01*
X0124694Y0045209D01*
X0124898Y0045177D01*
X0125102Y0045139D01*
X0125304Y0045097D01*
X0125506Y0045049D01*
X0125706Y0044997D01*
X0125905Y0044940D01*
X0126102Y0044878D01*
X0126298Y0044811D01*
X0126492Y0044739D01*
X0126685Y0044663D01*
X0126875Y0044582D01*
X0127064Y0044496D01*
X0127250Y0044406D01*
X0127434Y0044312D01*
X0127616Y0044212D01*
X0127795Y0044109D01*
X0127972Y0044001D01*
X0128146Y0043889D01*
X0128317Y0043773D01*
X0128486Y0043652D01*
X0128651Y0043528D01*
X0128813Y0043399D01*
X0128972Y0043267D01*
X0129128Y0043131D01*
X0129281Y0042991D01*
X0129430Y0042847D01*
X0129575Y0042700D01*
X0129717Y0042549D01*
X0129855Y0042395D01*
X0129990Y0042237D01*
X0130120Y0042077D01*
X0130246Y0041913D01*
X0130369Y0041746D01*
X0130487Y0041576D01*
X0130602Y0041403D01*
X0130712Y0041228D01*
X0130817Y0041050D01*
X0130919Y0040869D01*
X0131015Y0040687D01*
X0131108Y0040501D01*
X0131196Y0040314D01*
X0131279Y0040124D01*
X0131358Y0039933D01*
X0131432Y0039740D01*
X0131501Y0039544D01*
X0131565Y0039348D01*
X0131625Y0039150D01*
X0131680Y0038950D01*
X0131730Y0038749D01*
X0131775Y0038547D01*
X0131815Y0038344D01*
X0131850Y0038140D01*
X0131880Y0037935D01*
X0131905Y0037730D01*
X0131925Y0037524D01*
X0131940Y0037317D01*
X0131950Y0037110D01*
X0131955Y0036903D01*
X0131955Y0036697D01*
X0131950Y0036490D01*
X0131940Y0036283D01*
X0131925Y0036076D01*
X0131905Y0035870D01*
X0131880Y0035665D01*
X0131850Y0035460D01*
X0131815Y0035256D01*
X0131775Y0035053D01*
X0131730Y0034851D01*
X0131680Y0034650D01*
X0131625Y0034450D01*
X0131565Y0034252D01*
X0131501Y0034056D01*
X0131432Y0033860D01*
X0131358Y0033667D01*
X0131279Y0033476D01*
X0131196Y0033286D01*
X0131108Y0033099D01*
X0131015Y0032913D01*
X0130919Y0032731D01*
X0130817Y0032550D01*
X0130712Y0032372D01*
X0130602Y0032197D01*
X0130487Y0032024D01*
X0130369Y0031854D01*
X0130246Y0031687D01*
X0130120Y0031523D01*
X0129990Y0031363D01*
X0129855Y0031205D01*
X0129717Y0031051D01*
X0129575Y0030900D01*
X0129430Y0030753D01*
X0129281Y0030609D01*
X0129128Y0030469D01*
X0128972Y0030333D01*
X0128813Y0030201D01*
X0128651Y0030072D01*
X0128486Y0029948D01*
X0128317Y0029827D01*
X0128146Y0029711D01*
X0127972Y0029599D01*
X0127795Y0029491D01*
X0127616Y0029388D01*
X0127434Y0029288D01*
X0127250Y0029194D01*
X0127064Y0029104D01*
X0126875Y0029018D01*
X0126685Y0028937D01*
X0126492Y0028861D01*
X0126298Y0028789D01*
X0126102Y0028722D01*
X0125905Y0028660D01*
X0125706Y0028603D01*
X0125506Y0028551D01*
X0125304Y0028503D01*
X0125102Y0028461D01*
X0124898Y0028423D01*
X0124694Y0028391D01*
X0124488Y0028363D01*
X0124283Y0028340D01*
X0124076Y0028323D01*
X0123870Y0028310D01*
X0123663Y0028303D01*
X0123456Y0028300D01*
X0099456Y0028300D01*
X0099249Y0028303D01*
X0099042Y0028310D01*
X0098836Y0028323D01*
X0098629Y0028340D01*
X0098424Y0028363D01*
X0098218Y0028391D01*
X0098014Y0028423D01*
X0097810Y0028461D01*
X0097608Y0028503D01*
X0097406Y0028551D01*
X0097206Y0028603D01*
X0097007Y0028660D01*
X0096810Y0028722D01*
X0096614Y0028789D01*
X0096420Y0028861D01*
X0096227Y0028937D01*
X0096037Y0029018D01*
X0095848Y0029104D01*
X0095662Y0029194D01*
X0095478Y0029288D01*
X0095296Y0029388D01*
X0095117Y0029491D01*
X0094940Y0029599D01*
X0094766Y0029711D01*
X0094595Y0029827D01*
X0094426Y0029948D01*
X0094261Y0030072D01*
X0094099Y0030201D01*
X0093940Y0030333D01*
X0093784Y0030469D01*
X0093631Y0030609D01*
X0093482Y0030753D01*
X0093337Y0030900D01*
X0093195Y0031051D01*
X0093057Y0031205D01*
X0092922Y0031363D01*
X0092792Y0031523D01*
X0092666Y0031687D01*
X0092543Y0031854D01*
X0092425Y0032024D01*
X0092310Y0032197D01*
X0092200Y0032372D01*
X0092095Y0032550D01*
X0091993Y0032731D01*
X0091897Y0032913D01*
X0091804Y0033099D01*
X0091716Y0033286D01*
X0091633Y0033476D01*
X0091554Y0033667D01*
X0091480Y0033860D01*
X0091411Y0034056D01*
X0091347Y0034252D01*
X0091287Y0034450D01*
X0091232Y0034650D01*
X0091182Y0034851D01*
X0091137Y0035053D01*
X0091097Y0035256D01*
X0091062Y0035460D01*
X0091032Y0035665D01*
X0091007Y0035870D01*
X0090987Y0036076D01*
X0090972Y0036283D01*
X0090962Y0036490D01*
X0090957Y0036697D01*
X0090957Y0036903D01*
X0090962Y0037110D01*
X0090972Y0037317D01*
X0090987Y0037524D01*
X0091007Y0037730D01*
X0091032Y0037935D01*
X0091062Y0038140D01*
X0091097Y0038344D01*
X0091137Y0038547D01*
X0091182Y0038749D01*
X0091232Y0038950D01*
X0091287Y0039150D01*
X0091347Y0039348D01*
X0091411Y0039544D01*
X0091480Y0039740D01*
X0091554Y0039933D01*
X0091633Y0040124D01*
X0091716Y0040314D01*
X0091804Y0040501D01*
X0091897Y0040687D01*
X0091993Y0040869D01*
X0092095Y0041050D01*
X0092200Y0041228D01*
X0092310Y0041403D01*
X0092425Y0041576D01*
X0092543Y0041746D01*
X0092666Y0041913D01*
X0092792Y0042077D01*
X0092922Y0042237D01*
X0093057Y0042395D01*
X0093195Y0042549D01*
X0093337Y0042700D01*
X0093482Y0042847D01*
X0093631Y0042991D01*
X0093784Y0043131D01*
X0093940Y0043267D01*
X0094099Y0043399D01*
X0094261Y0043528D01*
X0094426Y0043652D01*
X0094595Y0043773D01*
X0094766Y0043889D01*
X0094940Y0044001D01*
X0095117Y0044109D01*
X0095296Y0044212D01*
X0095478Y0044312D01*
X0095662Y0044406D01*
X0095848Y0044496D01*
X0096037Y0044582D01*
X0096227Y0044663D01*
X0096420Y0044739D01*
X0096614Y0044811D01*
X0096810Y0044878D01*
X0097007Y0044940D01*
X0097206Y0044997D01*
X0097406Y0045049D01*
X0097608Y0045097D01*
X0097810Y0045139D01*
X0098014Y0045177D01*
X0098218Y0045209D01*
X0098424Y0045237D01*
X0098629Y0045260D01*
X0098836Y0045277D01*
X0099042Y0045290D01*
X0099249Y0045297D01*
X0099456Y0045300D01*
X0174456Y0045300D02*
X0198456Y0045300D01*
X0198663Y0045297D01*
X0198870Y0045290D01*
X0199076Y0045277D01*
X0199283Y0045260D01*
X0199488Y0045237D01*
X0199694Y0045209D01*
X0199898Y0045177D01*
X0200102Y0045139D01*
X0200304Y0045097D01*
X0200506Y0045049D01*
X0200706Y0044997D01*
X0200905Y0044940D01*
X0201102Y0044878D01*
X0201298Y0044811D01*
X0201492Y0044739D01*
X0201685Y0044663D01*
X0201875Y0044582D01*
X0202064Y0044496D01*
X0202250Y0044406D01*
X0202434Y0044312D01*
X0202616Y0044212D01*
X0202795Y0044109D01*
X0202972Y0044001D01*
X0203146Y0043889D01*
X0203317Y0043773D01*
X0203486Y0043652D01*
X0203651Y0043528D01*
X0203813Y0043399D01*
X0203972Y0043267D01*
X0204128Y0043131D01*
X0204281Y0042991D01*
X0204430Y0042847D01*
X0204575Y0042700D01*
X0204717Y0042549D01*
X0204855Y0042395D01*
X0204990Y0042237D01*
X0205120Y0042077D01*
X0205246Y0041913D01*
X0205369Y0041746D01*
X0205487Y0041576D01*
X0205602Y0041403D01*
X0205712Y0041228D01*
X0205817Y0041050D01*
X0205919Y0040869D01*
X0206015Y0040687D01*
X0206108Y0040501D01*
X0206196Y0040314D01*
X0206279Y0040124D01*
X0206358Y0039933D01*
X0206432Y0039740D01*
X0206501Y0039544D01*
X0206565Y0039348D01*
X0206625Y0039150D01*
X0206680Y0038950D01*
X0206730Y0038749D01*
X0206775Y0038547D01*
X0206815Y0038344D01*
X0206850Y0038140D01*
X0206880Y0037935D01*
X0206905Y0037730D01*
X0206925Y0037524D01*
X0206940Y0037317D01*
X0206950Y0037110D01*
X0206955Y0036903D01*
X0206955Y0036697D01*
X0206950Y0036490D01*
X0206940Y0036283D01*
X0206925Y0036076D01*
X0206905Y0035870D01*
X0206880Y0035665D01*
X0206850Y0035460D01*
X0206815Y0035256D01*
X0206775Y0035053D01*
X0206730Y0034851D01*
X0206680Y0034650D01*
X0206625Y0034450D01*
X0206565Y0034252D01*
X0206501Y0034056D01*
X0206432Y0033860D01*
X0206358Y0033667D01*
X0206279Y0033476D01*
X0206196Y0033286D01*
X0206108Y0033099D01*
X0206015Y0032913D01*
X0205919Y0032731D01*
X0205817Y0032550D01*
X0205712Y0032372D01*
X0205602Y0032197D01*
X0205487Y0032024D01*
X0205369Y0031854D01*
X0205246Y0031687D01*
X0205120Y0031523D01*
X0204990Y0031363D01*
X0204855Y0031205D01*
X0204717Y0031051D01*
X0204575Y0030900D01*
X0204430Y0030753D01*
X0204281Y0030609D01*
X0204128Y0030469D01*
X0203972Y0030333D01*
X0203813Y0030201D01*
X0203651Y0030072D01*
X0203486Y0029948D01*
X0203317Y0029827D01*
X0203146Y0029711D01*
X0202972Y0029599D01*
X0202795Y0029491D01*
X0202616Y0029388D01*
X0202434Y0029288D01*
X0202250Y0029194D01*
X0202064Y0029104D01*
X0201875Y0029018D01*
X0201685Y0028937D01*
X0201492Y0028861D01*
X0201298Y0028789D01*
X0201102Y0028722D01*
X0200905Y0028660D01*
X0200706Y0028603D01*
X0200506Y0028551D01*
X0200304Y0028503D01*
X0200102Y0028461D01*
X0199898Y0028423D01*
X0199694Y0028391D01*
X0199488Y0028363D01*
X0199283Y0028340D01*
X0199076Y0028323D01*
X0198870Y0028310D01*
X0198663Y0028303D01*
X0198456Y0028300D01*
X0174456Y0028300D01*
X0174249Y0028303D01*
X0174042Y0028310D01*
X0173836Y0028323D01*
X0173629Y0028340D01*
X0173424Y0028363D01*
X0173218Y0028391D01*
X0173014Y0028423D01*
X0172810Y0028461D01*
X0172608Y0028503D01*
X0172406Y0028551D01*
X0172206Y0028603D01*
X0172007Y0028660D01*
X0171810Y0028722D01*
X0171614Y0028789D01*
X0171420Y0028861D01*
X0171227Y0028937D01*
X0171037Y0029018D01*
X0170848Y0029104D01*
X0170662Y0029194D01*
X0170478Y0029288D01*
X0170296Y0029388D01*
X0170117Y0029491D01*
X0169940Y0029599D01*
X0169766Y0029711D01*
X0169595Y0029827D01*
X0169426Y0029948D01*
X0169261Y0030072D01*
X0169099Y0030201D01*
X0168940Y0030333D01*
X0168784Y0030469D01*
X0168631Y0030609D01*
X0168482Y0030753D01*
X0168337Y0030900D01*
X0168195Y0031051D01*
X0168057Y0031205D01*
X0167922Y0031363D01*
X0167792Y0031523D01*
X0167666Y0031687D01*
X0167543Y0031854D01*
X0167425Y0032024D01*
X0167310Y0032197D01*
X0167200Y0032372D01*
X0167095Y0032550D01*
X0166993Y0032731D01*
X0166897Y0032913D01*
X0166804Y0033099D01*
X0166716Y0033286D01*
X0166633Y0033476D01*
X0166554Y0033667D01*
X0166480Y0033860D01*
X0166411Y0034056D01*
X0166347Y0034252D01*
X0166287Y0034450D01*
X0166232Y0034650D01*
X0166182Y0034851D01*
X0166137Y0035053D01*
X0166097Y0035256D01*
X0166062Y0035460D01*
X0166032Y0035665D01*
X0166007Y0035870D01*
X0165987Y0036076D01*
X0165972Y0036283D01*
X0165962Y0036490D01*
X0165957Y0036697D01*
X0165957Y0036903D01*
X0165962Y0037110D01*
X0165972Y0037317D01*
X0165987Y0037524D01*
X0166007Y0037730D01*
X0166032Y0037935D01*
X0166062Y0038140D01*
X0166097Y0038344D01*
X0166137Y0038547D01*
X0166182Y0038749D01*
X0166232Y0038950D01*
X0166287Y0039150D01*
X0166347Y0039348D01*
X0166411Y0039544D01*
X0166480Y0039740D01*
X0166554Y0039933D01*
X0166633Y0040124D01*
X0166716Y0040314D01*
X0166804Y0040501D01*
X0166897Y0040687D01*
X0166993Y0040869D01*
X0167095Y0041050D01*
X0167200Y0041228D01*
X0167310Y0041403D01*
X0167425Y0041576D01*
X0167543Y0041746D01*
X0167666Y0041913D01*
X0167792Y0042077D01*
X0167922Y0042237D01*
X0168057Y0042395D01*
X0168195Y0042549D01*
X0168337Y0042700D01*
X0168482Y0042847D01*
X0168631Y0042991D01*
X0168784Y0043131D01*
X0168940Y0043267D01*
X0169099Y0043399D01*
X0169261Y0043528D01*
X0169426Y0043652D01*
X0169595Y0043773D01*
X0169766Y0043889D01*
X0169940Y0044001D01*
X0170117Y0044109D01*
X0170296Y0044212D01*
X0170478Y0044312D01*
X0170662Y0044406D01*
X0170848Y0044496D01*
X0171037Y0044582D01*
X0171227Y0044663D01*
X0171420Y0044739D01*
X0171614Y0044811D01*
X0171810Y0044878D01*
X0172007Y0044940D01*
X0172206Y0044997D01*
X0172406Y0045049D01*
X0172608Y0045097D01*
X0172810Y0045139D01*
X0173014Y0045177D01*
X0173218Y0045209D01*
X0173424Y0045237D01*
X0173629Y0045260D01*
X0173836Y0045277D01*
X0174042Y0045290D01*
X0174249Y0045297D01*
X0174456Y0045300D01*
D18*
X0126456Y0174050D03*
D19*
X0126456Y0190550D03*
D20*
X0126356Y0158300D03*
X0115656Y0158300D03*
X0104856Y0158300D03*
X0137256Y0158300D03*
X0148056Y0158300D03*
D21*
X0142656Y0163300D03*
X0131756Y0163300D03*
X0121056Y0163300D03*
X0110256Y0163300D03*
M02*
