G75*
%MOIN*%
%OFA0B0*%
%FSLAX25Y25*%
%IPPOS*%
%LPD*%
%AMOC8*
5,1,8,0,0,1.08239X$1,22.5*
%
%ADD10C,0.06000*%
%ADD11C,0.05200*%
%ADD12C,0.13055*%
%ADD13C,0.05622*%
%ADD14OC8,0.06000*%
%ADD15C,0.20000*%
%ADD16C,0.01600*%
%ADD17C,0.03200*%
%ADD18C,0.03962*%
%ADD19C,0.02400*%
D10*
X0212706Y0020050D02*
X0212706Y0026050D01*
X0222706Y0026050D02*
X0222706Y0020050D01*
X0232706Y0020050D02*
X0232706Y0026050D01*
X0242706Y0026050D02*
X0242706Y0020050D01*
X0252706Y0020050D02*
X0252706Y0026050D01*
X0241456Y0168800D02*
X0241456Y0174800D01*
X0231456Y0174800D02*
X0231456Y0168800D01*
X0221456Y0168800D02*
X0221456Y0174800D01*
X0211456Y0174800D02*
X0211456Y0168800D01*
D11*
X0195956Y0036800D03*
X0176956Y0036800D03*
X0120956Y0036800D03*
X0101956Y0036800D03*
D12*
X0041456Y0018099D03*
X0041456Y0065501D03*
D13*
X0052125Y0046721D03*
X0059999Y0046721D03*
X0059999Y0036879D03*
X0052125Y0036879D03*
D14*
X0104856Y0140550D03*
X0115656Y0140550D03*
X0126456Y0140550D03*
X0137256Y0140550D03*
X0148056Y0140550D03*
X0142656Y0150550D03*
X0131856Y0150550D03*
X0121056Y0150550D03*
X0110256Y0150550D03*
D15*
X0077156Y0145550D03*
X0175756Y0145550D03*
D16*
X0031256Y0186961D02*
X0031256Y0011600D01*
X0036246Y0011600D01*
X0035953Y0011825D01*
X0035181Y0012597D01*
X0034517Y0013463D01*
X0033971Y0014408D01*
X0033553Y0015417D01*
X0033271Y0016471D01*
X0033162Y0017299D01*
X0040656Y0017299D01*
X0040656Y0018899D01*
X0033162Y0018899D01*
X0033271Y0019727D01*
X0033553Y0020782D01*
X0033971Y0021790D01*
X0034517Y0022736D01*
X0035181Y0023602D01*
X0035953Y0024374D01*
X0036819Y0025038D01*
X0037765Y0025584D01*
X0038773Y0026002D01*
X0039828Y0026284D01*
X0040656Y0026393D01*
X0040656Y0018899D01*
X0042256Y0018899D01*
X0049750Y0018899D01*
X0049641Y0019727D01*
X0049358Y0020782D01*
X0048941Y0021790D01*
X0048395Y0022736D01*
X0047730Y0023602D01*
X0046958Y0024374D01*
X0046092Y0025038D01*
X0045147Y0025584D01*
X0044138Y0026002D01*
X0043084Y0026284D01*
X0042256Y0026393D01*
X0042256Y0018899D01*
X0042256Y0017299D01*
X0049750Y0017299D01*
X0049641Y0016471D01*
X0049358Y0015417D01*
X0048941Y0014408D01*
X0048395Y0013463D01*
X0047730Y0012597D01*
X0046958Y0011825D01*
X0046665Y0011600D01*
X0260357Y0011600D01*
X0260357Y0186961D01*
X0031256Y0186961D01*
X0031256Y0185833D02*
X0121095Y0185833D01*
X0121596Y0186335D02*
X0103596Y0168335D01*
X0102921Y0167659D01*
X0102556Y0166777D01*
X0102556Y0144755D01*
X0100256Y0142455D01*
X0100256Y0138645D01*
X0102951Y0135950D01*
X0106761Y0135950D01*
X0109456Y0138645D01*
X0109456Y0142455D01*
X0107356Y0144555D01*
X0107356Y0146945D01*
X0108351Y0145950D01*
X0112161Y0145950D01*
X0114856Y0148645D01*
X0114856Y0152455D01*
X0112161Y0155150D01*
X0108351Y0155150D01*
X0107356Y0154155D01*
X0107356Y0165306D01*
X0123950Y0181900D01*
X0163162Y0181900D01*
X0155671Y0174409D01*
X0155306Y0173527D01*
X0155306Y0139044D01*
X0150462Y0134200D01*
X0132450Y0134200D01*
X0129531Y0137119D01*
X0131056Y0138645D01*
X0131056Y0142455D01*
X0128361Y0145150D01*
X0124551Y0145150D01*
X0121856Y0142455D01*
X0121856Y0138645D01*
X0124056Y0136445D01*
X0124056Y0136323D01*
X0124421Y0135441D01*
X0129012Y0130850D01*
X0088399Y0130850D01*
X0087370Y0130424D01*
X0086582Y0129636D01*
X0086546Y0129600D01*
X0083720Y0129600D01*
X0083484Y0129836D01*
X0082168Y0130381D01*
X0080744Y0130381D01*
X0079427Y0129836D01*
X0078420Y0128829D01*
X0077875Y0127512D01*
X0077875Y0126088D01*
X0078420Y0124771D01*
X0079427Y0123764D01*
X0080744Y0123219D01*
X0082168Y0123219D01*
X0083484Y0123764D01*
X0083720Y0124000D01*
X0088263Y0124000D01*
X0089292Y0124426D01*
X0090116Y0125250D01*
X0113841Y0125250D01*
X0113420Y0124829D01*
X0112875Y0123512D01*
X0112875Y0122088D01*
X0113420Y0120771D01*
X0114056Y0120136D01*
X0114056Y0107573D01*
X0114421Y0106691D01*
X0117875Y0103237D01*
X0117875Y0102338D01*
X0118420Y0101021D01*
X0119427Y0100014D01*
X0120744Y0099469D01*
X0122168Y0099469D01*
X0123484Y0100014D01*
X0124492Y0101021D01*
X0125037Y0102338D01*
X0125037Y0103762D01*
X0124492Y0105079D01*
X0123484Y0106086D01*
X0122168Y0106631D01*
X0121269Y0106631D01*
X0118856Y0109044D01*
X0118856Y0120136D01*
X0119492Y0120771D01*
X0120037Y0122088D01*
X0120037Y0123512D01*
X0119492Y0124829D01*
X0119070Y0125250D01*
X0123841Y0125250D01*
X0123420Y0124829D01*
X0122875Y0123512D01*
X0122875Y0122088D01*
X0123420Y0120771D01*
X0124427Y0119764D01*
X0125572Y0119290D01*
X0129421Y0115441D01*
X0130096Y0114765D01*
X0130979Y0114400D01*
X0140462Y0114400D01*
X0154421Y0100441D01*
X0155096Y0099765D01*
X0155979Y0099400D01*
X0173991Y0099400D01*
X0173791Y0099200D01*
X0112450Y0099200D01*
X0090991Y0120659D01*
X0090315Y0121335D01*
X0089433Y0121700D01*
X0048700Y0121700D01*
X0047537Y0122863D01*
X0047537Y0123762D01*
X0046992Y0125079D01*
X0045984Y0126086D01*
X0044668Y0126631D01*
X0043244Y0126631D01*
X0041927Y0126086D01*
X0040920Y0125079D01*
X0040375Y0123762D01*
X0040375Y0122338D01*
X0040920Y0121021D01*
X0041927Y0120014D01*
X0043244Y0119469D01*
X0044143Y0119469D01*
X0046346Y0117265D01*
X0047229Y0116900D01*
X0087962Y0116900D01*
X0108231Y0096631D01*
X0106994Y0096631D01*
X0105677Y0096086D01*
X0105041Y0095450D01*
X0104950Y0095450D01*
X0098491Y0101909D01*
X0097815Y0102585D01*
X0096933Y0102950D01*
X0083479Y0102950D01*
X0083312Y0102881D01*
X0081994Y0102881D01*
X0080677Y0102336D01*
X0079670Y0101329D01*
X0079125Y0100012D01*
X0079125Y0098588D01*
X0079670Y0097271D01*
X0080677Y0096264D01*
X0081994Y0095719D01*
X0083418Y0095719D01*
X0084734Y0096264D01*
X0085742Y0097271D01*
X0086106Y0098150D01*
X0095462Y0098150D01*
X0102596Y0091015D01*
X0103479Y0090650D01*
X0105041Y0090650D01*
X0105677Y0090014D01*
X0106994Y0089469D01*
X0108418Y0089469D01*
X0109734Y0090014D01*
X0110742Y0091021D01*
X0111287Y0092338D01*
X0111287Y0093762D01*
X0111023Y0094400D01*
X0143991Y0094400D01*
X0143791Y0094200D01*
X0123479Y0094200D01*
X0122596Y0093835D01*
X0111346Y0082585D01*
X0110671Y0081909D01*
X0110306Y0081027D01*
X0110306Y0051323D01*
X0110375Y0051156D01*
X0110375Y0049838D01*
X0110920Y0048521D01*
X0111927Y0047514D01*
X0113244Y0046969D01*
X0114668Y0046969D01*
X0115984Y0047514D01*
X0116992Y0048521D01*
X0117537Y0049838D01*
X0117537Y0051262D01*
X0116992Y0052579D01*
X0115984Y0053586D01*
X0115106Y0053950D01*
X0115106Y0064756D01*
X0116096Y0063765D01*
X0116979Y0063400D01*
X0119933Y0063400D01*
X0120815Y0063765D01*
X0121491Y0064441D01*
X0122450Y0065400D01*
X0132912Y0065400D01*
X0129143Y0061631D01*
X0128244Y0061631D01*
X0126927Y0061086D01*
X0125920Y0060079D01*
X0125375Y0058762D01*
X0125375Y0057338D01*
X0125920Y0056021D01*
X0126927Y0055014D01*
X0128244Y0054469D01*
X0129060Y0054469D01*
X0128791Y0054200D01*
X0125979Y0054200D01*
X0125096Y0053835D01*
X0115462Y0044200D01*
X0091287Y0044200D01*
X0091287Y0045012D01*
X0090742Y0046329D01*
X0089734Y0047336D01*
X0088418Y0047881D01*
X0086994Y0047881D01*
X0085677Y0047336D01*
X0084670Y0046329D01*
X0084125Y0045012D01*
X0084125Y0043588D01*
X0084670Y0042271D01*
X0085677Y0041264D01*
X0086994Y0040719D01*
X0087893Y0040719D01*
X0088846Y0039765D01*
X0089729Y0039400D01*
X0098616Y0039400D01*
X0098395Y0039179D01*
X0097756Y0037635D01*
X0097756Y0035965D01*
X0098395Y0034421D01*
X0099577Y0033239D01*
X0101120Y0032600D01*
X0102791Y0032600D01*
X0104335Y0033239D01*
X0105516Y0034421D01*
X0106156Y0035965D01*
X0106156Y0037635D01*
X0105516Y0039179D01*
X0105296Y0039400D01*
X0116933Y0039400D01*
X0117815Y0039765D01*
X0118491Y0040441D01*
X0127450Y0049400D01*
X0128791Y0049400D01*
X0129427Y0048764D01*
X0130744Y0048219D01*
X0132168Y0048219D01*
X0133484Y0048764D01*
X0134120Y0049400D01*
X0146933Y0049400D01*
X0147815Y0049765D01*
X0160019Y0061969D01*
X0160918Y0061969D01*
X0162234Y0062514D01*
X0162870Y0063150D01*
X0197541Y0063150D01*
X0198177Y0062514D01*
X0199494Y0061969D01*
X0200918Y0061969D01*
X0202234Y0062514D01*
X0203242Y0063521D01*
X0203787Y0064838D01*
X0203787Y0066262D01*
X0203242Y0067579D01*
X0202234Y0068586D01*
X0200918Y0069131D01*
X0199494Y0069131D01*
X0198177Y0068586D01*
X0197541Y0067950D01*
X0162870Y0067950D01*
X0162234Y0068586D01*
X0160918Y0069131D01*
X0159494Y0069131D01*
X0158177Y0068586D01*
X0157170Y0067579D01*
X0156625Y0066262D01*
X0156625Y0065363D01*
X0145462Y0054200D01*
X0134120Y0054200D01*
X0133484Y0054836D01*
X0132168Y0055381D01*
X0131351Y0055381D01*
X0131992Y0056021D01*
X0132537Y0057338D01*
X0132537Y0058237D01*
X0143700Y0069400D01*
X0178791Y0069400D01*
X0179427Y0068764D01*
X0180744Y0068219D01*
X0182168Y0068219D01*
X0183484Y0068764D01*
X0184492Y0069771D01*
X0185037Y0071088D01*
X0185037Y0072512D01*
X0184492Y0073829D01*
X0183484Y0074836D01*
X0182168Y0075381D01*
X0180744Y0075381D01*
X0179427Y0074836D01*
X0178791Y0074200D01*
X0142250Y0074200D01*
X0146871Y0078821D01*
X0146927Y0078764D01*
X0148244Y0078219D01*
X0149668Y0078219D01*
X0150984Y0078764D01*
X0151992Y0079771D01*
X0152537Y0081088D01*
X0152537Y0082512D01*
X0151992Y0083829D01*
X0150984Y0084836D01*
X0149668Y0085381D01*
X0148244Y0085381D01*
X0146927Y0084836D01*
X0146291Y0084200D01*
X0145979Y0084200D01*
X0145096Y0083835D01*
X0138856Y0077594D01*
X0138856Y0079136D01*
X0139492Y0079771D01*
X0140037Y0081088D01*
X0140037Y0082512D01*
X0139492Y0083829D01*
X0138484Y0084836D01*
X0137168Y0085381D01*
X0135744Y0085381D01*
X0134427Y0084836D01*
X0133420Y0083829D01*
X0132875Y0082512D01*
X0132875Y0081088D01*
X0133420Y0079771D01*
X0134056Y0079136D01*
X0134056Y0077794D01*
X0130462Y0074200D01*
X0122870Y0074200D01*
X0122234Y0074836D01*
X0120918Y0075381D01*
X0119494Y0075381D01*
X0119387Y0075337D01*
X0120269Y0076219D01*
X0121168Y0076219D01*
X0122484Y0076764D01*
X0123492Y0077771D01*
X0124037Y0079088D01*
X0124037Y0080512D01*
X0123492Y0081829D01*
X0122484Y0082836D01*
X0121168Y0083381D01*
X0119744Y0083381D01*
X0118427Y0082836D01*
X0117420Y0081829D01*
X0116875Y0080512D01*
X0116875Y0079613D01*
X0115106Y0077844D01*
X0115106Y0079556D01*
X0124950Y0089400D01*
X0143791Y0089400D01*
X0144427Y0088764D01*
X0145744Y0088219D01*
X0147168Y0088219D01*
X0148484Y0088764D01*
X0149492Y0089771D01*
X0150037Y0091088D01*
X0150037Y0092512D01*
X0149492Y0093829D01*
X0148920Y0094400D01*
X0173791Y0094400D01*
X0174427Y0093764D01*
X0175744Y0093219D01*
X0177168Y0093219D01*
X0178484Y0093764D01*
X0179492Y0094771D01*
X0180037Y0096088D01*
X0180037Y0097512D01*
X0179492Y0098829D01*
X0178920Y0099400D01*
X0183183Y0099400D01*
X0184065Y0099765D01*
X0187519Y0103219D01*
X0188418Y0103219D01*
X0189734Y0103764D01*
X0190742Y0104771D01*
X0191287Y0106088D01*
X0191287Y0107512D01*
X0190742Y0108829D01*
X0189734Y0109836D01*
X0188418Y0110381D01*
X0186994Y0110381D01*
X0185677Y0109836D01*
X0184670Y0108829D01*
X0184125Y0107512D01*
X0184125Y0106613D01*
X0181712Y0104200D01*
X0163920Y0104200D01*
X0164492Y0104771D01*
X0165037Y0106088D01*
X0165037Y0107512D01*
X0164492Y0108829D01*
X0163484Y0109836D01*
X0162168Y0110381D01*
X0161269Y0110381D01*
X0146815Y0124835D01*
X0145933Y0125200D01*
X0139120Y0125200D01*
X0139070Y0125250D01*
X0185862Y0125250D01*
X0201837Y0109275D01*
X0201625Y0108762D01*
X0201625Y0107338D01*
X0202170Y0106021D01*
X0203177Y0105014D01*
X0204494Y0104469D01*
X0205918Y0104469D01*
X0207234Y0105014D01*
X0208242Y0106021D01*
X0208787Y0107338D01*
X0208787Y0108762D01*
X0208242Y0110079D01*
X0207234Y0111086D01*
X0206517Y0111383D01*
X0190758Y0127142D01*
X0193042Y0129426D01*
X0193830Y0130214D01*
X0194256Y0131243D01*
X0194256Y0151036D01*
X0194492Y0151271D01*
X0195037Y0152588D01*
X0195037Y0154012D01*
X0194492Y0155329D01*
X0193484Y0156336D01*
X0192168Y0156881D01*
X0190744Y0156881D01*
X0189427Y0156336D01*
X0188420Y0155329D01*
X0187875Y0154012D01*
X0187875Y0152588D01*
X0188420Y0151271D01*
X0188656Y0151036D01*
X0188656Y0132960D01*
X0186546Y0130850D01*
X0153900Y0130850D01*
X0159741Y0136691D01*
X0160106Y0137573D01*
X0160106Y0172056D01*
X0166450Y0178400D01*
X0206462Y0178400D01*
X0207527Y0177335D01*
X0206856Y0175715D01*
X0206856Y0167885D01*
X0207556Y0166194D01*
X0208850Y0164900D01*
X0209056Y0164815D01*
X0209056Y0081764D01*
X0208484Y0082336D01*
X0207168Y0082881D01*
X0205744Y0082881D01*
X0204427Y0082336D01*
X0204291Y0082200D01*
X0176979Y0082200D01*
X0176096Y0081835D01*
X0175643Y0081381D01*
X0174744Y0081381D01*
X0173427Y0080836D01*
X0172420Y0079829D01*
X0171875Y0078512D01*
X0171875Y0077088D01*
X0172420Y0075771D01*
X0173427Y0074764D01*
X0174744Y0074219D01*
X0176168Y0074219D01*
X0177484Y0074764D01*
X0178492Y0075771D01*
X0179037Y0077088D01*
X0179037Y0077400D01*
X0188332Y0077400D01*
X0188177Y0077336D01*
X0187170Y0076329D01*
X0186625Y0075012D01*
X0186625Y0073588D01*
X0187170Y0072271D01*
X0188177Y0071264D01*
X0189494Y0070719D01*
X0190918Y0070719D01*
X0192234Y0071264D01*
X0192870Y0071900D01*
X0202962Y0071900D01*
X0209481Y0065381D01*
X0209244Y0065381D01*
X0207927Y0064836D01*
X0206920Y0063829D01*
X0206375Y0062512D01*
X0206375Y0061088D01*
X0206920Y0059771D01*
X0207927Y0058764D01*
X0209244Y0058219D01*
X0210143Y0058219D01*
X0239256Y0029106D01*
X0238806Y0028656D01*
X0238106Y0026965D01*
X0238106Y0019135D01*
X0238806Y0017444D01*
X0240100Y0016150D01*
X0241791Y0015450D01*
X0243621Y0015450D01*
X0245312Y0016150D01*
X0246606Y0017444D01*
X0247306Y0019135D01*
X0247306Y0026965D01*
X0246606Y0028656D01*
X0245312Y0029950D01*
X0244852Y0030140D01*
X0244741Y0030409D01*
X0244338Y0030812D01*
X0244729Y0030650D01*
X0249212Y0030650D01*
X0250006Y0029856D01*
X0248806Y0028656D01*
X0248106Y0026965D01*
X0248106Y0019135D01*
X0248806Y0017444D01*
X0250100Y0016150D01*
X0251791Y0015450D01*
X0253621Y0015450D01*
X0255312Y0016150D01*
X0256606Y0017444D01*
X0257306Y0019135D01*
X0257306Y0026965D01*
X0256606Y0028656D01*
X0255312Y0029950D01*
X0255106Y0030035D01*
X0255106Y0031027D01*
X0254741Y0031909D01*
X0254065Y0032585D01*
X0251565Y0035085D01*
X0250683Y0035450D01*
X0246200Y0035450D01*
X0212177Y0069473D01*
X0213484Y0070014D01*
X0214492Y0071021D01*
X0215037Y0072338D01*
X0215037Y0073762D01*
X0214492Y0075079D01*
X0213856Y0075714D01*
X0213856Y0164815D01*
X0214062Y0164900D01*
X0215356Y0166194D01*
X0216056Y0167885D01*
X0216056Y0175715D01*
X0215356Y0177406D01*
X0214062Y0178700D01*
X0212371Y0179400D01*
X0212250Y0179400D01*
X0209750Y0181900D01*
X0212962Y0181900D01*
X0217527Y0177335D01*
X0216856Y0175715D01*
X0216856Y0167885D01*
X0217556Y0166194D01*
X0218850Y0164900D01*
X0219056Y0164815D01*
X0219056Y0101323D01*
X0219421Y0100441D01*
X0227875Y0091987D01*
X0227875Y0091088D01*
X0228420Y0089771D01*
X0229427Y0088764D01*
X0230744Y0088219D01*
X0232168Y0088219D01*
X0233484Y0088764D01*
X0234492Y0089771D01*
X0235037Y0091088D01*
X0235037Y0092512D01*
X0234492Y0093829D01*
X0233484Y0094836D01*
X0232168Y0095381D01*
X0231269Y0095381D01*
X0223856Y0102794D01*
X0223856Y0164815D01*
X0224062Y0164900D01*
X0225356Y0166194D01*
X0226056Y0167885D01*
X0226056Y0175715D01*
X0225356Y0177406D01*
X0224062Y0178700D01*
X0222371Y0179400D01*
X0222250Y0179400D01*
X0215315Y0186335D01*
X0214433Y0186700D01*
X0122479Y0186700D01*
X0121596Y0186335D01*
X0122956Y0184300D02*
X0104956Y0166300D01*
X0104956Y0140650D01*
X0104856Y0140550D01*
X0108689Y0137878D02*
X0111823Y0137878D01*
X0111056Y0138645D02*
X0113751Y0135950D01*
X0117561Y0135950D01*
X0120256Y0138645D01*
X0120256Y0142455D01*
X0117561Y0145150D01*
X0113751Y0145150D01*
X0111056Y0142455D01*
X0111056Y0138645D01*
X0111056Y0139476D02*
X0109456Y0139476D01*
X0109456Y0141075D02*
X0111056Y0141075D01*
X0111274Y0142673D02*
X0109238Y0142673D01*
X0107639Y0144272D02*
X0112873Y0144272D01*
X0113680Y0147469D02*
X0117632Y0147469D01*
X0116456Y0148645D02*
X0119151Y0145950D01*
X0122961Y0145950D01*
X0125656Y0148645D01*
X0125656Y0152455D01*
X0122961Y0155150D01*
X0119151Y0155150D01*
X0116456Y0152455D01*
X0116456Y0148645D01*
X0116456Y0149068D02*
X0114856Y0149068D01*
X0114856Y0150666D02*
X0116456Y0150666D01*
X0116456Y0152265D02*
X0114856Y0152265D01*
X0113448Y0153863D02*
X0117864Y0153863D01*
X0124248Y0153863D02*
X0128664Y0153863D01*
X0129951Y0155150D02*
X0127256Y0152455D01*
X0127256Y0148645D01*
X0129951Y0145950D01*
X0133761Y0145950D01*
X0136456Y0148645D01*
X0136456Y0152455D01*
X0133761Y0155150D01*
X0129951Y0155150D01*
X0127256Y0152265D02*
X0125656Y0152265D01*
X0125656Y0150666D02*
X0127256Y0150666D01*
X0127256Y0149068D02*
X0125656Y0149068D01*
X0124480Y0147469D02*
X0128432Y0147469D01*
X0129239Y0144272D02*
X0134190Y0144272D01*
X0135268Y0145350D02*
X0132456Y0142538D01*
X0132456Y0140750D01*
X0137056Y0140750D01*
X0137056Y0145350D01*
X0135268Y0145350D01*
X0137056Y0144272D02*
X0137456Y0144272D01*
X0137456Y0145350D02*
X0139244Y0145350D01*
X0142056Y0142538D01*
X0142056Y0140750D01*
X0137456Y0140750D01*
X0137456Y0140350D01*
X0142056Y0140350D01*
X0142056Y0138562D01*
X0139244Y0135750D01*
X0137456Y0135750D01*
X0137456Y0140350D01*
X0137056Y0140350D01*
X0137056Y0135750D01*
X0135268Y0135750D01*
X0132456Y0138562D01*
X0132456Y0140350D01*
X0137056Y0140350D01*
X0137056Y0140750D01*
X0137456Y0140750D01*
X0137456Y0145350D01*
X0137456Y0142673D02*
X0137056Y0142673D01*
X0137056Y0141075D02*
X0137456Y0141075D01*
X0137456Y0139476D02*
X0137056Y0139476D01*
X0137056Y0137878D02*
X0137456Y0137878D01*
X0137456Y0136279D02*
X0137056Y0136279D01*
X0134738Y0136279D02*
X0130371Y0136279D01*
X0130289Y0137878D02*
X0133140Y0137878D01*
X0132456Y0139476D02*
X0131056Y0139476D01*
X0131056Y0141075D02*
X0132456Y0141075D01*
X0132591Y0142673D02*
X0130838Y0142673D01*
X0126456Y0140550D02*
X0126456Y0136800D01*
X0131456Y0131800D01*
X0151456Y0131800D01*
X0157706Y0138050D01*
X0157706Y0173050D01*
X0165456Y0180800D01*
X0207456Y0180800D01*
X0211456Y0176800D01*
X0211456Y0171800D01*
X0211456Y0073050D01*
X0214034Y0075536D02*
X0260357Y0075536D01*
X0260357Y0077134D02*
X0213856Y0077134D01*
X0213856Y0078733D02*
X0260357Y0078733D01*
X0260357Y0080332D02*
X0213856Y0080332D01*
X0213856Y0081930D02*
X0260357Y0081930D01*
X0260357Y0083529D02*
X0240745Y0083529D01*
X0240742Y0083521D02*
X0241287Y0084838D01*
X0241287Y0086262D01*
X0240742Y0087579D01*
X0239734Y0088586D01*
X0238418Y0089131D01*
X0236994Y0089131D01*
X0235677Y0088586D01*
X0235041Y0087950D01*
X0225370Y0087950D01*
X0224734Y0088586D01*
X0223418Y0089131D01*
X0221994Y0089131D01*
X0220677Y0088586D01*
X0219670Y0087579D01*
X0219125Y0086262D01*
X0219125Y0084838D01*
X0219670Y0083521D01*
X0220677Y0082514D01*
X0221994Y0081969D01*
X0223418Y0081969D01*
X0224734Y0082514D01*
X0225370Y0083150D01*
X0235041Y0083150D01*
X0235677Y0082514D01*
X0236994Y0081969D01*
X0238418Y0081969D01*
X0239734Y0082514D01*
X0240742Y0083521D01*
X0241287Y0085127D02*
X0260357Y0085127D01*
X0260357Y0086726D02*
X0241095Y0086726D01*
X0239996Y0088324D02*
X0260357Y0088324D01*
X0260357Y0089923D02*
X0234554Y0089923D01*
X0235037Y0091521D02*
X0260357Y0091521D01*
X0260357Y0093120D02*
X0234785Y0093120D01*
X0233602Y0094718D02*
X0260357Y0094718D01*
X0260357Y0096317D02*
X0230333Y0096317D01*
X0228735Y0097915D02*
X0260357Y0097915D01*
X0260357Y0099514D02*
X0227136Y0099514D01*
X0225538Y0101112D02*
X0260357Y0101112D01*
X0260357Y0102711D02*
X0223939Y0102711D01*
X0223856Y0104309D02*
X0260357Y0104309D01*
X0260357Y0105908D02*
X0223856Y0105908D01*
X0223856Y0107506D02*
X0249185Y0107506D01*
X0249427Y0107264D02*
X0250744Y0106719D01*
X0252168Y0106719D01*
X0253484Y0107264D01*
X0254492Y0108271D01*
X0255037Y0109588D01*
X0255037Y0111012D01*
X0254656Y0111932D01*
X0254656Y0155168D01*
X0255037Y0156088D01*
X0255037Y0157512D01*
X0254492Y0158829D01*
X0253484Y0159836D01*
X0252168Y0160381D01*
X0250744Y0160381D01*
X0249427Y0159836D01*
X0248420Y0158829D01*
X0247875Y0157512D01*
X0247875Y0156088D01*
X0248256Y0155168D01*
X0248256Y0111932D01*
X0247875Y0111012D01*
X0247875Y0109588D01*
X0248420Y0108271D01*
X0249427Y0107264D01*
X0248075Y0109105D02*
X0223856Y0109105D01*
X0223856Y0110703D02*
X0247875Y0110703D01*
X0248256Y0112302D02*
X0223856Y0112302D01*
X0223856Y0113900D02*
X0248256Y0113900D01*
X0248256Y0115499D02*
X0223856Y0115499D01*
X0223856Y0117097D02*
X0248256Y0117097D01*
X0248256Y0118696D02*
X0223856Y0118696D01*
X0223856Y0120294D02*
X0248256Y0120294D01*
X0248256Y0121893D02*
X0223856Y0121893D01*
X0223856Y0123491D02*
X0248256Y0123491D01*
X0248256Y0125090D02*
X0223856Y0125090D01*
X0223856Y0126688D02*
X0248256Y0126688D01*
X0248256Y0128287D02*
X0223856Y0128287D01*
X0223856Y0129885D02*
X0248256Y0129885D01*
X0248256Y0131484D02*
X0223856Y0131484D01*
X0223856Y0133082D02*
X0248256Y0133082D01*
X0248256Y0134681D02*
X0223856Y0134681D01*
X0223856Y0136279D02*
X0248256Y0136279D01*
X0248256Y0137878D02*
X0223856Y0137878D01*
X0223856Y0139476D02*
X0248256Y0139476D01*
X0248256Y0141075D02*
X0223856Y0141075D01*
X0223856Y0142673D02*
X0248256Y0142673D01*
X0248256Y0144272D02*
X0223856Y0144272D01*
X0223856Y0145870D02*
X0248256Y0145870D01*
X0248256Y0147469D02*
X0223856Y0147469D01*
X0223856Y0149068D02*
X0248256Y0149068D01*
X0248256Y0150666D02*
X0223856Y0150666D01*
X0223856Y0152265D02*
X0248256Y0152265D01*
X0248256Y0153863D02*
X0223856Y0153863D01*
X0223856Y0155462D02*
X0248134Y0155462D01*
X0247875Y0157060D02*
X0223856Y0157060D01*
X0223856Y0158659D02*
X0248350Y0158659D01*
X0250444Y0160257D02*
X0223856Y0160257D01*
X0223856Y0161856D02*
X0260357Y0161856D01*
X0260357Y0163454D02*
X0223856Y0163454D01*
X0224214Y0165053D02*
X0228447Y0165053D01*
X0228329Y0165139D02*
X0228940Y0164695D01*
X0229613Y0164352D01*
X0230332Y0164118D01*
X0231078Y0164000D01*
X0231256Y0164000D01*
X0231256Y0171600D01*
X0231656Y0171600D01*
X0231656Y0172000D01*
X0236256Y0172000D01*
X0236256Y0175178D01*
X0236138Y0175924D01*
X0235904Y0176643D01*
X0235561Y0177316D01*
X0235117Y0177927D01*
X0234583Y0178461D01*
X0233972Y0178905D01*
X0233298Y0179248D01*
X0232580Y0179482D01*
X0231834Y0179600D01*
X0231656Y0179600D01*
X0231656Y0172000D01*
X0231256Y0172000D01*
X0231256Y0179600D01*
X0231078Y0179600D01*
X0230332Y0179482D01*
X0229613Y0179248D01*
X0228940Y0178905D01*
X0228329Y0178461D01*
X0227795Y0177927D01*
X0227351Y0177316D01*
X0227008Y0176643D01*
X0226774Y0175924D01*
X0226656Y0175178D01*
X0226656Y0172000D01*
X0231256Y0172000D01*
X0231256Y0171600D01*
X0226656Y0171600D01*
X0226656Y0168422D01*
X0226774Y0167676D01*
X0227008Y0166957D01*
X0227351Y0166284D01*
X0227795Y0165673D01*
X0228329Y0165139D01*
X0227164Y0166651D02*
X0225545Y0166651D01*
X0226056Y0168250D02*
X0226683Y0168250D01*
X0226656Y0169848D02*
X0226056Y0169848D01*
X0226056Y0171447D02*
X0226656Y0171447D01*
X0226656Y0173045D02*
X0226056Y0173045D01*
X0226056Y0174644D02*
X0226656Y0174644D01*
X0226877Y0176242D02*
X0225838Y0176242D01*
X0224921Y0177841D02*
X0227732Y0177841D01*
X0230201Y0179439D02*
X0222211Y0179439D01*
X0220612Y0181038D02*
X0260357Y0181038D01*
X0260357Y0182636D02*
X0219014Y0182636D01*
X0217415Y0184235D02*
X0260357Y0184235D01*
X0260357Y0185833D02*
X0215817Y0185833D01*
X0213956Y0184300D02*
X0221456Y0176800D01*
X0221456Y0171800D01*
X0221456Y0101800D01*
X0231456Y0091800D01*
X0227875Y0091521D02*
X0213856Y0091521D01*
X0213856Y0089923D02*
X0228357Y0089923D01*
X0230490Y0088324D02*
X0224996Y0088324D01*
X0222706Y0085550D02*
X0237706Y0085550D01*
X0235416Y0088324D02*
X0232422Y0088324D01*
X0226742Y0093120D02*
X0213856Y0093120D01*
X0213856Y0094718D02*
X0225144Y0094718D01*
X0223545Y0096317D02*
X0213856Y0096317D01*
X0213856Y0097915D02*
X0221947Y0097915D01*
X0220348Y0099514D02*
X0213856Y0099514D01*
X0213856Y0101112D02*
X0219143Y0101112D01*
X0219056Y0102711D02*
X0213856Y0102711D01*
X0213856Y0104309D02*
X0219056Y0104309D01*
X0219056Y0105908D02*
X0213856Y0105908D01*
X0213856Y0107506D02*
X0219056Y0107506D01*
X0219056Y0109105D02*
X0213856Y0109105D01*
X0213856Y0110703D02*
X0219056Y0110703D01*
X0219056Y0112302D02*
X0213856Y0112302D01*
X0213856Y0113900D02*
X0219056Y0113900D01*
X0219056Y0115499D02*
X0213856Y0115499D01*
X0213856Y0117097D02*
X0219056Y0117097D01*
X0219056Y0118696D02*
X0213856Y0118696D01*
X0213856Y0120294D02*
X0219056Y0120294D01*
X0219056Y0121893D02*
X0213856Y0121893D01*
X0213856Y0123491D02*
X0219056Y0123491D01*
X0219056Y0125090D02*
X0213856Y0125090D01*
X0213856Y0126688D02*
X0219056Y0126688D01*
X0219056Y0128287D02*
X0213856Y0128287D01*
X0213856Y0129885D02*
X0219056Y0129885D01*
X0219056Y0131484D02*
X0213856Y0131484D01*
X0213856Y0133082D02*
X0219056Y0133082D01*
X0219056Y0134681D02*
X0213856Y0134681D01*
X0213856Y0136279D02*
X0219056Y0136279D01*
X0219056Y0137878D02*
X0213856Y0137878D01*
X0213856Y0139476D02*
X0219056Y0139476D01*
X0219056Y0141075D02*
X0213856Y0141075D01*
X0213856Y0142673D02*
X0219056Y0142673D01*
X0219056Y0144272D02*
X0213856Y0144272D01*
X0213856Y0145870D02*
X0219056Y0145870D01*
X0219056Y0147469D02*
X0213856Y0147469D01*
X0213856Y0149068D02*
X0219056Y0149068D01*
X0219056Y0150666D02*
X0213856Y0150666D01*
X0213856Y0152265D02*
X0219056Y0152265D01*
X0219056Y0153863D02*
X0213856Y0153863D01*
X0213856Y0155462D02*
X0219056Y0155462D01*
X0219056Y0157060D02*
X0213856Y0157060D01*
X0213856Y0158659D02*
X0219056Y0158659D01*
X0219056Y0160257D02*
X0213856Y0160257D01*
X0213856Y0161856D02*
X0219056Y0161856D01*
X0219056Y0163454D02*
X0213856Y0163454D01*
X0214214Y0165053D02*
X0218698Y0165053D01*
X0217367Y0166651D02*
X0215545Y0166651D01*
X0216056Y0168250D02*
X0216856Y0168250D01*
X0216856Y0169848D02*
X0216056Y0169848D01*
X0216056Y0171447D02*
X0216856Y0171447D01*
X0216856Y0173045D02*
X0216056Y0173045D01*
X0216056Y0174644D02*
X0216856Y0174644D01*
X0217074Y0176242D02*
X0215838Y0176242D01*
X0214921Y0177841D02*
X0217021Y0177841D01*
X0215423Y0179439D02*
X0212211Y0179439D01*
X0210612Y0181038D02*
X0213824Y0181038D01*
X0213956Y0184300D02*
X0122956Y0184300D01*
X0123088Y0181038D02*
X0162300Y0181038D01*
X0160701Y0179439D02*
X0121489Y0179439D01*
X0119891Y0177841D02*
X0159103Y0177841D01*
X0157504Y0176242D02*
X0118292Y0176242D01*
X0116694Y0174644D02*
X0155905Y0174644D01*
X0155306Y0173045D02*
X0115095Y0173045D01*
X0113497Y0171447D02*
X0155306Y0171447D01*
X0155306Y0169848D02*
X0111898Y0169848D01*
X0110300Y0168250D02*
X0155306Y0168250D01*
X0155306Y0166651D02*
X0108701Y0166651D01*
X0107356Y0165053D02*
X0155306Y0165053D01*
X0155306Y0163454D02*
X0107356Y0163454D01*
X0107356Y0161856D02*
X0155306Y0161856D01*
X0155306Y0160257D02*
X0107356Y0160257D01*
X0107356Y0158659D02*
X0155306Y0158659D01*
X0155306Y0157060D02*
X0107356Y0157060D01*
X0107356Y0155462D02*
X0155306Y0155462D01*
X0155306Y0153863D02*
X0145848Y0153863D01*
X0144561Y0155150D02*
X0147256Y0152455D01*
X0147256Y0148645D01*
X0144561Y0145950D01*
X0140751Y0145950D01*
X0138056Y0148645D01*
X0138056Y0152455D01*
X0140751Y0155150D01*
X0144561Y0155150D01*
X0147256Y0152265D02*
X0155306Y0152265D01*
X0155306Y0150666D02*
X0147256Y0150666D01*
X0147256Y0149068D02*
X0155306Y0149068D01*
X0155306Y0147469D02*
X0146080Y0147469D01*
X0146068Y0145350D02*
X0143256Y0142538D01*
X0143256Y0140750D01*
X0147856Y0140750D01*
X0147856Y0145350D01*
X0146068Y0145350D01*
X0144990Y0144272D02*
X0140322Y0144272D01*
X0141921Y0142673D02*
X0143391Y0142673D01*
X0143256Y0141075D02*
X0142056Y0141075D01*
X0143256Y0140350D02*
X0143256Y0138562D01*
X0146068Y0135750D01*
X0147856Y0135750D01*
X0147856Y0140350D01*
X0148256Y0140350D01*
X0148256Y0140750D01*
X0152856Y0140750D01*
X0152856Y0142538D01*
X0150044Y0145350D01*
X0148256Y0145350D01*
X0148256Y0140750D01*
X0147856Y0140750D01*
X0147856Y0140350D01*
X0143256Y0140350D01*
X0143256Y0139476D02*
X0142056Y0139476D01*
X0141372Y0137878D02*
X0143940Y0137878D01*
X0145538Y0136279D02*
X0139774Y0136279D01*
X0131969Y0134681D02*
X0150943Y0134681D01*
X0150044Y0135750D02*
X0152856Y0138562D01*
X0152856Y0140350D01*
X0148256Y0140350D01*
X0148256Y0135750D01*
X0150044Y0135750D01*
X0150574Y0136279D02*
X0152541Y0136279D01*
X0152172Y0137878D02*
X0154140Y0137878D01*
X0155306Y0139476D02*
X0152856Y0139476D01*
X0152856Y0141075D02*
X0155306Y0141075D01*
X0155306Y0142673D02*
X0152721Y0142673D01*
X0151122Y0144272D02*
X0155306Y0144272D01*
X0155306Y0145870D02*
X0107356Y0145870D01*
X0102556Y0145870D02*
X0077956Y0145870D01*
X0077956Y0146350D02*
X0088940Y0146350D01*
X0088808Y0147530D01*
X0088513Y0148822D01*
X0088075Y0150073D01*
X0087500Y0151267D01*
X0086795Y0152389D01*
X0085968Y0153425D01*
X0085031Y0154362D01*
X0083995Y0155189D01*
X0082873Y0155894D01*
X0081679Y0156469D01*
X0080428Y0156907D01*
X0079136Y0157202D01*
X0077956Y0157335D01*
X0077956Y0146350D01*
X0077956Y0144750D01*
X0088940Y0144750D01*
X0088808Y0143570D01*
X0088513Y0142278D01*
X0088075Y0141027D01*
X0087500Y0139833D01*
X0086795Y0138711D01*
X0085968Y0137675D01*
X0085031Y0136738D01*
X0083995Y0135911D01*
X0082873Y0135206D01*
X0081679Y0134631D01*
X0080428Y0134193D01*
X0079136Y0133898D01*
X0077956Y0133765D01*
X0077956Y0144750D01*
X0076356Y0144750D01*
X0076356Y0133765D01*
X0075176Y0133898D01*
X0073884Y0134193D01*
X0072633Y0134631D01*
X0071439Y0135206D01*
X0070317Y0135911D01*
X0069281Y0136738D01*
X0068343Y0137675D01*
X0067517Y0138711D01*
X0066812Y0139833D01*
X0066237Y0141027D01*
X0065799Y0142278D01*
X0065504Y0143570D01*
X0065371Y0144750D01*
X0076356Y0144750D01*
X0076356Y0146350D01*
X0076356Y0157335D01*
X0075176Y0157202D01*
X0073884Y0156907D01*
X0072633Y0156469D01*
X0071439Y0155894D01*
X0070317Y0155189D01*
X0069281Y0154362D01*
X0068343Y0153425D01*
X0067517Y0152389D01*
X0066812Y0151267D01*
X0066237Y0150073D01*
X0065799Y0148822D01*
X0065504Y0147530D01*
X0065371Y0146350D01*
X0076356Y0146350D01*
X0077956Y0146350D01*
X0077956Y0147469D02*
X0076356Y0147469D01*
X0076356Y0145870D02*
X0031256Y0145870D01*
X0031256Y0144272D02*
X0065425Y0144272D01*
X0065709Y0142673D02*
X0031256Y0142673D01*
X0031256Y0141075D02*
X0066220Y0141075D01*
X0067036Y0139476D02*
X0031256Y0139476D01*
X0031256Y0137878D02*
X0068181Y0137878D01*
X0069855Y0136279D02*
X0031256Y0136279D01*
X0031256Y0134681D02*
X0072530Y0134681D01*
X0076356Y0134681D02*
X0077956Y0134681D01*
X0077956Y0136279D02*
X0076356Y0136279D01*
X0076356Y0137878D02*
X0077956Y0137878D01*
X0077956Y0139476D02*
X0076356Y0139476D01*
X0076356Y0141075D02*
X0077956Y0141075D01*
X0077956Y0142673D02*
X0076356Y0142673D01*
X0076356Y0144272D02*
X0077956Y0144272D01*
X0077956Y0149068D02*
X0076356Y0149068D01*
X0076356Y0150666D02*
X0077956Y0150666D01*
X0077956Y0152265D02*
X0076356Y0152265D01*
X0076356Y0153863D02*
X0077956Y0153863D01*
X0077956Y0155462D02*
X0076356Y0155462D01*
X0076356Y0157060D02*
X0077956Y0157060D01*
X0079756Y0157060D02*
X0102556Y0157060D01*
X0102556Y0155462D02*
X0083561Y0155462D01*
X0085531Y0153863D02*
X0102556Y0153863D01*
X0102556Y0152265D02*
X0086873Y0152265D01*
X0087789Y0150666D02*
X0102556Y0150666D01*
X0102556Y0149068D02*
X0088427Y0149068D01*
X0088814Y0147469D02*
X0102556Y0147469D01*
X0102073Y0144272D02*
X0088887Y0144272D01*
X0088603Y0142673D02*
X0100474Y0142673D01*
X0100256Y0141075D02*
X0088092Y0141075D01*
X0087276Y0139476D02*
X0100256Y0139476D01*
X0101023Y0137878D02*
X0086130Y0137878D01*
X0084457Y0136279D02*
X0102621Y0136279D01*
X0107091Y0136279D02*
X0113421Y0136279D01*
X0117891Y0136279D02*
X0124074Y0136279D01*
X0125181Y0134681D02*
X0081782Y0134681D01*
X0083365Y0129885D02*
X0086831Y0129885D01*
X0086582Y0129636D02*
X0086582Y0129636D01*
X0089956Y0125090D02*
X0113681Y0125090D01*
X0112875Y0123491D02*
X0082826Y0123491D01*
X0080086Y0123491D02*
X0047537Y0123491D01*
X0046980Y0125090D02*
X0078288Y0125090D01*
X0077875Y0126688D02*
X0031256Y0126688D01*
X0031256Y0125090D02*
X0040931Y0125090D01*
X0040375Y0123491D02*
X0031256Y0123491D01*
X0031256Y0121893D02*
X0040559Y0121893D01*
X0041647Y0120294D02*
X0031256Y0120294D01*
X0031256Y0118696D02*
X0044916Y0118696D01*
X0046752Y0117097D02*
X0031256Y0117097D01*
X0031256Y0115499D02*
X0089363Y0115499D01*
X0090962Y0113900D02*
X0079420Y0113900D01*
X0079492Y0113829D02*
X0078484Y0114836D01*
X0077168Y0115381D01*
X0075744Y0115381D01*
X0074427Y0114836D01*
X0073420Y0113829D01*
X0073039Y0112908D01*
X0058743Y0098613D01*
X0058256Y0097437D01*
X0058256Y0064663D01*
X0058743Y0063487D01*
X0059643Y0062587D01*
X0067256Y0054975D01*
X0067256Y0030432D01*
X0066875Y0029512D01*
X0066875Y0028088D01*
X0067420Y0026771D01*
X0068427Y0025764D01*
X0069744Y0025219D01*
X0071168Y0025219D01*
X0072484Y0025764D01*
X0073492Y0026771D01*
X0074037Y0028088D01*
X0074037Y0029512D01*
X0073656Y0030432D01*
X0073656Y0056937D01*
X0073169Y0058113D01*
X0064656Y0066625D01*
X0064656Y0095475D01*
X0077564Y0108383D01*
X0078484Y0108764D01*
X0079492Y0109771D01*
X0080037Y0111088D01*
X0080037Y0112512D01*
X0079492Y0113829D01*
X0080037Y0112302D02*
X0092560Y0112302D01*
X0094159Y0110703D02*
X0079878Y0110703D01*
X0078825Y0109105D02*
X0095757Y0109105D01*
X0097356Y0107506D02*
X0076688Y0107506D01*
X0075089Y0105908D02*
X0098954Y0105908D01*
X0100553Y0104309D02*
X0073491Y0104309D01*
X0071892Y0102711D02*
X0081582Y0102711D01*
X0079580Y0101112D02*
X0070294Y0101112D01*
X0068695Y0099514D02*
X0079125Y0099514D01*
X0079403Y0097915D02*
X0067097Y0097915D01*
X0065498Y0096317D02*
X0080625Y0096317D01*
X0082706Y0099300D02*
X0083956Y0100550D01*
X0096456Y0100550D01*
X0103956Y0093050D01*
X0107706Y0093050D01*
X0111287Y0093120D02*
X0121881Y0093120D01*
X0120283Y0091521D02*
X0110949Y0091521D01*
X0109514Y0089923D02*
X0118684Y0089923D01*
X0117086Y0088324D02*
X0064656Y0088324D01*
X0064656Y0086726D02*
X0115487Y0086726D01*
X0113889Y0085127D02*
X0064656Y0085127D01*
X0064656Y0083529D02*
X0112290Y0083529D01*
X0110692Y0081930D02*
X0064656Y0081930D01*
X0064656Y0080332D02*
X0110306Y0080332D01*
X0110306Y0078733D02*
X0073129Y0078733D01*
X0073484Y0078586D02*
X0072168Y0079131D01*
X0070744Y0079131D01*
X0069427Y0078586D01*
X0068420Y0077579D01*
X0067875Y0076262D01*
X0067875Y0074838D01*
X0068420Y0073521D01*
X0069056Y0072886D01*
X0069056Y0071323D01*
X0069421Y0070441D01*
X0070096Y0069765D01*
X0081625Y0058237D01*
X0081625Y0057338D01*
X0082170Y0056021D01*
X0083177Y0055014D01*
X0084494Y0054469D01*
X0085918Y0054469D01*
X0087234Y0055014D01*
X0088242Y0056021D01*
X0088787Y0057338D01*
X0088787Y0058762D01*
X0088242Y0060079D01*
X0087234Y0061086D01*
X0085918Y0061631D01*
X0085019Y0061631D01*
X0073856Y0072794D01*
X0073856Y0072886D01*
X0074492Y0073521D01*
X0075037Y0074838D01*
X0075037Y0076262D01*
X0074492Y0077579D01*
X0073484Y0078586D01*
X0074676Y0077134D02*
X0110306Y0077134D01*
X0110306Y0075536D02*
X0075037Y0075536D01*
X0074664Y0073937D02*
X0110306Y0073937D01*
X0110306Y0072339D02*
X0074311Y0072339D01*
X0075910Y0070740D02*
X0110306Y0070740D01*
X0110306Y0069142D02*
X0077508Y0069142D01*
X0079107Y0067543D02*
X0110306Y0067543D01*
X0110306Y0065945D02*
X0080705Y0065945D01*
X0082304Y0064346D02*
X0110306Y0064346D01*
X0110306Y0062748D02*
X0083902Y0062748D01*
X0087081Y0061149D02*
X0110306Y0061149D01*
X0110306Y0059551D02*
X0088460Y0059551D01*
X0088787Y0057952D02*
X0110306Y0057952D01*
X0110306Y0056354D02*
X0088379Y0056354D01*
X0086610Y0054755D02*
X0110306Y0054755D01*
X0110306Y0053157D02*
X0073656Y0053157D01*
X0073656Y0054755D02*
X0083802Y0054755D01*
X0082032Y0056354D02*
X0073656Y0056354D01*
X0073235Y0057952D02*
X0081625Y0057952D01*
X0080311Y0059551D02*
X0071730Y0059551D01*
X0070132Y0061149D02*
X0078712Y0061149D01*
X0077114Y0062748D02*
X0068533Y0062748D01*
X0066935Y0064346D02*
X0075515Y0064346D01*
X0073917Y0065945D02*
X0065336Y0065945D01*
X0064656Y0067543D02*
X0072318Y0067543D01*
X0070720Y0069142D02*
X0064656Y0069142D01*
X0064656Y0070740D02*
X0069297Y0070740D01*
X0069056Y0072339D02*
X0064656Y0072339D01*
X0064656Y0073937D02*
X0068248Y0073937D01*
X0067875Y0075536D02*
X0064656Y0075536D01*
X0064656Y0077134D02*
X0068236Y0077134D01*
X0069783Y0078733D02*
X0064656Y0078733D01*
X0058256Y0078733D02*
X0031256Y0078733D01*
X0031256Y0077134D02*
X0058256Y0077134D01*
X0058256Y0075536D02*
X0031256Y0075536D01*
X0031256Y0073937D02*
X0058256Y0073937D01*
X0058256Y0072339D02*
X0046224Y0072339D01*
X0046092Y0072440D02*
X0045147Y0072986D01*
X0044138Y0073403D01*
X0043084Y0073686D01*
X0042256Y0073795D01*
X0042256Y0066301D01*
X0040656Y0066301D01*
X0040656Y0073795D01*
X0039828Y0073686D01*
X0038773Y0073403D01*
X0037765Y0072986D01*
X0036819Y0072440D01*
X0035953Y0071775D01*
X0035181Y0071003D01*
X0034517Y0070137D01*
X0033971Y0069192D01*
X0033553Y0068183D01*
X0033271Y0067129D01*
X0033162Y0066301D01*
X0040656Y0066301D01*
X0040656Y0064701D01*
X0033162Y0064701D01*
X0033271Y0063873D01*
X0033553Y0062818D01*
X0033971Y0061810D01*
X0034517Y0060864D01*
X0035181Y0059998D01*
X0035953Y0059226D01*
X0036819Y0058562D01*
X0037765Y0058016D01*
X0038773Y0057598D01*
X0039828Y0057316D01*
X0040656Y0057207D01*
X0040656Y0064701D01*
X0042256Y0064701D01*
X0042256Y0066301D01*
X0049750Y0066301D01*
X0049641Y0067129D01*
X0049358Y0068183D01*
X0048941Y0069192D01*
X0048395Y0070137D01*
X0047730Y0071003D01*
X0046958Y0071775D01*
X0046092Y0072440D01*
X0047932Y0070740D02*
X0058256Y0070740D01*
X0058256Y0069142D02*
X0048961Y0069142D01*
X0049530Y0067543D02*
X0058256Y0067543D01*
X0058256Y0065945D02*
X0042256Y0065945D01*
X0042256Y0064701D02*
X0049750Y0064701D01*
X0049641Y0063873D01*
X0049358Y0062818D01*
X0048941Y0061810D01*
X0048395Y0060864D01*
X0047730Y0059998D01*
X0046958Y0059226D01*
X0046092Y0058562D01*
X0045147Y0058016D01*
X0044138Y0057598D01*
X0043084Y0057316D01*
X0042256Y0057207D01*
X0042256Y0064701D01*
X0042256Y0064346D02*
X0040656Y0064346D01*
X0040656Y0062748D02*
X0042256Y0062748D01*
X0042256Y0061149D02*
X0040656Y0061149D01*
X0040656Y0059551D02*
X0042256Y0059551D01*
X0042256Y0057952D02*
X0040656Y0057952D01*
X0037918Y0057952D02*
X0031256Y0057952D01*
X0031256Y0056354D02*
X0065877Y0056354D01*
X0067256Y0054755D02*
X0031256Y0054755D01*
X0031256Y0053157D02*
X0067256Y0053157D01*
X0067256Y0051558D02*
X0031256Y0051558D01*
X0031256Y0049960D02*
X0049126Y0049960D01*
X0049627Y0050461D02*
X0048386Y0049220D01*
X0047714Y0047599D01*
X0047714Y0045844D01*
X0048386Y0044223D01*
X0049627Y0042982D01*
X0051248Y0042310D01*
X0053003Y0042310D01*
X0054624Y0042982D01*
X0055865Y0044223D01*
X0056062Y0044699D01*
X0056260Y0044223D01*
X0057501Y0042982D01*
X0059122Y0042310D01*
X0060877Y0042310D01*
X0062498Y0042982D01*
X0063739Y0044223D01*
X0064410Y0045844D01*
X0064410Y0047599D01*
X0063739Y0049220D01*
X0062498Y0050461D01*
X0060877Y0051132D01*
X0059122Y0051132D01*
X0057501Y0050461D01*
X0056260Y0049220D01*
X0056062Y0048743D01*
X0055865Y0049220D01*
X0054624Y0050461D01*
X0053003Y0051132D01*
X0051248Y0051132D01*
X0049627Y0050461D01*
X0048030Y0048361D02*
X0031256Y0048361D01*
X0031256Y0046763D02*
X0047714Y0046763D01*
X0047996Y0045164D02*
X0031256Y0045164D01*
X0031256Y0043566D02*
X0049043Y0043566D01*
X0050355Y0041152D02*
X0051045Y0041376D01*
X0051762Y0041490D01*
X0052020Y0041490D01*
X0052020Y0036984D01*
X0052020Y0036773D01*
X0052231Y0036773D01*
X0052231Y0032268D01*
X0052488Y0032268D01*
X0053205Y0032381D01*
X0053895Y0032606D01*
X0054542Y0032935D01*
X0055129Y0033362D01*
X0055642Y0033875D01*
X0056069Y0034462D01*
X0056155Y0034632D01*
X0056260Y0034380D01*
X0057501Y0033139D01*
X0059122Y0032468D01*
X0060877Y0032468D01*
X0062498Y0033139D01*
X0063739Y0034380D01*
X0064410Y0036001D01*
X0064410Y0037756D01*
X0063739Y0039377D01*
X0062498Y0040618D01*
X0060877Y0041290D01*
X0059122Y0041290D01*
X0057501Y0040618D01*
X0056260Y0039377D01*
X0056155Y0039126D01*
X0056069Y0039295D01*
X0055642Y0039883D01*
X0055129Y0040396D01*
X0054542Y0040822D01*
X0053895Y0041152D01*
X0053205Y0041376D01*
X0052488Y0041490D01*
X0052231Y0041490D01*
X0052231Y0036984D01*
X0052020Y0036984D01*
X0047514Y0036984D01*
X0047514Y0037242D01*
X0047628Y0037958D01*
X0047852Y0038649D01*
X0048181Y0039295D01*
X0048608Y0039883D01*
X0049121Y0040396D01*
X0049708Y0040822D01*
X0050355Y0041152D01*
X0049094Y0040369D02*
X0031256Y0040369D01*
X0031256Y0041967D02*
X0067256Y0041967D01*
X0067256Y0040369D02*
X0062747Y0040369D01*
X0063990Y0038770D02*
X0067256Y0038770D01*
X0067256Y0037172D02*
X0064410Y0037172D01*
X0064233Y0035573D02*
X0067256Y0035573D01*
X0067256Y0033975D02*
X0063333Y0033975D01*
X0067256Y0032376D02*
X0053173Y0032376D01*
X0052231Y0032376D02*
X0052020Y0032376D01*
X0052020Y0032268D02*
X0052020Y0036773D01*
X0047514Y0036773D01*
X0047514Y0036516D01*
X0047628Y0035799D01*
X0047852Y0035109D01*
X0048181Y0034462D01*
X0048608Y0033875D01*
X0049121Y0033362D01*
X0049708Y0032935D01*
X0050355Y0032606D01*
X0051045Y0032381D01*
X0051762Y0032268D01*
X0052020Y0032268D01*
X0051077Y0032376D02*
X0031256Y0032376D01*
X0031256Y0030778D02*
X0067256Y0030778D01*
X0066875Y0029179D02*
X0031256Y0029179D01*
X0031256Y0027581D02*
X0067085Y0027581D01*
X0068209Y0025982D02*
X0044186Y0025982D01*
X0042256Y0025982D02*
X0040656Y0025982D01*
X0040656Y0024384D02*
X0042256Y0024384D01*
X0042256Y0022785D02*
X0040656Y0022785D01*
X0040656Y0021187D02*
X0042256Y0021187D01*
X0042256Y0019588D02*
X0040656Y0019588D01*
X0040656Y0017990D02*
X0031256Y0017990D01*
X0031256Y0019588D02*
X0033253Y0019588D01*
X0033721Y0021187D02*
X0031256Y0021187D01*
X0031256Y0022785D02*
X0034555Y0022785D01*
X0035966Y0024384D02*
X0031256Y0024384D01*
X0031256Y0025982D02*
X0038726Y0025982D01*
X0046945Y0024384D02*
X0174228Y0024384D01*
X0172630Y0025982D02*
X0072702Y0025982D01*
X0073827Y0027581D02*
X0171031Y0027581D01*
X0169433Y0029179D02*
X0074037Y0029179D01*
X0073656Y0030778D02*
X0167834Y0030778D01*
X0166346Y0032265D02*
X0165671Y0032941D01*
X0165306Y0033823D01*
X0165306Y0041027D01*
X0165671Y0041909D01*
X0174125Y0050363D01*
X0174125Y0051262D01*
X0174670Y0052579D01*
X0175677Y0053586D01*
X0176994Y0054131D01*
X0178418Y0054131D01*
X0179734Y0053586D01*
X0180742Y0052579D01*
X0181287Y0051262D01*
X0181287Y0049838D01*
X0180742Y0048521D01*
X0179734Y0047514D01*
X0178418Y0046969D01*
X0177519Y0046969D01*
X0170106Y0039556D01*
X0170106Y0035294D01*
X0179950Y0025450D01*
X0208106Y0025450D01*
X0208106Y0026965D01*
X0208806Y0028656D01*
X0210100Y0029950D01*
X0211791Y0030650D01*
X0213621Y0030650D01*
X0215312Y0029950D01*
X0216606Y0028656D01*
X0217306Y0026965D01*
X0217306Y0019135D01*
X0216606Y0017444D01*
X0215312Y0016150D01*
X0213621Y0015450D01*
X0211791Y0015450D01*
X0210100Y0016150D01*
X0208806Y0017444D01*
X0208106Y0019135D01*
X0208106Y0020650D01*
X0178479Y0020650D01*
X0177596Y0021015D01*
X0166346Y0032265D01*
X0166236Y0032376D02*
X0151901Y0032376D01*
X0152234Y0032514D02*
X0153242Y0033521D01*
X0153787Y0034838D01*
X0153787Y0036262D01*
X0153242Y0037579D01*
X0152606Y0038214D01*
X0152606Y0039556D01*
X0167450Y0054400D01*
X0185462Y0054400D01*
X0191346Y0048515D01*
X0192229Y0048150D01*
X0195041Y0048150D01*
X0195677Y0047514D01*
X0196994Y0046969D01*
X0198418Y0046969D01*
X0199734Y0047514D01*
X0200742Y0048521D01*
X0201287Y0049838D01*
X0201287Y0051262D01*
X0200742Y0052579D01*
X0199734Y0053586D01*
X0198418Y0054131D01*
X0196994Y0054131D01*
X0195677Y0053586D01*
X0195041Y0052950D01*
X0193700Y0052950D01*
X0188491Y0058159D01*
X0187815Y0058835D01*
X0186933Y0059200D01*
X0165979Y0059200D01*
X0165096Y0058835D01*
X0148846Y0042585D01*
X0148171Y0041909D01*
X0147806Y0041027D01*
X0147806Y0038214D01*
X0147170Y0037579D01*
X0146625Y0036262D01*
X0146625Y0034838D01*
X0147170Y0033521D01*
X0148177Y0032514D01*
X0149494Y0031969D01*
X0150918Y0031969D01*
X0152234Y0032514D01*
X0153430Y0033975D02*
X0165306Y0033975D01*
X0165306Y0035573D02*
X0153787Y0035573D01*
X0153410Y0037172D02*
X0165306Y0037172D01*
X0165306Y0038770D02*
X0152606Y0038770D01*
X0153419Y0040369D02*
X0165306Y0040369D01*
X0165729Y0041967D02*
X0155017Y0041967D01*
X0156616Y0043566D02*
X0167328Y0043566D01*
X0168926Y0045164D02*
X0158214Y0045164D01*
X0159813Y0046763D02*
X0170525Y0046763D01*
X0172123Y0048361D02*
X0161411Y0048361D01*
X0163010Y0049960D02*
X0173722Y0049960D01*
X0174247Y0051558D02*
X0164608Y0051558D01*
X0166207Y0053157D02*
X0175248Y0053157D01*
X0177706Y0050550D02*
X0167706Y0040550D01*
X0167706Y0034300D01*
X0178956Y0023050D01*
X0212706Y0023050D01*
X0208106Y0025982D02*
X0179418Y0025982D01*
X0177819Y0027581D02*
X0208361Y0027581D01*
X0209330Y0029179D02*
X0176221Y0029179D01*
X0174622Y0030778D02*
X0231872Y0030778D01*
X0231582Y0030732D02*
X0230863Y0030498D01*
X0230190Y0030155D01*
X0229579Y0029711D01*
X0229045Y0029177D01*
X0228601Y0028566D01*
X0228258Y0027893D01*
X0228024Y0027174D01*
X0227906Y0026428D01*
X0227906Y0023250D01*
X0232506Y0023250D01*
X0232506Y0030850D01*
X0232328Y0030850D01*
X0231582Y0030732D01*
X0232506Y0030778D02*
X0232906Y0030778D01*
X0232906Y0030850D02*
X0232906Y0023250D01*
X0237506Y0023250D01*
X0237506Y0026428D01*
X0237388Y0027174D01*
X0237154Y0027893D01*
X0236811Y0028566D01*
X0236367Y0029177D01*
X0235833Y0029711D01*
X0235222Y0030155D01*
X0234548Y0030498D01*
X0233830Y0030732D01*
X0233084Y0030850D01*
X0232906Y0030850D01*
X0233540Y0030778D02*
X0237584Y0030778D01*
X0236365Y0029179D02*
X0239183Y0029179D01*
X0238361Y0027581D02*
X0237256Y0027581D01*
X0237506Y0025982D02*
X0238106Y0025982D01*
X0238106Y0024384D02*
X0237506Y0024384D01*
X0237506Y0022850D02*
X0232906Y0022850D01*
X0232906Y0023250D01*
X0232506Y0023250D01*
X0232506Y0022850D01*
X0232906Y0022850D01*
X0232906Y0015250D01*
X0233084Y0015250D01*
X0233830Y0015368D01*
X0234548Y0015602D01*
X0235222Y0015945D01*
X0235833Y0016389D01*
X0236367Y0016923D01*
X0236811Y0017534D01*
X0237154Y0018207D01*
X0237388Y0018926D01*
X0237506Y0019672D01*
X0237506Y0022850D01*
X0237506Y0022785D02*
X0238106Y0022785D01*
X0238106Y0021187D02*
X0237506Y0021187D01*
X0237493Y0019588D02*
X0238106Y0019588D01*
X0238580Y0017990D02*
X0237043Y0017990D01*
X0235835Y0016391D02*
X0239859Y0016391D01*
X0245552Y0016391D02*
X0249859Y0016391D01*
X0248580Y0017990D02*
X0246831Y0017990D01*
X0247306Y0019588D02*
X0248106Y0019588D01*
X0248106Y0021187D02*
X0247306Y0021187D01*
X0247306Y0022785D02*
X0248106Y0022785D01*
X0248106Y0024384D02*
X0247306Y0024384D01*
X0247306Y0025982D02*
X0248106Y0025982D01*
X0248361Y0027581D02*
X0247051Y0027581D01*
X0246082Y0029179D02*
X0249330Y0029179D01*
X0252706Y0030550D02*
X0252706Y0023050D01*
X0257306Y0022785D02*
X0260357Y0022785D01*
X0260357Y0021187D02*
X0257306Y0021187D01*
X0257306Y0019588D02*
X0260357Y0019588D01*
X0260357Y0017990D02*
X0256831Y0017990D01*
X0255552Y0016391D02*
X0260357Y0016391D01*
X0260357Y0014793D02*
X0049100Y0014793D01*
X0049620Y0016391D02*
X0209859Y0016391D01*
X0208580Y0017990D02*
X0042256Y0017990D01*
X0048189Y0013194D02*
X0260357Y0013194D01*
X0260357Y0024384D02*
X0257306Y0024384D01*
X0257306Y0025982D02*
X0260357Y0025982D01*
X0260357Y0027581D02*
X0257051Y0027581D01*
X0256082Y0029179D02*
X0260357Y0029179D01*
X0260357Y0030778D02*
X0255106Y0030778D01*
X0254274Y0032376D02*
X0260357Y0032376D01*
X0260357Y0033975D02*
X0252675Y0033975D01*
X0250206Y0033050D02*
X0252706Y0030550D01*
X0250206Y0033050D02*
X0245206Y0033050D01*
X0203956Y0074300D01*
X0190206Y0074300D01*
X0186842Y0075536D02*
X0178256Y0075536D01*
X0179037Y0077134D02*
X0187976Y0077134D01*
X0186625Y0073937D02*
X0184383Y0073937D01*
X0185037Y0072339D02*
X0187142Y0072339D01*
X0184893Y0070740D02*
X0189442Y0070740D01*
X0190970Y0070740D02*
X0204121Y0070740D01*
X0205720Y0069142D02*
X0183862Y0069142D01*
X0181456Y0071800D02*
X0142706Y0071800D01*
X0128956Y0058050D01*
X0127552Y0054755D02*
X0115106Y0054755D01*
X0115106Y0056354D02*
X0125782Y0056354D01*
X0125375Y0057952D02*
X0115106Y0057952D01*
X0115106Y0059551D02*
X0125701Y0059551D01*
X0127081Y0061149D02*
X0115106Y0061149D01*
X0115106Y0062748D02*
X0130260Y0062748D01*
X0131858Y0064346D02*
X0121396Y0064346D01*
X0119456Y0065800D02*
X0117456Y0065800D01*
X0116456Y0066800D01*
X0116456Y0075800D01*
X0120456Y0079800D01*
X0122855Y0077134D02*
X0133396Y0077134D01*
X0134056Y0078733D02*
X0123890Y0078733D01*
X0124037Y0080332D02*
X0133188Y0080332D01*
X0132875Y0081930D02*
X0123390Y0081930D01*
X0120677Y0085127D02*
X0135130Y0085127D01*
X0133296Y0083529D02*
X0119079Y0083529D01*
X0117522Y0081930D02*
X0117480Y0081930D01*
X0116875Y0080332D02*
X0115882Y0080332D01*
X0115995Y0078733D02*
X0115106Y0078733D01*
X0112706Y0080550D02*
X0112706Y0051800D01*
X0113956Y0050550D01*
X0116413Y0053157D02*
X0124419Y0053157D01*
X0122820Y0051558D02*
X0117414Y0051558D01*
X0117537Y0049960D02*
X0121222Y0049960D01*
X0119623Y0048361D02*
X0116832Y0048361D01*
X0118025Y0046763D02*
X0090308Y0046763D01*
X0091224Y0045164D02*
X0116426Y0045164D01*
X0116456Y0041800D02*
X0090206Y0041800D01*
X0087706Y0044300D01*
X0085104Y0046763D02*
X0073656Y0046763D01*
X0073656Y0048361D02*
X0111080Y0048361D01*
X0110375Y0049960D02*
X0073656Y0049960D01*
X0073656Y0051558D02*
X0110306Y0051558D01*
X0116456Y0041800D02*
X0126456Y0051800D01*
X0131456Y0051800D01*
X0146456Y0051800D01*
X0160206Y0065550D01*
X0200206Y0065550D01*
X0203584Y0064346D02*
X0207438Y0064346D01*
X0206472Y0062748D02*
X0202468Y0062748D01*
X0206375Y0061149D02*
X0159199Y0061149D01*
X0157601Y0059551D02*
X0207141Y0059551D01*
X0209956Y0061800D02*
X0242706Y0029050D01*
X0242706Y0023050D01*
X0232906Y0022785D02*
X0232506Y0022785D01*
X0232506Y0022850D02*
X0232506Y0015250D01*
X0232328Y0015250D01*
X0231582Y0015368D01*
X0230863Y0015602D01*
X0230190Y0015945D01*
X0229579Y0016389D01*
X0229045Y0016923D01*
X0228601Y0017534D01*
X0228258Y0018207D01*
X0228024Y0018926D01*
X0227906Y0019672D01*
X0227906Y0022850D01*
X0232506Y0022850D01*
X0232506Y0024384D02*
X0232906Y0024384D01*
X0232906Y0025982D02*
X0232506Y0025982D01*
X0232506Y0027581D02*
X0232906Y0027581D01*
X0232906Y0029179D02*
X0232506Y0029179D01*
X0235986Y0032376D02*
X0173024Y0032376D01*
X0174577Y0033239D02*
X0176120Y0032600D01*
X0177791Y0032600D01*
X0179335Y0033239D01*
X0180516Y0034421D01*
X0181156Y0035965D01*
X0181156Y0037635D01*
X0180516Y0039179D01*
X0179335Y0040361D01*
X0177791Y0041000D01*
X0176120Y0041000D01*
X0174577Y0040361D01*
X0173395Y0039179D01*
X0172756Y0037635D01*
X0172756Y0035965D01*
X0173395Y0034421D01*
X0174577Y0033239D01*
X0173842Y0033975D02*
X0171425Y0033975D01*
X0170106Y0035573D02*
X0172918Y0035573D01*
X0172756Y0037172D02*
X0170106Y0037172D01*
X0170106Y0038770D02*
X0173226Y0038770D01*
X0174596Y0040369D02*
X0170919Y0040369D01*
X0172517Y0041967D02*
X0226395Y0041967D01*
X0227993Y0040369D02*
X0198315Y0040369D01*
X0198335Y0040361D02*
X0196791Y0041000D01*
X0195120Y0041000D01*
X0193577Y0040361D01*
X0192395Y0039179D01*
X0191756Y0037635D01*
X0191756Y0035965D01*
X0192395Y0034421D01*
X0193577Y0033239D01*
X0195120Y0032600D01*
X0196791Y0032600D01*
X0198335Y0033239D01*
X0199516Y0034421D01*
X0200156Y0035965D01*
X0200156Y0037635D01*
X0199516Y0039179D01*
X0198335Y0040361D01*
X0199686Y0038770D02*
X0229592Y0038770D01*
X0231190Y0037172D02*
X0200156Y0037172D01*
X0199994Y0035573D02*
X0232789Y0035573D01*
X0234387Y0033975D02*
X0199070Y0033975D01*
X0192842Y0033975D02*
X0180070Y0033975D01*
X0180994Y0035573D02*
X0191918Y0035573D01*
X0191756Y0037172D02*
X0181156Y0037172D01*
X0180686Y0038770D02*
X0192226Y0038770D01*
X0193596Y0040369D02*
X0179315Y0040369D01*
X0175714Y0045164D02*
X0223198Y0045164D01*
X0224796Y0043566D02*
X0174116Y0043566D01*
X0177313Y0046763D02*
X0221599Y0046763D01*
X0220000Y0048361D02*
X0200582Y0048361D01*
X0201287Y0049960D02*
X0218402Y0049960D01*
X0216803Y0051558D02*
X0201164Y0051558D01*
X0200163Y0053157D02*
X0215205Y0053157D01*
X0213606Y0054755D02*
X0191895Y0054755D01*
X0193493Y0053157D02*
X0195248Y0053157D01*
X0197706Y0050550D02*
X0192706Y0050550D01*
X0186456Y0056800D01*
X0166456Y0056800D01*
X0150206Y0040550D01*
X0150206Y0035550D01*
X0146625Y0035573D02*
X0124994Y0035573D01*
X0125156Y0035965D02*
X0124516Y0034421D01*
X0123335Y0033239D01*
X0121791Y0032600D01*
X0120120Y0032600D01*
X0118577Y0033239D01*
X0117395Y0034421D01*
X0116756Y0035965D01*
X0116756Y0037635D01*
X0117395Y0039179D01*
X0118577Y0040361D01*
X0120120Y0041000D01*
X0121791Y0041000D01*
X0123335Y0040361D01*
X0124516Y0039179D01*
X0125156Y0037635D01*
X0125156Y0035965D01*
X0125156Y0037172D02*
X0147001Y0037172D01*
X0147806Y0038770D02*
X0124686Y0038770D01*
X0123315Y0040369D02*
X0147806Y0040369D01*
X0148229Y0041967D02*
X0120017Y0041967D01*
X0118596Y0040369D02*
X0118419Y0040369D01*
X0117226Y0038770D02*
X0105686Y0038770D01*
X0106156Y0037172D02*
X0116756Y0037172D01*
X0116918Y0035573D02*
X0105994Y0035573D01*
X0105070Y0033975D02*
X0117842Y0033975D01*
X0124070Y0033975D02*
X0146982Y0033975D01*
X0148510Y0032376D02*
X0073656Y0032376D01*
X0073656Y0033975D02*
X0098842Y0033975D01*
X0097918Y0035573D02*
X0073656Y0035573D01*
X0073656Y0037172D02*
X0097756Y0037172D01*
X0098226Y0038770D02*
X0073656Y0038770D01*
X0073656Y0040369D02*
X0088243Y0040369D01*
X0084974Y0041967D02*
X0073656Y0041967D01*
X0073656Y0043566D02*
X0084134Y0043566D01*
X0084188Y0045164D02*
X0073656Y0045164D01*
X0067256Y0045164D02*
X0064129Y0045164D01*
X0064410Y0046763D02*
X0067256Y0046763D01*
X0067256Y0048361D02*
X0064094Y0048361D01*
X0062999Y0049960D02*
X0067256Y0049960D01*
X0067256Y0043566D02*
X0063082Y0043566D01*
X0056917Y0043566D02*
X0055208Y0043566D01*
X0055156Y0040369D02*
X0057251Y0040369D01*
X0052231Y0040369D02*
X0052020Y0040369D01*
X0052020Y0038770D02*
X0052231Y0038770D01*
X0052231Y0037172D02*
X0052020Y0037172D01*
X0052020Y0035573D02*
X0052231Y0035573D01*
X0052231Y0033975D02*
X0052020Y0033975D01*
X0055715Y0033975D02*
X0056665Y0033975D01*
X0048536Y0033975D02*
X0031256Y0033975D01*
X0031256Y0035573D02*
X0047701Y0035573D01*
X0047514Y0037172D02*
X0031256Y0037172D01*
X0031256Y0038770D02*
X0047914Y0038770D01*
X0055125Y0049960D02*
X0057000Y0049960D01*
X0064278Y0057952D02*
X0044993Y0057952D01*
X0047283Y0059551D02*
X0062680Y0059551D01*
X0061081Y0061149D02*
X0048559Y0061149D01*
X0049329Y0062748D02*
X0059483Y0062748D01*
X0058387Y0064346D02*
X0049703Y0064346D01*
X0042256Y0067543D02*
X0040656Y0067543D01*
X0040656Y0065945D02*
X0031256Y0065945D01*
X0031256Y0067543D02*
X0033382Y0067543D01*
X0033950Y0069142D02*
X0031256Y0069142D01*
X0031256Y0070740D02*
X0034980Y0070740D01*
X0036688Y0072339D02*
X0031256Y0072339D01*
X0031256Y0080332D02*
X0058256Y0080332D01*
X0058256Y0081930D02*
X0031256Y0081930D01*
X0031256Y0083529D02*
X0058256Y0083529D01*
X0058256Y0085127D02*
X0031256Y0085127D01*
X0031256Y0086726D02*
X0058256Y0086726D01*
X0058256Y0088324D02*
X0031256Y0088324D01*
X0031256Y0089923D02*
X0058256Y0089923D01*
X0058256Y0091521D02*
X0031256Y0091521D01*
X0031256Y0093120D02*
X0058256Y0093120D01*
X0058256Y0094718D02*
X0031256Y0094718D01*
X0031256Y0096317D02*
X0058256Y0096317D01*
X0058454Y0097915D02*
X0031256Y0097915D01*
X0031256Y0099514D02*
X0059644Y0099514D01*
X0061243Y0101112D02*
X0031256Y0101112D01*
X0031256Y0102711D02*
X0062841Y0102711D01*
X0064440Y0104309D02*
X0031256Y0104309D01*
X0031256Y0105908D02*
X0066038Y0105908D01*
X0067637Y0107506D02*
X0031256Y0107506D01*
X0031256Y0109105D02*
X0069235Y0109105D01*
X0070834Y0110703D02*
X0031256Y0110703D01*
X0031256Y0112302D02*
X0072432Y0112302D01*
X0073492Y0113900D02*
X0031256Y0113900D01*
X0043956Y0123050D02*
X0047706Y0119300D01*
X0088956Y0119300D01*
X0111456Y0096800D01*
X0176456Y0096800D01*
X0179870Y0097915D02*
X0209056Y0097915D01*
X0209056Y0096317D02*
X0180037Y0096317D01*
X0179438Y0094718D02*
X0209056Y0094718D01*
X0209056Y0093120D02*
X0149785Y0093120D01*
X0150037Y0091521D02*
X0209056Y0091521D01*
X0209056Y0089923D02*
X0149554Y0089923D01*
X0147422Y0088324D02*
X0209056Y0088324D01*
X0209056Y0086726D02*
X0122276Y0086726D01*
X0123874Y0088324D02*
X0145490Y0088324D01*
X0147630Y0085127D02*
X0137782Y0085127D01*
X0139616Y0083529D02*
X0144790Y0083529D01*
X0143192Y0081930D02*
X0140037Y0081930D01*
X0139724Y0080332D02*
X0141593Y0080332D01*
X0139995Y0078733D02*
X0138856Y0078733D01*
X0136456Y0076800D02*
X0136456Y0081800D01*
X0136456Y0076800D02*
X0131456Y0071800D01*
X0120206Y0071800D01*
X0119586Y0075536D02*
X0131798Y0075536D01*
X0132456Y0067800D02*
X0121456Y0067800D01*
X0119456Y0065800D01*
X0115515Y0064346D02*
X0115106Y0064346D01*
X0132456Y0067800D02*
X0146456Y0081800D01*
X0148956Y0081800D01*
X0152224Y0080332D02*
X0172923Y0080332D01*
X0171966Y0078733D02*
X0150909Y0078733D01*
X0152537Y0081930D02*
X0176327Y0081930D01*
X0177456Y0079800D02*
X0205956Y0079800D01*
X0206456Y0079300D01*
X0208890Y0081930D02*
X0209056Y0081930D01*
X0209056Y0083529D02*
X0152116Y0083529D01*
X0150282Y0085127D02*
X0209056Y0085127D01*
X0213856Y0085127D02*
X0219125Y0085127D01*
X0219317Y0086726D02*
X0213856Y0086726D01*
X0213856Y0088324D02*
X0220416Y0088324D01*
X0219667Y0083529D02*
X0213856Y0083529D01*
X0214964Y0073937D02*
X0260357Y0073937D01*
X0260357Y0072339D02*
X0215037Y0072339D01*
X0214211Y0070740D02*
X0260357Y0070740D01*
X0260357Y0069142D02*
X0212508Y0069142D01*
X0214107Y0067543D02*
X0260357Y0067543D01*
X0260357Y0065945D02*
X0215705Y0065945D01*
X0217304Y0064346D02*
X0260357Y0064346D01*
X0260357Y0062748D02*
X0218902Y0062748D01*
X0220501Y0061149D02*
X0260357Y0061149D01*
X0260357Y0059551D02*
X0222099Y0059551D01*
X0223698Y0057952D02*
X0260357Y0057952D01*
X0260357Y0056354D02*
X0225296Y0056354D01*
X0226895Y0054755D02*
X0260357Y0054755D01*
X0260357Y0053157D02*
X0228493Y0053157D01*
X0230092Y0051558D02*
X0260357Y0051558D01*
X0260357Y0049960D02*
X0231690Y0049960D01*
X0233289Y0048361D02*
X0260357Y0048361D01*
X0260357Y0046763D02*
X0234887Y0046763D01*
X0236486Y0045164D02*
X0260357Y0045164D01*
X0260357Y0043566D02*
X0238084Y0043566D01*
X0239683Y0041967D02*
X0260357Y0041967D01*
X0260357Y0040369D02*
X0241281Y0040369D01*
X0242880Y0038770D02*
X0260357Y0038770D01*
X0260357Y0037172D02*
X0244478Y0037172D01*
X0246077Y0035573D02*
X0260357Y0035573D01*
X0244420Y0030778D02*
X0244372Y0030778D01*
X0232906Y0021187D02*
X0232506Y0021187D01*
X0232506Y0019588D02*
X0232906Y0019588D01*
X0232906Y0017990D02*
X0232506Y0017990D01*
X0232506Y0016391D02*
X0232906Y0016391D01*
X0229577Y0016391D02*
X0225552Y0016391D01*
X0225312Y0016150D02*
X0226606Y0017444D01*
X0227306Y0019135D01*
X0227306Y0026965D01*
X0226606Y0028656D01*
X0225312Y0029950D01*
X0223621Y0030650D01*
X0221791Y0030650D01*
X0220100Y0029950D01*
X0218806Y0028656D01*
X0218106Y0026965D01*
X0218106Y0019135D01*
X0218806Y0017444D01*
X0220100Y0016150D01*
X0221791Y0015450D01*
X0223621Y0015450D01*
X0225312Y0016150D01*
X0226831Y0017990D02*
X0228369Y0017990D01*
X0227919Y0019588D02*
X0227306Y0019588D01*
X0227306Y0021187D02*
X0227906Y0021187D01*
X0227906Y0022785D02*
X0227306Y0022785D01*
X0227306Y0024384D02*
X0227906Y0024384D01*
X0227906Y0025982D02*
X0227306Y0025982D01*
X0227051Y0027581D02*
X0228156Y0027581D01*
X0229047Y0029179D02*
X0226082Y0029179D01*
X0219330Y0029179D02*
X0216082Y0029179D01*
X0217051Y0027581D02*
X0218361Y0027581D01*
X0218106Y0025982D02*
X0217306Y0025982D01*
X0217306Y0024384D02*
X0218106Y0024384D01*
X0218106Y0022785D02*
X0217306Y0022785D01*
X0217306Y0021187D02*
X0218106Y0021187D01*
X0218106Y0019588D02*
X0217306Y0019588D01*
X0216831Y0017990D02*
X0218580Y0017990D01*
X0219859Y0016391D02*
X0215552Y0016391D01*
X0208106Y0019588D02*
X0049659Y0019588D01*
X0049191Y0021187D02*
X0177425Y0021187D01*
X0175827Y0022785D02*
X0048357Y0022785D01*
X0033292Y0016391D02*
X0031256Y0016391D01*
X0031256Y0014793D02*
X0033812Y0014793D01*
X0034723Y0013194D02*
X0031256Y0013194D01*
X0085206Y0058050D02*
X0071456Y0071800D01*
X0071456Y0075550D01*
X0064656Y0089923D02*
X0105898Y0089923D01*
X0102091Y0091521D02*
X0064656Y0091521D01*
X0064656Y0093120D02*
X0100492Y0093120D01*
X0098894Y0094718D02*
X0064656Y0094718D01*
X0084787Y0096317D02*
X0097295Y0096317D01*
X0095697Y0097915D02*
X0086008Y0097915D01*
X0097511Y0102711D02*
X0102151Y0102711D01*
X0103750Y0101112D02*
X0099288Y0101112D01*
X0100886Y0099514D02*
X0105348Y0099514D01*
X0106947Y0097915D02*
X0102485Y0097915D01*
X0104083Y0096317D02*
X0106234Y0096317D01*
X0110538Y0101112D02*
X0118382Y0101112D01*
X0117875Y0102711D02*
X0108939Y0102711D01*
X0107341Y0104309D02*
X0116803Y0104309D01*
X0115204Y0105908D02*
X0105742Y0105908D01*
X0104144Y0107506D02*
X0114083Y0107506D01*
X0114056Y0109105D02*
X0102545Y0109105D01*
X0100947Y0110703D02*
X0114056Y0110703D01*
X0114056Y0112302D02*
X0099348Y0112302D01*
X0097750Y0113900D02*
X0114056Y0113900D01*
X0114056Y0115499D02*
X0096151Y0115499D01*
X0094553Y0117097D02*
X0114056Y0117097D01*
X0114056Y0118696D02*
X0092954Y0118696D01*
X0091356Y0120294D02*
X0113897Y0120294D01*
X0112955Y0121893D02*
X0048507Y0121893D01*
X0031256Y0128287D02*
X0078196Y0128287D01*
X0079547Y0129885D02*
X0031256Y0129885D01*
X0031256Y0131484D02*
X0128378Y0131484D01*
X0126779Y0133082D02*
X0031256Y0133082D01*
X0031256Y0147469D02*
X0065497Y0147469D01*
X0065885Y0149068D02*
X0031256Y0149068D01*
X0031256Y0150666D02*
X0066523Y0150666D01*
X0067439Y0152265D02*
X0031256Y0152265D01*
X0031256Y0153863D02*
X0068781Y0153863D01*
X0070751Y0155462D02*
X0031256Y0155462D01*
X0031256Y0157060D02*
X0074556Y0157060D01*
X0054492Y0164771D02*
X0055037Y0166088D01*
X0055037Y0167512D01*
X0054492Y0168829D01*
X0053484Y0169836D01*
X0052168Y0170381D01*
X0050744Y0170381D01*
X0049427Y0169836D01*
X0048791Y0169200D01*
X0041620Y0169200D01*
X0040984Y0169836D01*
X0039668Y0170381D01*
X0038244Y0170381D01*
X0036927Y0169836D01*
X0035920Y0168829D01*
X0035375Y0167512D01*
X0035375Y0166088D01*
X0035920Y0164771D01*
X0036927Y0163764D01*
X0038244Y0163219D01*
X0039668Y0163219D01*
X0040984Y0163764D01*
X0041620Y0164400D01*
X0048791Y0164400D01*
X0049427Y0163764D01*
X0050744Y0163219D01*
X0052168Y0163219D01*
X0053484Y0163764D01*
X0054492Y0164771D01*
X0054608Y0165053D02*
X0102556Y0165053D01*
X0102556Y0166651D02*
X0055037Y0166651D01*
X0054732Y0168250D02*
X0103511Y0168250D01*
X0105110Y0169848D02*
X0053455Y0169848D01*
X0049457Y0169848D02*
X0040955Y0169848D01*
X0036957Y0169848D02*
X0031256Y0169848D01*
X0031256Y0168250D02*
X0035680Y0168250D01*
X0035375Y0166651D02*
X0031256Y0166651D01*
X0031256Y0165053D02*
X0035804Y0165053D01*
X0037676Y0163454D02*
X0031256Y0163454D01*
X0031256Y0161856D02*
X0102556Y0161856D01*
X0102556Y0163454D02*
X0052736Y0163454D01*
X0050176Y0163454D02*
X0040236Y0163454D01*
X0038956Y0166800D02*
X0051456Y0166800D01*
X0031256Y0171447D02*
X0106708Y0171447D01*
X0108307Y0173045D02*
X0031256Y0173045D01*
X0031256Y0174644D02*
X0109905Y0174644D01*
X0111504Y0176242D02*
X0031256Y0176242D01*
X0031256Y0177841D02*
X0113103Y0177841D01*
X0114701Y0179439D02*
X0031256Y0179439D01*
X0031256Y0181038D02*
X0116300Y0181038D01*
X0117898Y0182636D02*
X0031256Y0182636D01*
X0031256Y0184235D02*
X0119497Y0184235D01*
X0102556Y0160257D02*
X0031256Y0160257D01*
X0031256Y0158659D02*
X0102556Y0158659D01*
X0118439Y0144272D02*
X0123673Y0144272D01*
X0122074Y0142673D02*
X0120038Y0142673D01*
X0120256Y0141075D02*
X0121856Y0141075D01*
X0121856Y0139476D02*
X0120256Y0139476D01*
X0119489Y0137878D02*
X0122623Y0137878D01*
X0135280Y0147469D02*
X0139232Y0147469D01*
X0138056Y0149068D02*
X0136456Y0149068D01*
X0136456Y0150666D02*
X0138056Y0150666D01*
X0138056Y0152265D02*
X0136456Y0152265D01*
X0135048Y0153863D02*
X0139464Y0153863D01*
X0147856Y0144272D02*
X0148256Y0144272D01*
X0148256Y0142673D02*
X0147856Y0142673D01*
X0147856Y0141075D02*
X0148256Y0141075D01*
X0148256Y0139476D02*
X0147856Y0139476D01*
X0147856Y0137878D02*
X0148256Y0137878D01*
X0148256Y0136279D02*
X0147856Y0136279D01*
X0154534Y0131484D02*
X0187180Y0131484D01*
X0188656Y0133082D02*
X0156132Y0133082D01*
X0157731Y0134681D02*
X0171130Y0134681D01*
X0171233Y0134631D02*
X0172484Y0134193D01*
X0173776Y0133898D01*
X0174956Y0133765D01*
X0174956Y0144750D01*
X0176556Y0144750D01*
X0176556Y0146350D01*
X0187540Y0146350D01*
X0187408Y0147530D01*
X0187113Y0148822D01*
X0186675Y0150073D01*
X0186100Y0151267D01*
X0185395Y0152389D01*
X0184568Y0153425D01*
X0183631Y0154362D01*
X0182595Y0155189D01*
X0181473Y0155894D01*
X0180279Y0156469D01*
X0179028Y0156907D01*
X0177736Y0157202D01*
X0176556Y0157335D01*
X0176556Y0146350D01*
X0174956Y0146350D01*
X0174956Y0157335D01*
X0173776Y0157202D01*
X0172484Y0156907D01*
X0171233Y0156469D01*
X0170039Y0155894D01*
X0168917Y0155189D01*
X0167881Y0154362D01*
X0166943Y0153425D01*
X0166117Y0152389D01*
X0165412Y0151267D01*
X0164837Y0150073D01*
X0164399Y0148822D01*
X0164104Y0147530D01*
X0163971Y0146350D01*
X0174956Y0146350D01*
X0174956Y0144750D01*
X0163971Y0144750D01*
X0164104Y0143570D01*
X0164399Y0142278D01*
X0164837Y0141027D01*
X0165412Y0139833D01*
X0166117Y0138711D01*
X0166943Y0137675D01*
X0167881Y0136738D01*
X0168917Y0135911D01*
X0170039Y0135206D01*
X0171233Y0134631D01*
X0168455Y0136279D02*
X0159329Y0136279D01*
X0160106Y0137878D02*
X0166781Y0137878D01*
X0165636Y0139476D02*
X0160106Y0139476D01*
X0160106Y0141075D02*
X0164820Y0141075D01*
X0164309Y0142673D02*
X0160106Y0142673D01*
X0160106Y0144272D02*
X0164025Y0144272D01*
X0164097Y0147469D02*
X0160106Y0147469D01*
X0160106Y0145870D02*
X0174956Y0145870D01*
X0174956Y0144272D02*
X0176556Y0144272D01*
X0176556Y0144750D02*
X0176556Y0133765D01*
X0177736Y0133898D01*
X0179028Y0134193D01*
X0180279Y0134631D01*
X0181473Y0135206D01*
X0182595Y0135911D01*
X0183631Y0136738D01*
X0184568Y0137675D01*
X0185395Y0138711D01*
X0186100Y0139833D01*
X0186675Y0141027D01*
X0187113Y0142278D01*
X0187408Y0143570D01*
X0187540Y0144750D01*
X0176556Y0144750D01*
X0176556Y0145870D02*
X0188656Y0145870D01*
X0188656Y0144272D02*
X0187487Y0144272D01*
X0187203Y0142673D02*
X0188656Y0142673D01*
X0188656Y0141075D02*
X0186692Y0141075D01*
X0185876Y0139476D02*
X0188656Y0139476D01*
X0188656Y0137878D02*
X0184730Y0137878D01*
X0183057Y0136279D02*
X0188656Y0136279D01*
X0188656Y0134681D02*
X0180382Y0134681D01*
X0176556Y0134681D02*
X0174956Y0134681D01*
X0174956Y0136279D02*
X0176556Y0136279D01*
X0176556Y0137878D02*
X0174956Y0137878D01*
X0174956Y0139476D02*
X0176556Y0139476D01*
X0176556Y0141075D02*
X0174956Y0141075D01*
X0174956Y0142673D02*
X0176556Y0142673D01*
X0176556Y0147469D02*
X0174956Y0147469D01*
X0174956Y0149068D02*
X0176556Y0149068D01*
X0176556Y0150666D02*
X0174956Y0150666D01*
X0174956Y0152265D02*
X0176556Y0152265D01*
X0176556Y0153863D02*
X0174956Y0153863D01*
X0174956Y0155462D02*
X0176556Y0155462D01*
X0176556Y0157060D02*
X0174956Y0157060D01*
X0173156Y0157060D02*
X0160106Y0157060D01*
X0160106Y0155462D02*
X0169351Y0155462D01*
X0167381Y0153863D02*
X0160106Y0153863D01*
X0160106Y0152265D02*
X0166039Y0152265D01*
X0165123Y0150666D02*
X0160106Y0150666D01*
X0160106Y0149068D02*
X0164485Y0149068D01*
X0160106Y0158659D02*
X0209056Y0158659D01*
X0209056Y0160257D02*
X0160106Y0160257D01*
X0160106Y0161856D02*
X0209056Y0161856D01*
X0209056Y0163454D02*
X0160106Y0163454D01*
X0160106Y0165053D02*
X0208698Y0165053D01*
X0207367Y0166651D02*
X0160106Y0166651D01*
X0160106Y0168250D02*
X0206856Y0168250D01*
X0206856Y0169848D02*
X0160106Y0169848D01*
X0160106Y0171447D02*
X0206856Y0171447D01*
X0206856Y0173045D02*
X0161095Y0173045D01*
X0162694Y0174644D02*
X0206856Y0174644D01*
X0207074Y0176242D02*
X0164292Y0176242D01*
X0165891Y0177841D02*
X0207021Y0177841D01*
X0209056Y0157060D02*
X0178356Y0157060D01*
X0182161Y0155462D02*
X0188553Y0155462D01*
X0187875Y0153863D02*
X0184131Y0153863D01*
X0185473Y0152265D02*
X0188009Y0152265D01*
X0188656Y0150666D02*
X0186389Y0150666D01*
X0187027Y0149068D02*
X0188656Y0149068D01*
X0188656Y0147469D02*
X0187414Y0147469D01*
X0194256Y0147469D02*
X0209056Y0147469D01*
X0209056Y0145870D02*
X0194256Y0145870D01*
X0194256Y0144272D02*
X0209056Y0144272D01*
X0209056Y0142673D02*
X0194256Y0142673D01*
X0194256Y0141075D02*
X0209056Y0141075D01*
X0209056Y0139476D02*
X0194256Y0139476D01*
X0194256Y0137878D02*
X0209056Y0137878D01*
X0209056Y0136279D02*
X0194256Y0136279D01*
X0194256Y0134681D02*
X0209056Y0134681D01*
X0209056Y0133082D02*
X0194256Y0133082D01*
X0194256Y0131484D02*
X0209056Y0131484D01*
X0209056Y0129885D02*
X0193501Y0129885D01*
X0193042Y0129426D02*
X0193042Y0129426D01*
X0191903Y0128287D02*
X0209056Y0128287D01*
X0209056Y0126688D02*
X0191212Y0126688D01*
X0192810Y0125090D02*
X0209056Y0125090D01*
X0209056Y0123491D02*
X0194409Y0123491D01*
X0196007Y0121893D02*
X0209056Y0121893D01*
X0209056Y0120294D02*
X0197606Y0120294D01*
X0199204Y0118696D02*
X0209056Y0118696D01*
X0209056Y0117097D02*
X0200803Y0117097D01*
X0202401Y0115499D02*
X0209056Y0115499D01*
X0209056Y0113900D02*
X0204000Y0113900D01*
X0205598Y0112302D02*
X0209056Y0112302D01*
X0209056Y0110703D02*
X0207617Y0110703D01*
X0208645Y0109105D02*
X0209056Y0109105D01*
X0209056Y0107506D02*
X0208787Y0107506D01*
X0209056Y0105908D02*
X0208128Y0105908D01*
X0209056Y0104309D02*
X0190280Y0104309D01*
X0191212Y0105908D02*
X0202284Y0105908D01*
X0201625Y0107506D02*
X0191287Y0107506D01*
X0190466Y0109105D02*
X0201767Y0109105D01*
X0200409Y0110703D02*
X0160947Y0110703D01*
X0159348Y0112302D02*
X0198810Y0112302D01*
X0197212Y0113900D02*
X0157750Y0113900D01*
X0156151Y0115499D02*
X0195613Y0115499D01*
X0194015Y0117097D02*
X0154553Y0117097D01*
X0152954Y0118696D02*
X0192416Y0118696D01*
X0190817Y0120294D02*
X0151356Y0120294D01*
X0149757Y0121893D02*
X0189219Y0121893D01*
X0187620Y0123491D02*
X0148159Y0123491D01*
X0146199Y0125090D02*
X0186022Y0125090D01*
X0186456Y0128050D02*
X0205206Y0109300D01*
X0205206Y0108050D01*
X0209056Y0102711D02*
X0187011Y0102711D01*
X0185412Y0101112D02*
X0209056Y0101112D01*
X0209056Y0099514D02*
X0183458Y0099514D01*
X0182706Y0101800D02*
X0187706Y0106800D01*
X0184946Y0109105D02*
X0164216Y0109105D01*
X0165037Y0107506D02*
X0184125Y0107506D01*
X0183420Y0105908D02*
X0164962Y0105908D01*
X0164030Y0104309D02*
X0181821Y0104309D01*
X0182706Y0101800D02*
X0156456Y0101800D01*
X0141456Y0116800D01*
X0131456Y0116800D01*
X0126456Y0121800D01*
X0126456Y0122800D01*
X0123897Y0120294D02*
X0119015Y0120294D01*
X0118856Y0118696D02*
X0126166Y0118696D01*
X0127765Y0117097D02*
X0118856Y0117097D01*
X0118856Y0115499D02*
X0129363Y0115499D01*
X0122955Y0121893D02*
X0119956Y0121893D01*
X0120037Y0123491D02*
X0122875Y0123491D01*
X0123681Y0125090D02*
X0119230Y0125090D01*
X0116456Y0122800D02*
X0116456Y0108050D01*
X0121456Y0103050D01*
X0124810Y0104309D02*
X0150553Y0104309D01*
X0152151Y0102711D02*
X0125037Y0102711D01*
X0124529Y0101112D02*
X0153750Y0101112D01*
X0155704Y0099514D02*
X0122276Y0099514D01*
X0120636Y0099514D02*
X0112136Y0099514D01*
X0120394Y0107506D02*
X0147356Y0107506D01*
X0148954Y0105908D02*
X0123663Y0105908D01*
X0118856Y0109105D02*
X0145757Y0109105D01*
X0144159Y0110703D02*
X0118856Y0110703D01*
X0118856Y0112302D02*
X0142560Y0112302D01*
X0140962Y0113900D02*
X0118856Y0113900D01*
X0136456Y0122800D02*
X0145456Y0122800D01*
X0161456Y0106800D01*
X0146456Y0091800D02*
X0123956Y0091800D01*
X0112706Y0080550D01*
X0135449Y0061149D02*
X0152411Y0061149D01*
X0150813Y0059551D02*
X0133851Y0059551D01*
X0132537Y0057952D02*
X0149214Y0057952D01*
X0147616Y0056354D02*
X0132129Y0056354D01*
X0133565Y0054755D02*
X0146017Y0054755D01*
X0149608Y0051558D02*
X0157820Y0051558D01*
X0156222Y0049960D02*
X0148010Y0049960D01*
X0151207Y0053157D02*
X0159419Y0053157D01*
X0161017Y0054755D02*
X0152805Y0054755D01*
X0154404Y0056354D02*
X0162616Y0056354D01*
X0164214Y0057952D02*
X0156002Y0057952D01*
X0154010Y0062748D02*
X0137048Y0062748D01*
X0138646Y0064346D02*
X0155608Y0064346D01*
X0156625Y0065945D02*
X0140245Y0065945D01*
X0141843Y0067543D02*
X0157155Y0067543D01*
X0162468Y0062748D02*
X0197944Y0062748D01*
X0203787Y0065945D02*
X0208917Y0065945D01*
X0207318Y0067543D02*
X0203256Y0067543D01*
X0210409Y0057952D02*
X0188698Y0057952D01*
X0190296Y0056354D02*
X0212008Y0056354D01*
X0191718Y0048361D02*
X0180582Y0048361D01*
X0181287Y0049960D02*
X0189902Y0049960D01*
X0188303Y0051558D02*
X0181164Y0051558D01*
X0180163Y0053157D02*
X0186705Y0053157D01*
X0179050Y0069142D02*
X0143442Y0069142D01*
X0143586Y0075536D02*
X0172655Y0075536D01*
X0171875Y0077134D02*
X0145184Y0077134D01*
X0146783Y0078733D02*
X0147002Y0078733D01*
X0175456Y0077800D02*
X0177456Y0079800D01*
X0154623Y0048361D02*
X0132512Y0048361D01*
X0130400Y0048361D02*
X0126411Y0048361D01*
X0124813Y0046763D02*
X0153025Y0046763D01*
X0151426Y0045164D02*
X0123214Y0045164D01*
X0121616Y0043566D02*
X0149828Y0043566D01*
X0253727Y0107506D02*
X0260357Y0107506D01*
X0260357Y0109105D02*
X0254837Y0109105D01*
X0255037Y0110703D02*
X0260357Y0110703D01*
X0260357Y0112302D02*
X0254656Y0112302D01*
X0254656Y0113900D02*
X0260357Y0113900D01*
X0260357Y0115499D02*
X0254656Y0115499D01*
X0254656Y0117097D02*
X0260357Y0117097D01*
X0260357Y0118696D02*
X0254656Y0118696D01*
X0254656Y0120294D02*
X0260357Y0120294D01*
X0260357Y0121893D02*
X0254656Y0121893D01*
X0254656Y0123491D02*
X0260357Y0123491D01*
X0260357Y0125090D02*
X0254656Y0125090D01*
X0254656Y0126688D02*
X0260357Y0126688D01*
X0260357Y0128287D02*
X0254656Y0128287D01*
X0254656Y0129885D02*
X0260357Y0129885D01*
X0260357Y0131484D02*
X0254656Y0131484D01*
X0254656Y0133082D02*
X0260357Y0133082D01*
X0260357Y0134681D02*
X0254656Y0134681D01*
X0254656Y0136279D02*
X0260357Y0136279D01*
X0260357Y0137878D02*
X0254656Y0137878D01*
X0254656Y0139476D02*
X0260357Y0139476D01*
X0260357Y0141075D02*
X0254656Y0141075D01*
X0254656Y0142673D02*
X0260357Y0142673D01*
X0260357Y0144272D02*
X0254656Y0144272D01*
X0254656Y0145870D02*
X0260357Y0145870D01*
X0260357Y0147469D02*
X0254656Y0147469D01*
X0254656Y0149068D02*
X0260357Y0149068D01*
X0260357Y0150666D02*
X0254656Y0150666D01*
X0254656Y0152265D02*
X0260357Y0152265D01*
X0260357Y0153863D02*
X0254656Y0153863D01*
X0254778Y0155462D02*
X0260357Y0155462D01*
X0260357Y0157060D02*
X0255037Y0157060D01*
X0254562Y0158659D02*
X0260357Y0158659D01*
X0260357Y0160257D02*
X0252468Y0160257D01*
X0260357Y0165053D02*
X0244214Y0165053D01*
X0244062Y0164900D02*
X0245356Y0166194D01*
X0246056Y0167885D01*
X0246056Y0175715D01*
X0245356Y0177406D01*
X0244062Y0178700D01*
X0242371Y0179400D01*
X0240541Y0179400D01*
X0238850Y0178700D01*
X0237556Y0177406D01*
X0236856Y0175715D01*
X0236856Y0167885D01*
X0237556Y0166194D01*
X0238850Y0164900D01*
X0240541Y0164200D01*
X0242371Y0164200D01*
X0244062Y0164900D01*
X0245545Y0166651D02*
X0260357Y0166651D01*
X0260357Y0168250D02*
X0246056Y0168250D01*
X0246056Y0169848D02*
X0260357Y0169848D01*
X0260357Y0171447D02*
X0246056Y0171447D01*
X0246056Y0173045D02*
X0260357Y0173045D01*
X0260357Y0174644D02*
X0246056Y0174644D01*
X0245838Y0176242D02*
X0260357Y0176242D01*
X0260357Y0177841D02*
X0244921Y0177841D01*
X0237991Y0177841D02*
X0235180Y0177841D01*
X0236034Y0176242D02*
X0237074Y0176242D01*
X0236856Y0174644D02*
X0236256Y0174644D01*
X0236256Y0173045D02*
X0236856Y0173045D01*
X0236256Y0171600D02*
X0231656Y0171600D01*
X0231656Y0164000D01*
X0231834Y0164000D01*
X0232580Y0164118D01*
X0233298Y0164352D01*
X0233972Y0164695D01*
X0234583Y0165139D01*
X0235117Y0165673D01*
X0235561Y0166284D01*
X0235904Y0166957D01*
X0236138Y0167676D01*
X0236256Y0168422D01*
X0236256Y0171600D01*
X0236256Y0171447D02*
X0236856Y0171447D01*
X0236856Y0169848D02*
X0236256Y0169848D01*
X0236229Y0168250D02*
X0236856Y0168250D01*
X0237367Y0166651D02*
X0235748Y0166651D01*
X0234464Y0165053D02*
X0238698Y0165053D01*
X0231656Y0165053D02*
X0231256Y0165053D01*
X0231256Y0166651D02*
X0231656Y0166651D01*
X0231656Y0168250D02*
X0231256Y0168250D01*
X0231256Y0169848D02*
X0231656Y0169848D01*
X0231656Y0171447D02*
X0231256Y0171447D01*
X0231256Y0173045D02*
X0231656Y0173045D01*
X0231656Y0174644D02*
X0231256Y0174644D01*
X0231256Y0176242D02*
X0231656Y0176242D01*
X0231656Y0177841D02*
X0231256Y0177841D01*
X0231256Y0179439D02*
X0231656Y0179439D01*
X0232711Y0179439D02*
X0260357Y0179439D01*
X0209056Y0155462D02*
X0194359Y0155462D01*
X0195037Y0153863D02*
X0209056Y0153863D01*
X0209056Y0152265D02*
X0194903Y0152265D01*
X0194256Y0150666D02*
X0209056Y0150666D01*
X0209056Y0149068D02*
X0194256Y0149068D01*
X0042256Y0072339D02*
X0040656Y0072339D01*
X0040656Y0070740D02*
X0042256Y0070740D01*
X0042256Y0069142D02*
X0040656Y0069142D01*
X0033208Y0064346D02*
X0031256Y0064346D01*
X0031256Y0062748D02*
X0033583Y0062748D01*
X0034352Y0061149D02*
X0031256Y0061149D01*
X0031256Y0059551D02*
X0035629Y0059551D01*
D17*
X0061456Y0065300D02*
X0061456Y0096800D01*
X0076456Y0111800D01*
X0061456Y0065300D02*
X0070456Y0056300D01*
X0070456Y0028800D01*
X0251456Y0110300D02*
X0251456Y0156800D01*
D18*
X0251456Y0156800D03*
X0251456Y0110300D03*
X0231456Y0091800D03*
X0237706Y0085550D03*
X0222706Y0085550D03*
X0211456Y0073050D03*
X0206456Y0079300D03*
X0200206Y0065550D03*
X0209956Y0061800D03*
X0197706Y0050550D03*
X0177706Y0050550D03*
X0160206Y0065550D03*
X0175456Y0077800D03*
X0181456Y0071800D03*
X0190206Y0074300D03*
X0176456Y0096800D03*
X0187706Y0106800D03*
X0205206Y0108050D03*
X0161456Y0106800D03*
X0146456Y0091800D03*
X0148956Y0081800D03*
X0136456Y0081800D03*
X0120456Y0079800D03*
X0120206Y0071800D03*
X0128956Y0058050D03*
X0131456Y0051800D03*
X0113956Y0050550D03*
X0087706Y0044300D03*
X0085206Y0058050D03*
X0071456Y0075550D03*
X0082706Y0099300D03*
X0076456Y0111800D03*
X0081456Y0126800D03*
X0116456Y0122800D03*
X0126456Y0122800D03*
X0136456Y0122800D03*
X0121456Y0103050D03*
X0107706Y0093050D03*
X0043956Y0123050D03*
X0038956Y0166800D03*
X0051456Y0166800D03*
X0191456Y0153300D03*
X0150206Y0035550D03*
X0070456Y0028800D03*
D19*
X0081456Y0126800D02*
X0087706Y0126800D01*
X0088956Y0128050D01*
X0186456Y0128050D01*
X0187706Y0128050D01*
X0191456Y0131800D01*
X0191456Y0153300D01*
M02*
